<?xml version="1.0" encoding="utf-8"?>
<!-- Generator: Adobe Illustrator 24.0.0, SVG Export Plug-In . SVG Version: 6.00 Build 0)  -->
<svg version="1.1" id="Layer_1" xmlns="http://www.w3.org/2000/svg" xmlns:xlink="http://www.w3.org/1999/xlink" x="0px" y="0px"
	 viewBox="0 0 200 23.5" style="enable-background:new 0 0 200 23.5;" xml:space="preserve">
<style type="text/css">
	.st0{fill:#101117;}
	.st1{fill:#EF4136;}
	.st2{fill:#706F6F;}
</style>
<title>logo-cc</title>
<g>
	<path class="st0" d="M0,17.5V6.4c0-0.5,0.4-0.9,0.9-0.9c0,0,0,0,0,0c0.5,0,0.9,0.4,0.9,0.9c0,0,0,0,0,0v11.1c0,0.5-0.4,0.9-0.9,0.9
		c0,0,0,0,0,0C0.4,18.4,0,18,0,17.5C0,17.5,0,17.5,0,17.5z"/>
	<path class="st0" d="M9.3,17.9c-0.4-0.8-0.8-1.6-1.2-2.5c-0.7-1.4-1.6-3.3-2.4-5v7.1c0.1,0.5-0.3,1-0.8,1c-0.5,0.1-1-0.3-1-0.8
		c0-0.1,0-0.1,0-0.2V6.4c0-0.4,0.3-0.8,0.7-0.9c0.4-0.1,0.8,0.1,1,0.5c0.4,0.8,0.8,1.6,1.2,2.5c0.7,1.5,1.6,3.3,2.4,5V6.4
		c-0.1-0.5,0.3-1,0.8-1c0.5-0.1,1,0.3,1,0.8c0,0.1,0,0.1,0,0.2v11.1c0,0.4-0.3,0.8-0.7,0.9C9.9,18.5,9.4,18.2,9.3,17.9z"/>
	<path class="st0" d="M19,6.5c0,0.5-0.4,0.9-0.9,0.9c0,0,0,0,0,0h-1.5v10.1c0.1,0.5-0.3,1-0.8,1c-0.5,0.1-1-0.3-1-0.8
		c0-0.1,0-0.1,0-0.2V7.4h-1.6c-0.5,0-0.9-0.4-0.9-0.9s0.4-0.9,0.9-0.9l0,0h5C18.6,5.6,19,6,19,6.5z"/>
	<path class="st0" d="M21.2,5.5H25c0.5,0,0.9,0.4,0.9,0.9S25.5,7.4,25,7.4h-2.9v3.4h2.5c0.5,0,0.9,0.4,0.9,0.9s-0.4,0.9-0.9,0.9l0,0
		h-2.5v3.8H25c0.5-0.1,1,0.3,1,0.8c0.1,0.5-0.3,1-0.8,1c-0.1,0-0.1,0-0.2,0h-3.8c-0.5,0-0.9-0.4-0.9-0.9c0,0,0,0,0,0V6.5
		C20.2,6,20.6,5.5,21.2,5.5C21.1,5.5,21.2,5.5,21.2,5.5z"/>
	<path class="st0" d="M27.3,17.4v-11c0-0.5,0.4-0.9,0.9-0.9s0.9,0.4,0.9,0.9v10.1H32c0.5-0.1,1,0.3,1,0.8c0.1,0.5-0.3,1-0.8,1
		c-0.1,0-0.1,0-0.2,0h-3.8C27.7,18.3,27.3,17.9,27.3,17.4C27.3,17.4,27.3,17.4,27.3,17.4z"/>
	<path class="st0" d="M33.9,17.4v-11c-0.1-0.5,0.3-1,0.8-1c0.5-0.1,1,0.3,1,0.8c0,0.1,0,0.1,0,0.2v10.1h2.9c0.5,0.1,0.9,0.5,0.8,1
		c0,0.4-0.4,0.8-0.8,0.8h-3.8C34.3,18.3,33.9,17.9,33.9,17.4C33.9,17.4,33.9,17.4,33.9,17.4z"/>
	<path class="st0" d="M40.6,17.5V6.4c-0.1-0.5,0.3-1,0.8-1c0.5-0.1,1,0.3,1,0.8c0,0.1,0,0.1,0,0.2v11.1c0.1,0.5-0.3,1-0.8,1
		c-0.5,0.1-1-0.3-1-0.8C40.6,17.6,40.6,17.5,40.6,17.5z"/>
	<path class="st0" d="M50.6,12.1v3.1c0,1.8-1.4,3.2-3.2,3.2c-1.8,0-3.2-1.4-3.2-3.2c0,0,0,0,0,0V8.7c0-1.5,1-2.7,2.4-3.1
		c1.4-0.4,2.9,0.2,3.6,1.5c0.2,0.4,0.1,1-0.3,1.3c-0.4,0.3-1,0.1-1.2-0.3c0,0,0,0,0,0c-0.4-0.7-1.3-0.9-1.9-0.4
		C46.3,7.8,46,8.2,46,8.7v6.5c0,0.8,0.6,1.4,1.4,1.4c0.8,0,1.4-0.6,1.4-1.4c0,0,0,0,0,0V13h-1c-0.5,0.1-1-0.3-1-0.8
		c-0.1-0.5,0.3-1,0.8-1c0.1,0,0.1,0,0.2,0h1.9C50.2,11.2,50.6,11.6,50.6,12.1C50.6,12.1,50.6,12.1,50.6,12.1z"/>
	<path class="st0" d="M53.2,5.5H57c0.5,0,0.9,0.4,0.9,0.9S57.5,7.4,57,7.4h-2.9v3.4h2.5c0.5,0,0.9,0.4,0.9,0.9s-0.4,0.9-0.9,0.9
		h-2.5v3.8H57c0.5-0.1,1,0.3,1,0.8c0.1,0.5-0.3,1-0.8,1c-0.1,0-0.1,0-0.2,0h-3.8c-0.5,0-0.9-0.4-0.9-0.9c0,0,0,0,0,0V6.5
		C52.2,6,52.6,5.5,53.2,5.5C53.2,5.5,53.2,5.5,53.2,5.5z"/>
	<path class="st0" d="M64.7,17.9c-0.4-0.8-0.8-1.6-1.2-2.5c-0.7-1.4-1.6-3.3-2.4-5v7.1c0,0.5-0.4,0.9-0.9,0.9
		c-0.5,0-0.9-0.4-0.9-0.9l0,0V6.4c0-0.4,0.3-0.8,0.7-0.9c0.4-0.1,0.8,0.1,1,0.5c0.4,0.8,0.8,1.6,1.2,2.5c0.7,1.5,1.6,3.3,2.4,5V6.4
		c0-0.5,0.4-0.9,0.9-0.9c0.5,0,0.9,0.4,0.9,0.9c0,0,0,0,0,0v11.1c0,0.4-0.3,0.8-0.7,0.9C65.3,18.5,64.9,18.2,64.7,17.9z"/>
	<path class="st0" d="M68.2,15.2V8.7c0-1.8,1.4-3.2,3.2-3.2c1.2,0,2.2,0.6,2.8,1.6c0.3,0.4,0.1,1-0.3,1.2c0,0,0,0,0,0
		c-0.4,0.3-1,0.1-1.3-0.3c0,0,0,0,0,0c-0.3-0.5-0.9-0.8-1.6-0.6c-0.6,0.2-1,0.7-1,1.3v6.5c0,0.8,0.6,1.4,1.4,1.4
		c0.5,0,1-0.3,1.2-0.7c0.3-0.4,0.8-0.6,1.3-0.4c0.4,0.3,0.6,0.8,0.3,1.2c0,0,0,0,0,0c-0.9,1.5-2.8,2.1-4.4,1.2
		C68.8,17.4,68.2,16.3,68.2,15.2L68.2,15.2z"/>
	<path class="st0" d="M76.7,5.5h3.8c0.5,0,0.9,0.4,0.9,0.9S81,7.4,80.5,7.4h-2.9v3.4h2.5c0.5,0,0.9,0.4,0.9,0.9s-0.4,0.9-0.9,0.9
		h-2.5v3.8h2.9c0.5-0.1,1,0.3,1,0.8s-0.3,1-0.8,1c-0.1,0-0.1,0-0.2,0h-3.8c-0.5,0-0.9-0.4-0.9-0.9c0,0,0,0,0,0V6.5
		C75.8,6,76.2,5.5,76.7,5.5C76.7,5.5,76.7,5.5,76.7,5.5z"/>
	<path class="st0" d="M122.9,15.2V8.7c0-1.8,1.4-3.2,3.2-3.2c1.2,0,2.2,0.6,2.8,1.6c0.3,0.4,0.1,1-0.3,1.2c0,0,0,0,0,0
		c-0.4,0.3-1,0.1-1.3-0.3c-0.3-0.5-0.9-0.8-1.6-0.6c-0.6,0.2-1,0.7-1,1.3v6.5c0,0.8,0.6,1.4,1.4,1.4c0.5,0,1-0.3,1.2-0.7
		c0.3-0.4,0.8-0.6,1.3-0.4c0.4,0.3,0.6,0.8,0.3,1.3c0,0,0,0,0,0c-0.9,1.5-2.8,2.1-4.4,1.2C123.5,17.4,122.9,16.3,122.9,15.2
		L122.9,15.2z"/>
	<path class="st0" d="M137,18.3c-0.5,0.1-1-0.1-1.1-0.6c0,0,0,0,0,0c-0.1-0.1-0.1-0.3-0.1-0.5c-0.1-0.4-0.2-0.9-0.4-1.5H132
		c-0.2,0.6-0.3,1.1-0.4,1.5c-0.1,0.2-0.1,0.4-0.1,0.5c-0.1,0.5-0.6,0.8-1.1,0.6c-0.5-0.1-0.8-0.6-0.6-1.1l0,0l3.1-11.1
		c0.1-0.5,0.6-0.8,1.1-0.6c0.3,0.1,0.6,0.3,0.6,0.6l3.1,11.1C137.7,17.7,137.5,18.2,137,18.3z M133.7,9.8c-0.4,1.2-0.7,2.7-1.1,4
		h2.2C134.4,12.6,134,11.1,133.7,9.8L133.7,9.8z"/>
	<path class="st0" d="M138.8,17.4v-11c0-0.5,0.4-0.9,0.9-0.9c0.5,0,0.9,0.4,0.9,0.9v10.1h2.9c0.5-0.1,1,0.3,1,0.8s-0.3,1-0.8,1
		c-0.1,0-0.1,0-0.2,0h-3.8C139.2,18.3,138.8,17.9,138.8,17.4C138.8,17.4,138.8,17.4,138.8,17.4z"/>
	<path class="st0" d="M145.4,17.4v-11c-0.1-0.5,0.3-1,0.8-1s1,0.3,1,0.8c0,0.1,0,0.1,0,0.2v10.1h2.9c0.5,0.1,0.9,0.5,0.8,1
		c0,0.4-0.4,0.8-0.8,0.8h-3.8C145.8,18.3,145.4,17.9,145.4,17.4C145.4,17.4,145.4,17.4,145.4,17.4z"/>
	<path class="st0" d="M155.5,15.2V8.7c0-1.8,1.4-3.2,3.2-3.2c1.2,0,2.2,0.6,2.8,1.6c0.3,0.4,0.1,1-0.3,1.2c0,0,0,0,0,0
		c-0.4,0.3-1,0.1-1.3-0.3c0,0,0,0,0,0c-0.3-0.5-0.9-0.8-1.6-0.6c-0.6,0.2-1,0.7-1,1.3v6.5c0,0.8,0.6,1.4,1.4,1.4
		c0.5,0,1-0.3,1.2-0.7c0.3-0.4,0.8-0.6,1.3-0.4c0.4,0.3,0.6,0.8,0.3,1.2c0,0,0,0,0,0c-0.9,1.5-2.8,2.1-4.4,1.2
		C156.1,17.4,155.5,16.3,155.5,15.2L155.5,15.2z"/>
	<path class="st0" d="M164,5.5h3.8c0.5,0,0.9,0.4,0.9,0.9s-0.4,0.9-0.9,0.9h-2.9v3.4h2.5c0.5,0,0.9,0.4,0.9,0.9s-0.4,0.9-0.9,0.9
		h-2.5v3.8h2.9c0.5-0.1,1,0.3,1,0.8s-0.3,1-0.8,1c-0.1,0-0.1,0-0.2,0H164c-0.5,0-0.9-0.4-0.9-0.9c0,0,0,0,0,0V6.5
		C163.1,6,163.5,5.5,164,5.5C164,5.5,164,5.5,164,5.5z"/>
	<path class="st0" d="M175.6,17.9c-0.4-0.8-0.8-1.6-1.2-2.5c-0.7-1.4-1.6-3.3-2.4-5v7.1c0,0.5-0.4,0.9-0.9,0.9
		c-0.5,0-0.9-0.4-0.9-0.9c0,0,0,0,0,0V6.4c0-0.4,0.3-0.8,0.7-0.9c0.4-0.1,0.8,0.1,1,0.5c0.4,0.8,0.8,1.6,1.2,2.5
		c0.7,1.5,1.6,3.3,2.4,5V6.4c0-0.5,0.4-0.9,0.9-0.9c0.5,0,0.9,0.4,0.9,0.9v11.1c0,0.4-0.3,0.8-0.7,0.9
		C176.2,18.4,175.7,18.2,175.6,17.9z"/>
	<path class="st0" d="M185.3,6.5c0,0.5-0.4,0.9-0.9,0.9c0,0,0,0,0,0h-1.6v10.1c0.1,0.5-0.3,1-0.8,1s-1-0.3-1-0.8c0-0.1,0-0.1,0-0.2
		V7.4h-1.6c-0.5,0-0.9-0.4-0.9-0.9s0.4-0.9,0.9-0.9h5C184.9,5.6,185.3,6,185.3,6.5z"/>
	<path class="st0" d="M187.4,5.5h3.8c0.5,0,0.9,0.4,0.9,0.9s-0.4,0.9-0.9,0.9h-2.9v3.4h2.5c0.5,0,0.9,0.4,0.9,0.9s-0.4,0.9-0.9,0.9
		h-2.5v3.8h2.9c0.5-0.1,1,0.3,1,0.8s-0.3,1-0.8,1c-0.1,0-0.1,0-0.2,0h-3.8c-0.5,0-0.9-0.4-0.9-0.9c0,0,0,0,0,0V6.5
		C186.5,6,186.9,5.6,187.4,5.5C187.4,5.5,187.4,5.5,187.4,5.5z"/>
	<path class="st0" d="M198.3,12.7l1.7,4.5c0.2,0.4,0,1-0.5,1.2c0,0,0,0-0.1,0c-0.5,0.2-1-0.1-1.2-0.5l-1.8-4.8h-1v4.4
		c0.1,0.5-0.3,1-0.8,1s-1-0.3-1-0.8c0-0.1,0-0.1,0-0.2v-11c0-0.5,0.4-0.9,0.9-0.9c0,0,0,0,0,0h2.3c1.8,0,3.2,1.4,3.2,3.2
		c0,0,0,0,0,0v1.1C200,11,199.3,12.1,198.3,12.7z M196.8,11.2c0.8,0,1.4-0.6,1.4-1.4c0,0,0,0,0,0V8.8c0-0.8-0.6-1.4-1.4-1.4h-1.4
		v3.8H196.8z"/>
</g>
<g>
	<rect x="104.4" y="13.1" class="st1" width="10.4" height="10.4"/>
	<rect x="104.4" class="st1" width="10.4" height="10.4"/>
	<rect x="90.7" class="st1" width="10.4" height="10.4"/>
	<rect x="90.7" y="13.1" class="st2" width="10.4" height="10.4"/>
</g>
</svg>
