<?xml version="1.0" encoding="utf-8"?>
<!-- Generator: Adobe Illustrator 24.0.0, SVG Export Plug-In . SVG Version: 6.00 Build 0)  -->
<svg version="1.1" id="Layer_1" xmlns="http://www.w3.org/2000/svg" xmlns:xlink="http://www.w3.org/1999/xlink" x="0px" y="0px"
	 viewBox="0 0 200 25.6" style="enable-background:new 0 0 200 25.6;" xml:space="preserve">
<style type="text/css">
	.st0{fill:#101117;}
	.st1{fill:#185C73;}
	.st2{fill:#706F6F;}
</style>
<title>logo-ic</title>
<g>
	<path class="st0" d="M0,14V2.2c0-0.6,0.4-1,1-1s1,0.4,1,1V14c0,0.6-0.4,1-1,1S0,14.6,0,14z"/>
	<path class="st0" d="M9.9,14.4c-0.4-0.9-0.8-1.8-1.3-2.7C7.8,10.2,6.8,8.2,6,6.4V14c0.1,0.5-0.2,1.1-0.8,1.2
		c-0.5,0.1-1.1-0.2-1.2-0.8c0-0.1,0-0.3,0-0.4V2.2c0-0.5,0.3-0.9,0.8-1c0.4-0.1,0.9,0.1,1.1,0.5c0.4,0.9,0.8,1.8,1.3,2.7
		C8,5.9,8.9,7.9,9.8,9.7V2.2c0-0.6,0.4-1,1-1s1,0.4,1,1V14c0,0.5-0.3,0.9-0.8,1C10.5,15.1,10,14.8,9.9,14.4z"/>
	<path class="st0" d="M20.2,2.2c0,0.6-0.4,1-1,1h-1.6V14c0.1,0.5-0.2,1.1-0.8,1.2c-0.5,0.1-1.1-0.2-1.2-0.8c0-0.1,0-0.3,0-0.4V3.2
		H14c-0.5,0.1-1.1-0.2-1.2-0.8c-0.1-0.5,0.2-1.1,0.8-1.2c0.1,0,0.3,0,0.4,0h5.3C19.8,1.3,20.2,1.7,20.2,2.2z"/>
	<path class="st0" d="M22.5,1.3h4.1c0.6,0,1,0.4,1,1s-0.4,1-1,1h-3.1v3.6h2.7c0.6,0,1,0.4,1,1s-0.4,1-1,1h-2.7v4.1h3.1
		c0.6,0,1,0.4,1,1s-0.4,1-1,1h-4.1c-0.6,0-1-0.4-1-1V2.2C21.5,1.7,22,1.3,22.5,1.3z"/>
	<path class="st0" d="M29,13.9V2.2c0-0.6,0.4-1,1-1s1,0.4,1,1v10.7h3.1c0.6,0,1,0.4,1,1s-0.4,1-1,1H30C29.4,14.9,29,14.4,29,13.9
		C29,13.9,29,13.9,29,13.9z"/>
	<path class="st0" d="M36.1,13.9V2.2c0-0.6,0.4-1,1-1s1,0.4,1,1v10.7h3.1c0.6,0,1,0.4,1,1s-0.4,1-1,1h-4.1
		C36.5,14.9,36.1,14.4,36.1,13.9C36.1,13.9,36.1,13.9,36.1,13.9z"/>
	<path class="st0" d="M43.2,14V2.2c0-0.6,0.4-1,1-1s1,0.4,1,1V14c0,0.6-0.4,1-1,1S43.2,14.6,43.2,14z"/>
	<path class="st0" d="M53.8,8.3v3.2c0.1,1.9-1.3,3.5-3.2,3.6s-3.5-1.3-3.6-3.2c0-0.1,0-0.2,0-0.4V4.6c0-1.9,1.5-3.4,3.4-3.4
		c1.2,0,2.3,0.7,3,1.7C53.6,3.4,53.5,4,53,4.2c-0.5,0.2-1,0.1-1.3-0.4c-0.3-0.6-1-0.8-1.7-0.7c-0.6,0.2-1,0.8-1,1.4v6.9
		c0,0.8,0.6,1.5,1.4,1.5c0.8,0,1.5-0.7,1.5-1.5c0,0,0,0,0,0V9.2h-1.1C50.3,9.1,50,8.6,50.1,8c0.1-0.4,0.4-0.7,0.8-0.8h2
		C53.4,7.3,53.8,7.7,53.8,8.3z"/>
	<path class="st0" d="M56.6,1.3h4.1c0.6,0,1,0.4,1,1s-0.4,1-1,1h-3.1v3.6h2.7c0.6,0,1,0.4,1,1s-0.4,1-1,1h-2.7v4.1h3.1
		c0.6,0,1,0.4,1,1s-0.4,1-1,1h-4.1c-0.6,0-1-0.4-1-1V2.2C55.6,1.7,56.1,1.3,56.6,1.3z"/>
	<path class="st0" d="M68.9,14.4c-0.4-0.9-0.8-1.8-1.3-2.7c-0.8-1.5-1.7-3.5-2.6-5.3V14c0,0.6-0.4,1-1,1s-1-0.4-1-1V2.2
		c0-0.5,0.3-0.9,0.8-1c0.4-0.1,0.9,0.1,1.1,0.5c0.4,0.9,0.8,1.8,1.3,2.7c0.8,1.6,1.7,3.5,2.6,5.3V2.2c0-0.6,0.4-1,1-1s1,0.4,1,1V14
		c0,0.5-0.3,0.9-0.8,1C69.5,15.1,69.1,14.8,68.9,14.4z"/>
	<path class="st0" d="M72.6,11.5V4.6c0-1.5,1-2.9,2.5-3.3c1.5-0.4,3.1,0.2,3.9,1.6c0.3,0.5,0.1,1.1-0.3,1.3
		c-0.5,0.3-1.1,0.1-1.3-0.4c-0.3-0.6-1-0.9-1.6-0.7c-0.6,0.2-1.1,0.7-1.1,1.4v6.9c0,0.7,0.4,1.2,1.1,1.4c0.6,0.2,1.3-0.1,1.6-0.7
		c0.3-0.5,0.9-0.6,1.3-0.4c0.5,0.3,0.6,0.9,0.3,1.3c-0.9,1.6-3,2.2-4.7,1.2C73.3,13.8,72.6,12.7,72.6,11.5L72.6,11.5z"/>
	<path class="st0" d="M81.7,1.3h4.1c0.6,0,1,0.4,1,1s-0.4,1-1,1h-3.1v3.6h2.7c0.6,0,1,0.4,1,1s-0.4,1-1,1h-2.7v4.1h3.1
		c0.6,0,1,0.4,1,1s-0.4,1-1,1h-4.1c-0.6,0-1-0.4-1-1V2.2C80.7,1.7,81.1,1.3,81.7,1.3z"/>
	<path class="st0" d="M127,11.5V4.6c0-1.5,1-2.9,2.5-3.3c1.5-0.4,3.1,0.2,3.8,1.6c0.3,0.5,0.1,1.1-0.4,1.3c-0.5,0.3-1.1,0.1-1.3-0.4
		c-0.4-0.7-1.3-0.9-2-0.5c-0.4,0.3-0.7,0.7-0.7,1.3v6.9c0,0.8,0.6,1.5,1.4,1.5c0.5,0,1-0.3,1.3-0.8c0.3-0.5,0.9-0.6,1.3-0.4
		c0.5,0.3,0.6,0.9,0.4,1.3c-1,1.6-3,2.2-4.7,1.2C127.6,13.8,127,12.7,127,11.5z"/>
	<path class="st0" d="M134.8,11.5V4.6c0-1.9,1.5-3.4,3.4-3.4s3.4,1.5,3.4,3.4c0,0,0,0,0,0v6.9c0,1.9-1.5,3.4-3.4,3.4
		C136.3,14.9,134.8,13.4,134.8,11.5z M136.8,4.6v6.9c-0.1,0.8,0.5,1.5,1.3,1.6s1.5-0.5,1.6-1.3c0-0.1,0-0.2,0-0.2V4.6
		c0.1-0.8-0.5-1.5-1.3-1.6c-0.8-0.1-1.5,0.5-1.6,1.3C136.7,4.4,136.7,4.5,136.8,4.6z"/>
	<path class="st0" d="M149.3,14.4c-0.4-0.9-0.8-1.8-1.3-2.7c-0.8-1.5-1.7-3.5-2.6-5.3V14c0,0.6-0.4,1-1,1s-1-0.4-1-1V2.2
		c0-0.5,0.3-0.9,0.8-1c0.4-0.1,0.9,0.1,1.1,0.5c0.4,0.9,0.8,1.8,1.3,2.7c0.8,1.6,1.7,3.5,2.6,5.3V2.2c0-0.6,0.4-1,1-1s1,0.4,1,1V14
		c0,0.5-0.3,0.9-0.8,1C149.9,15.1,149.5,14.8,149.3,14.4z"/>
	<path class="st0" d="M159.7,2.2c0,0.6-0.4,1-1,1H157V14c0,0.6-0.4,1-1,1s-1-0.4-1-1V3.2h-1.7c-0.5,0.1-1.1-0.2-1.2-0.8
		s0.2-1.1,0.8-1.2c0.1,0,0.3,0,0.4,0h5.3C159.2,1.2,159.7,1.7,159.7,2.2C159.7,2.2,159.7,2.2,159.7,2.2z"/>
	<path class="st0" d="M166,8.9l1.8,4.8c0.2,0.5-0.1,1.1-0.6,1.3c-0.5,0.2-1.1-0.1-1.3-0.6L164,9.2h-1.1V14c0.2,0.5-0.1,1.1-0.6,1.3
		c-0.5,0.2-1.1-0.1-1.3-0.6c-0.1-0.2-0.1-0.4,0-0.6V2.2c0-0.6,0.4-1,1-1h2.4c1.9,0,3.4,1.5,3.4,3.4c0,0,0,0,0,0v1.2
		C167.9,7.1,167.1,8.3,166,8.9z M164.4,7.3c0.8,0,1.5-0.7,1.5-1.5c0,0,0,0,0,0V4.7c0-0.8-0.6-1.5-1.4-1.5c0,0,0,0,0,0h-1.5v4.1
		H164.4z"/>
	<path class="st0" d="M176.3,14.9c-0.5,0.1-1-0.2-1.2-0.7c-0.1-0.2-0.1-0.4-0.2-0.6c-0.1-0.4-0.3-0.9-0.4-1.6h-3.5
		c-0.2,0.6-0.3,1.2-0.4,1.6c-0.1,0.2-0.1,0.4-0.2,0.6c-0.2,0.5-0.7,0.8-1.2,0.7c-0.5-0.2-0.8-0.7-0.7-1.2l3.3-11.8
		c0.2-0.5,0.8-0.8,1.3-0.6c0.3,0.1,0.5,0.3,0.6,0.6l3.3,11.8C177.1,14.2,176.8,14.7,176.3,14.9z M172.8,5.9
		c-0.4,1.3-0.8,2.9-1.2,4.3h2.4C173.6,8.7,173.2,7.2,172.8,5.9L172.8,5.9z"/>
	<path class="st0" d="M178,11.5V4.6c0-1.5,1-2.9,2.5-3.3c1.5-0.4,3.1,0.2,3.8,1.6c0.3,0.5,0.1,1.1-0.4,1.3c-0.5,0.3-1.1,0.1-1.3-0.4
		c-0.4-0.7-1.3-0.9-2-0.5c-0.4,0.3-0.7,0.7-0.7,1.2v6.9c0,0.8,0.6,1.5,1.5,1.5c0.5,0,1-0.3,1.3-0.7c0.3-0.5,0.9-0.6,1.3-0.4
		c0.5,0.3,0.6,0.9,0.3,1.3c-1,1.6-3.1,2.1-4.7,1.2C178.6,13.8,178,12.7,178,11.5z"/>
	<path class="st0" d="M192.5,2.2c0,0.6-0.4,1-1,1h-1.7V14c0,0.6-0.4,1-1,1s-1-0.4-1-1V3.2h-1.7c-0.6,0-1-0.4-1-1s0.4-1,1-1h5.3
		C192,1.2,192.5,1.6,192.5,2.2C192.5,2.2,192.5,2.2,192.5,2.2z"/>
	<path class="st0" d="M198,11.5c0-0.5-0.1-0.9-0.4-1.2L194.4,7c-0.7-0.7-1-1.7-0.9-2.7c0.1-1,0.6-1.9,1.3-2.5
		c0.8-0.6,1.8-0.8,2.8-0.6c1,0.2,1.8,0.8,2.3,1.6c0.3,0.5,0.1,1.1-0.4,1.3c-0.5,0.2-1,0.1-1.3-0.4c-0.2-0.4-0.6-0.6-1-0.7
		c-0.4-0.1-0.8,0-1.2,0.3c-0.3,0.2-0.6,0.6-0.6,1.1c0,0.4,0.1,0.8,0.4,1.1L199,9c0.7,0.7,1.1,1.7,1,2.7c-0.1,1-0.6,1.9-1.4,2.6
		c-1.5,1.2-3.7,0.9-4.9-0.6c-0.1-0.1-0.2-0.2-0.2-0.4c-0.3-0.5-0.1-1.1,0.4-1.3c0.5-0.3,1.1-0.1,1.3,0.4c0.2,0.4,0.6,0.7,1,0.8
		c0.4,0.1,0.9,0,1.3-0.3C197.8,12.5,198,12,198,11.5z"/>
</g>
<g>
	
		<rect x="111.5" y="2.3" transform="matrix(0.7071 -0.7071 0.7071 0.7071 28.7434 85.0873)" class="st1" width="11.1" height="11.1"/>
	<rect x="91" y="2.3" transform="matrix(0.7071 -0.7071 0.7071 0.7071 22.7138 70.5401)" class="st1" width="11.1" height="11.1"/>
	
		<rect x="100.9" y="12.2" transform="matrix(0.7071 -0.7071 0.7071 0.7071 18.6087 80.4496)" class="st2" width="11.1" height="11.1"/>
</g>
</svg>
