<?xml version="1.0" encoding="utf-8"?>
<!-- Generator: Adobe Illustrator 24.0.0, SVG Export Plug-In . SVG Version: 6.00 Build 0)  -->
<svg version="1.1" id="Layer_1" xmlns="http://www.w3.org/2000/svg" xmlns:xlink="http://www.w3.org/1999/xlink" x="0px" y="0px"
	 viewBox="0 0 200 36.4" style="enable-background:new 0 0 200 36.4;" xml:space="preserve">
<style type="text/css">
	.st0{fill:#101117;}
	.st1{fill:#00AF9F;}
	.st2{fill:#706F6F;}
</style>
<title>logo-mkt</title>
<g>
	<path class="st0" d="M0,24.3V12.5c0-0.6,0.4-1,1-1s1,0.4,1,1v11.8c0,0.6-0.4,1-1,1S0,24.9,0,24.3z"/>
	<path class="st0" d="M9.9,24.8c-0.4-0.9-0.8-1.8-1.3-2.7c-0.7-1.5-1.7-3.5-2.6-5.3v7.6c0,0.6-0.4,1-1,1s-1-0.4-1-1V12.5
		c0-0.5,0.3-0.9,0.8-1c0.4-0.1,0.9,0.1,1.1,0.5c0.4,0.9,0.8,1.8,1.3,2.7C8,16.3,8.9,18.3,9.8,20v-7.5c0-0.6,0.4-1,1-1s1,0.4,1,1
		v11.8c0,0.5-0.3,0.9-0.8,1C10.6,25.4,10.1,25.2,9.9,24.8z"/>
	<path class="st0" d="M20.3,12.6c0,0.6-0.4,1-1,1h-1.6v10.8c0,0.6-0.4,1-1,1s-1-0.4-1-1V13.6H14c-0.6,0-1-0.4-1-1s0.4-1,1-1h5.3
		C19.9,11.5,20.3,12,20.3,12.6C20.3,12.5,20.3,12.6,20.3,12.6z"/>
	<path class="st0" d="M22.6,11.6h4.1c0.6,0,1,0.4,1,1s-0.4,1-1,1h-3.1v3.7h2.7c0.6,0,1,0.4,1,1s-0.4,1-1,1h-2.7v4.1h3.1
		c0.6,0,1,0.4,1,1s-0.4,1-1,1h-4.1c-0.6,0-1-0.4-1-1V12.6C21.6,12,22.1,11.6,22.6,11.6z"/>
	<path class="st0" d="M29.1,24.2V12.5c0-0.6,0.4-1,1-1s1,0.4,1,1v10.8h3.1c0.6,0,1,0.4,1,1s-0.4,1-1,1h-4.1
		C29.6,25.3,29.1,24.8,29.1,24.2C29.1,24.3,29.1,24.3,29.1,24.2z"/>
	<path class="st0" d="M36.2,24.2V12.5c0-0.6,0.4-1,1-1s1,0.4,1,1v10.8h3.1c0.6,0,1,0.4,1,1s-0.4,1-1,1h-4.1
		C36.7,25.3,36.2,24.8,36.2,24.2C36.2,24.3,36.2,24.3,36.2,24.2z"/>
	<path class="st0" d="M43.4,24.3V12.5c0-0.6,0.4-1,1-1s1,0.4,1,1v11.8c0,0.6-0.4,1-1,1S43.4,24.9,43.4,24.3z"/>
	<path class="st0" d="M54,18.6v3.3c0,1.9-1.5,3.4-3.4,3.4s-3.4-1.5-3.4-3.4v-6.9c0-1.9,1.6-3.4,3.5-3.4c1.2,0,2.3,0.7,3,1.7
		c0.3,0.5,0.1,1.1-0.4,1.4c-0.5,0.3-1.1,0.1-1.3-0.4c-0.4-0.7-1.3-0.9-2-0.5c-0.4,0.3-0.7,0.7-0.7,1.2v6.9c0,0.8,0.7,1.5,1.5,1.5
		c0.8,0,1.5-0.6,1.5-1.4c0,0,0,0,0,0v-2.3H51c-0.6,0-1-0.4-1-1s0.4-1,1-1h2C53.6,17.6,54,18,54,18.6C54.1,18.6,54.1,18.6,54,18.6z"
		/>
	<path class="st0" d="M56.8,11.6h4.1c0.6,0,1,0.4,1,1s-0.4,1-1,1h-3.1v3.7h2.7c0.6,0,1,0.4,1,1s-0.4,1-1,1h-2.7v4.1h3.1
		c0.6,0,1,0.4,1,1s-0.4,1-1,1h-4.1c-0.6,0-1-0.4-1-1V12.6C55.8,12,56.3,11.6,56.8,11.6z"/>
	<path class="st0" d="M69.2,24.8c-0.4-0.9-0.8-1.8-1.3-2.7c-0.8-1.5-1.7-3.5-2.6-5.3v7.6c0,0.6-0.4,1-1,1s-1-0.4-1-1V12.5
		c0-0.5,0.3-0.9,0.8-1c0.4-0.1,0.9,0.1,1.1,0.5c0.4,0.9,0.8,1.8,1.3,2.7c0.8,1.6,1.7,3.5,2.6,5.3v-7.5c0-0.6,0.4-1,1-1s1,0.4,1,1
		v11.8c0,0.5-0.3,0.9-0.8,1C69.8,25.4,69.4,25.2,69.2,24.8z"/>
	<path class="st0" d="M72.9,21.9v-6.9c0-1.5,1-2.9,2.5-3.3c1.5-0.4,3.1,0.2,3.9,1.6c0.3,0.5,0.1,1.1-0.3,1.4
		c-0.5,0.3-1.1,0.1-1.3-0.4c-0.4-0.7-1.3-0.9-2-0.5c-0.5,0.3-0.7,0.7-0.7,1.3v6.9c0,0.8,0.6,1.5,1.4,1.5c0.5,0,1-0.3,1.3-0.8
		c0.3-0.5,0.9-0.6,1.3-0.4c0.5,0.3,0.6,0.9,0.3,1.3c-0.9,1.6-3,2.2-4.7,1.3C73.6,24.3,72.9,23.1,72.9,21.9L72.9,21.9z"/>
	<path class="st0" d="M82,11.6h4.1c0.6,0,1,0.4,1,1s-0.4,1-1,1H83v3.7h2.7c0.6,0,1,0.4,1,1s-0.4,1-1,1H83v4.1h3.1c0.6,0,1,0.4,1,1
		s-0.4,1-1,1H82c-0.6,0-1-0.4-1-1V12.6C81,12,81.5,11.6,82,11.6z"/>
	<path class="st0" d="M127.7,24.3V12.5c0-0.5,0.3-0.9,0.8-1c0.5-0.1,0.9,0.1,1.1,0.6c0.3,0.6,0.6,1.2,0.8,1.8c0.5,1,1.1,2.3,1.6,3.3
		c0.5-1,1.1-2.2,1.5-3.3c0.3-0.6,0.6-1.2,0.8-1.8c0.2-0.4,0.7-0.6,1.1-0.6c0.5,0.1,0.8,0.5,0.8,1v11.8c0,0.6-0.4,1-1,1s-1-0.4-1-1
		v-7.5c-0.4,0.7-0.7,1.5-1,2c-0.1,0.3-0.3,0.6-0.4,0.9c-0.2,0.3-0.5,0.6-0.9,0.6c-0.4,0-0.7-0.2-0.9-0.6c-0.1-0.3-0.3-0.6-0.4-0.9
		c-0.3-0.5-0.6-1.3-0.9-2v7.4c0,0.6-0.4,1-1,1s-1-0.4-1-1L127.7,24.3z"/>
	<path class="st0" d="M145.2,25.3c-0.5,0.1-1-0.2-1.2-0.7c-0.1-0.2-0.1-0.4-0.2-0.6c-0.1-0.4-0.3-0.9-0.4-1.5H140
		c-0.2,0.6-0.3,1.2-0.4,1.5c0,0.2-0.1,0.4-0.2,0.6c0,0.6-0.5,1-1,0.9s-1-0.5-0.9-1c0-0.2,0.1-0.3,0.1-0.4l3.3-11.8
		c0.2-0.5,0.8-0.8,1.3-0.6c0.3,0.1,0.5,0.3,0.6,0.6l3.3,11.8C146.1,24.6,145.7,25.1,145.2,25.3z M141.7,16.2
		c-0.4,1.3-0.8,2.9-1.2,4.3h2.4C142.5,19.1,142.1,17.5,141.7,16.2L141.7,16.2z"/>
	<path class="st0" d="M152.2,19.2L154,24c0.2,0.5-0.1,1.1-0.6,1.3c-0.5,0.2-1.1-0.1-1.3-0.6l-1.9-5.1h-1.1v4.7c0,0.6-0.4,1-1,1
		s-1-0.4-1-1V12.6c0-0.6,0.4-1,1-1h2.4c1.9,0,3.4,1.5,3.4,3.4v1.1C154,17.4,153.3,18.6,152.2,19.2z M150.6,17.6
		c0.8,0,1.5-0.6,1.5-1.4c0,0,0,0,0,0V15c0-0.8-0.6-1.5-1.4-1.5c0,0,0,0,0,0h-1.5v4.1L150.6,17.6z"/>
	<path class="st0" d="M162.4,25.2c-0.5,0.2-1.1,0-1.3-0.5l-2.7-5.6l-0.8,1.1v4.1c0,0.6-0.4,1-1,1s-1-0.4-1-1V12.5c0-0.6,0.4-1,1-1
		s1,0.4,1,1v4.4l3.5-5c0.3-0.4,0.9-0.5,1.4-0.2c0.4,0.3,0.5,0.9,0.2,1.4l-3.1,4.3l3.2,6.5C163.1,24.4,162.9,25,162.4,25.2
		C162.4,25.2,162.4,25.2,162.4,25.2z"/>
	<path class="st0" d="M165.2,11.6h4.1c0.6,0,1,0.4,1,1s-0.4,1-1,1h-3.1v3.7h2.7c0.6,0,1,0.4,1,1s-0.4,1-1,1h-2.7v4.1h3.1
		c0.6,0,1,0.4,1,1s-0.4,1-1,1h-4.1c-0.6,0-1-0.4-1-1V12.6C164.2,12,164.7,11.6,165.2,11.6z"/>
	<path class="st0" d="M178.2,12.6c0,0.6-0.4,1-1,1h-1.7v10.8c0,0.6-0.4,1-1,1s-1-0.4-1-1V13.6h-1.7c-0.6,0-1-0.4-1-1s0.4-1,1-1h5.3
		C177.7,11.5,178.2,12,178.2,12.6C178.2,12.5,178.2,12.5,178.2,12.6z"/>
	<path class="st0" d="M179.5,24.3V12.5c0-0.6,0.4-1,1-1s1,0.4,1,1v11.8c0,0.6-0.4,1-1,1S179.5,24.9,179.5,24.3z"/>
	<path class="st0" d="M189.4,24.8c-0.4-0.9-0.8-1.8-1.3-2.7c-0.8-1.5-1.7-3.5-2.6-5.3v7.6c0,0.6-0.4,1-1,1s-1-0.4-1-1V12.5
		c0-0.5,0.3-0.9,0.8-1c0.4-0.1,0.9,0.1,1.1,0.5c0.4,0.9,0.8,1.8,1.3,2.7c0.8,1.6,1.7,3.5,2.6,5.3v-7.5c0-0.6,0.4-1,1-1s1,0.4,1,1
		v11.8c0,0.5-0.3,0.9-0.8,1C190.1,25.4,189.6,25.2,189.4,24.8z"/>
	<path class="st0" d="M200,18.6v3.3c0,1.9-1.5,3.4-3.4,3.4c-1.9,0-3.4-1.5-3.4-3.4v-6.9c0-1.9,1.6-3.4,3.5-3.4c1.2,0,2.3,0.7,3,1.7
		c0.3,0.5,0.1,1.1-0.4,1.4c-0.5,0.2-1,0.1-1.3-0.4c-0.4-0.7-1.3-0.9-2-0.5c-0.4,0.3-0.7,0.7-0.7,1.2v6.9c0,0.8,0.7,1.5,1.5,1.5
		s1.5-0.7,1.5-1.5v-2.3h-1c-0.6,0-1-0.4-1-1s0.4-1,1-1h2C199.6,17.6,200,18,200,18.6C200,18.6,200,18.6,200,18.6z"/>
</g>
<g>
	<rect x="96.2" y="2.3" transform="matrix(0.693 -0.7209 0.7209 0.693 25.5734 75.8132)" class="st1" width="11.1" height="11.2"/>
	<rect x="96.6" y="22.6" transform="matrix(0.6919 -0.722 0.722 0.6919 11.1264 82.4806)" class="st1" width="11.1" height="11.1"/>
	
		<rect x="106.4" y="12.8" transform="matrix(0.693 -0.7209 0.7209 0.693 21.1128 86.3597)" class="st2" width="11.1" height="11.2"/>
</g>
</svg>
