<svg xmlns="http://www.w3.org/2000/svg" xmlns:xlink="http://www.w3.org/1999/xlink" width="232" height="95" viewBox="0 0 232 95">
  <defs>
    <rect id="rect-1" width="232" height="95" x="0" y="0"/>
    <mask id="mask-2" maskContentUnits="userSpaceOnUse" maskUnits="userSpaceOnUse">
      <rect width="232" height="95" x="0" y="0" fill="black"/>
      <use fill="white" xlink:href="#rect-1"/>
    </mask>
  </defs>
  <g>
    <use fill="none" xlink:href="#rect-1"/>
    <g mask="url(#mask-2)">
      <path fill="rgb(191,112,57)" fill-rule="evenodd" d="M132.99624634 22.81312061l-4.61053467-15.865242c-.08184814-.30088807-.3000946-.57443238-.5729065-.73854828L117.9096985.35560108c-.190979-.10942078-.40922547-.16412354-.62747193-.16412354h-6.00187683c-.68203735-.30089569-1.50047302-.2735443-2.20979309.13676453-1.20037842.68384552-1.60958862 2.2430191-.92755127 3.4465866.1091156.21883393.2728119.38295747.43649292.547081v24.3722992c-.81843567.79325866-1.00939941 2.05154419-.43649292 3.06362915.1091156.21884155.2728119.38296509.43649292.54708862v19.0382843c-.51834106.32824707-.8730011.82061768-1.06396484 1.36769104-.1636963-.54707336-.54562378-1.03944397-1.0639801-1.36769104v-19.0382843c.16369628-.16412353.3000946-.35560608.43650817-.54708862.60018921-1.01208496.38194275-2.27037049-.43650818-3.06362915V4.32190967c.1636963-.16412353.3000946-.35559845.43650818-.547081.68203736-1.2035675.2728119-2.73538207-.92756652-3.4465866-.70930481-.41030884-1.52775574-.43766022-2.20977784-.13676453h-6.00189209c-.21824646 0-.43649292.05470276-.62745666.16412354l-8.1843872 4.81427765c-1.145813-.43766022-2.45532227 0-3.0827942 1.09415436-.51834106.90267944-.4092102 1.96948242.1636963 2.76274108l-3.46472169 11.89894104c-.68203735.13676453-1.30950928.54707337-1.69143677 1.20356751-.68203735 1.2035675-.27281189 2.73538208.92755127 3.44657898.54563904.32824707 1.1730957.41030884 1.7460022.27354431l5.18345642 7.7137909v6.59228515c-.65475464.16412354-1.22766113.57443237-1.58232117 1.1762085-.68203735 1.20358276-.27281189 2.73539734.92756653 3.44659423 1.1730957.68385315 2.64628601.30090333 3.35559082-.82061767l3.54656983.7385559 1.22766113 5.0878296c.08183289.38294983.35466003.7111969.73658752.84796142l5.72906495 2.46185303c-.16368103.98474121.30010986 2.02418518 1.22766113 2.57125855 1.20037842.68385314 2.72813415.2735443 3.43743896-.9300232.08184815-.16412353.1636963-.32824707.21826172-.4923706.05456543.16412353.13639832.32824707.21824646.4923706.6820221 1.2035675 2.23706055 1.61387634 3.43743897.9300232.92756653-.51971436 1.36405945-1.55917359 1.22766113-2.57125855l5.72906494-2.46185303c.35466004-.16412353.62747192-.4650116.73658753-.84796142l1.22766113-5.0878296 5.23800659-1.09414672c.5729065-.10942078.98213196-.6291504.98213196-1.23092651V33.5631969l6.5202179-9.71061706c.190979-.30090332.24554443-.68385315.13641357-1.03945923zM102.22294617 2.70803333H98.1034851l-7.52963257 4.4586792c.08183288.51972961 0 1.09415436-.3000946 1.61388397-.02728272.05470276-.08184815.10941315-.10913086.1641159l5.31985473 5.14253236c.76387024-.73855591 1.93696594-.9573822 2.9190979-.43766785l4.3650055-9.57385254c-.32737732-.38294983-.51835633-.87532043-.54563904-1.36769104zm23.68016052 5.27929688l-6.32925415 6.09991455c-.76387024-.76591492-1.93696594-.9573822-2.9190979-.43766785l-4.3650055-9.57385254c.30009461-.41030884.49105836-.87532043.54562378-1.36769104h4.11947632l8.94825745 5.27929688zm-21.96142578 4.92370605l-.60018921-8.15145874-4.31044006 9.409729c.70932006.79325867.9002838 1.99684143.32737732 2.98156739-.08184815.16412353-.19096375.30090332-.32737732.43766784l4.91062927 4.73222351v-9.409729zm12.03103638 4.65014648c-.10913086-.10940551-.21824646-.27352905-.32737732-.43765258-.5729065-.9573822-.4092102-2.16096497.3000946-2.95422364l-4.28315735-9.409729-.6001892 8.15145874v9.38237l4.91062927-4.73222352zm5.4562683 3.41923523l6.7111969-5.908432-1.82785034-6.31874848-6.24742126 5.9905014c.5729065 1.1762085.13641357 2.62597657-1.00939942 3.28245545-.10913085.08206177-.21824646.10942078-.32737731.16412354l1.28222656 2.7901001c.49105835-.13676453.95483398-.13676453 1.41862488 0zM88.36405946 10.01152302c.43649292-.0547104.84571838-.21883393 1.20037842-.46501923l5.40168762 5.22459412c-.5729065 1.1762085-.13639832 2.59861755 1.00941467 3.28245544l.32737732.16412353-1.28222656 2.7901001c-.46377564-.13676452-.95484925-.13676452-1.41862488 0l-6.7111969-5.908432 1.4731903-5.08782196zm33.71966553 15.48227691l2.67356872 5.88108826.51834107-.76591492 3.2191925-14.3334198-.10913086-.35560608-6.16555786 5.44342041c.27281189.2188263.51834106.4650116.6820221.76591492.68203735 1.14884949.3000946 2.65332031-.81843567 3.36451721zM86.64535522 15.9473064l6.16555787 5.44342041c-.2728119.19148255-.49105835.4650116-.6820221.76591492-.68203735 1.1762085-.3000946 2.65332031.81843567 3.36451721l-2.67356873 5.88108826-.51834106-.76591492-3.2191925-14.3334198.10913085-.35560608zm-.60020446 1.99684143L84.9539032 21.7463329c.5729065.65649414.76387024 1.5865326.49105835 2.43449402l3.02822876 4.51339722-2.42803955-10.7500763zm42.94075012 0l-2.42803955 10.7500763 3.87394714-5.74432373-1.4459076-5.00575257zm-30.60960388.16412354l5.5653839 5.38871765v4.62280273c-.4910736.16412354-.92756652.4650116-1.25494384.87532044l-5.92002869-5.22459412c.13639832-.90267944-.24554443-1.86006164-1.00941467-2.407135l1.36405945-2.95422364c.43650818 0 .8730011-.10940552 1.25494385-.30088806zm19.88804626 5.6622467l-5.9473114 5.22459412c-.32737732-.43766785-.7638855-.73855591-1.25494385-.87532044v-4.62280273l5.56538391-5.38871765c.3819275.19148254.81843567.30088806 1.2549286.30088806l1.3640747 2.95422363c-.7638855.54707337-1.11853027 1.50445557-.98213196 2.40713501zm-21.415802 14.41548157c.6001892-.82061768 1.63687134-1.2035675 2.6190033-.9573822l3.57385253-4.86898804c-.70932006-.65649414-1.00941467-1.66859436-.70932006-2.59861755l-5.8381958-5.14253235c-.02728272 0-.02728272.027359-.02728272.027359-.5729065.98474122-1.69143677 1.4223938-2.75540161 1.1762085l-2.9190979 6.34609986.19096374.30088806c.13641358.21884155.21826172.46502685.21826172.71121216v2.27037048l5.6472168 2.73538208zm27.17214966-5.68960571c-.13639832.21882629-.21824646.43766784-.21824646.7111969v2.27037048l-5.6472168 2.73539734c-.6001892-.82061768-1.6368866-1.2035675-2.6190033-.9573822l-3.57385253-4.8690033c.73658752-.65647888 1.00941467-1.6685791.70932006-2.59861755l5.86546326-5.1698761s0 .027359.02728272.027359c.57290649.98474122 1.71871948 1.44975281 2.75541687 1.1762085l2.9190979 6.34609986-.21826172.32824707zm-12.9313202.38296508c.08184815-.027359.13641358-.05470276.21824647-.08206176l3.4920044 4.75956726c-.92756654.60179138-1.33677674 1.75065612-1.03668214 2.76274109l-2.53715515 1.2309265c-.05456543.02735902-.08184814.05471803-.13641357.10942079V32.879359zm-10.83067321 4.70484925l3.4920044-4.75956726c.08184814.027359.13639831.05470275.21824645.08206176v8.78059388c-.02728271-.02735901-.08184814-.08206177-.13639831-.10942078l-2.53717041-1.23092651c.3000946-1.03944397-.1091156-2.16094971-1.03668213-2.7627411zm-4.5014038 4.70487976l-.81843568-.16412354-3.16462707-5.47077942 4.71966552 2.2977295c-.21826171.68383789-.10913086 1.4223938.24552918 2.02418518l-.98213196 1.31298828zm22.56161498-1.31298828l.95484924 1.31298828.84571839-.16412354 3.16462707-5.47077942-4.71966552 2.2977295c.21824646.68383789.10913086 1.4223938-.24552918 2.02418518zm-27.09031677-3.61070252V40.976115c.10913086.13676452.19096374.27352905.3000946.43765258l2.3189087.4923706-2.6190033-4.54074096zm29.98213196 4.54074097l2.6190033-4.54074097v3.9936676l-2.6190033.54707337zm-24.00752259 1.4223938c-.08184814-.32824707-.3000946-.60179138-.57290649-.79325867l.68203735-.93003845.32737732.2461853c1.145813.65649414 2.59172058.32824707 3.3283081-.7385559l2.50987244 1.2309265c.1636963.08206177.38194275.02735902.49107361-.10942077v8.6711731l-5.48353576-2.35243226-1.28222657-5.22457885zm19.34242249 5.22457885l1.28222656-5.22457885c.08183289-.32824707.3000946-.6291504.5729065-.79325867l-.68203736-.93003845c-.10913086.10942077-.21824646.16412353-.32737732.2461853-1.14581299.68385315-2.59172058.32824707-3.3283081-.7385559l-2.5098877 1.2309265c-.16368103.08206177-.38192749.02735902-.49105835-.10942077v8.6711731l5.48353577-2.35243226z"/>
      <path fill="rgb(191,112,57)" fill-rule="evenodd" d="M118.40075259 43.90296574l-.08184384.13676936-.08184384-.1094155-.54562559.1094155-.6547507 2.76274115c22.3706491 1.17621652 44.46848542 3.99366541 68.36688617 13.56752087 0 0-21.60677328-15.40023035-60.9190969-20.24186582l-1.25493885 2.76274114-4.82878645 1.0120933z"/>
      <path fill="rgb(191,112,57)" fill-rule="evenodd" d="M96.03010348 43.9303196l-.08184384.1094155-.08184384-.13676936-4.82878645-1.0120933v-3.69277281c-21.3066792 1.3950475-45.1505174 6.9205298-70.38570085 19.47595738 0 0 32.51928505-11.21508782 76.52398872-12.17247336l-.60018815-2.46184855-.54562559-.1094155z"/>
      <path fill="rgb(191,112,57)" fill-rule="evenodd" d="M188.86829727 87.7785776v-4.10308091l8.04797742-7.30348402c.51834431-.49236971.9275635-.98473942 1.22765758-1.47710913.30009407-.51972358.46378175-1.06680103.46378175-1.6959401 0-.73855457-.24553152-1.34033977-.70931327-1.8053556-.46378175-.46501584-1.09125117-.68384683-1.855127-.68384683-.81843838 0-1.47318908.3008926-1.9915334.87532393-.5183443.57443133-.81843837 1.34033976-.9275635 2.27037144l-4.69238005-.65649295c.10912512-1.06680103.4092192-1.9968327.87300094-2.81744889.46378175-.82061618 1.03668862-1.53181687 1.74600188-2.1062482.70931327-.57443133 1.50047037-1.0120933 2.4007526-1.3129859.90028221-.3008926 1.85512699-.46501583 2.86453433-.46501583.95484478 0 1.88240828.13676937 2.7826905.38295422.90028222.24618486 1.69143932.65649295 2.40075258 1.17621653.70931327.51972358 1.25493886 1.2035704 1.69143933 1.9968327.40921919.79326232.62746942 1.72329399.62746942 2.8174489 0 .73855456-.10912512 1.42240138-.30009407 1.9968327-.19096896.6017852-.46378175 1.14886266-.7911571 1.64123237-.32737536.51972358-.73659455.98473942-1.17309502 1.42240138-.43650047.43766197-.90028222.87532393-1.36406397 1.3129859l-4.7742239 4.26720414h8.37535278v4.26720415h-14.92285983z"/>
      <path fill="rgb(191,112,57)" fill-rule="evenodd" d="M213.0667921 85.20731356c0 .82061618-.30009408 1.504463-.87300094 2.05154046-.57290687.54707745-1.25493886.82061618-2.04609596.82061618-.40921919 0-.7911571-.08206162-1.14581373-.21883098-.35465663-.13676937-.68203199-.35560035-.95484478-.6017852-.2728128-.24618486-.49106303-.54707746-.6547507-.9026778-.16368768-.32824648-.24553152-.7112007-.24553152-1.12150879 0-.38295421.08184384-.76590843.24553151-1.12150878.16368768-.35560034.38193791-.65649294.6547507-.93003167.2728128-.27353873.60018816-.46501584.95484479-.62913907.35465663-.16412324.73659454-.24618486 1.14581373-.24618486.7911571 0 1.47318909.27353873 2.04609596.82061618.57290686.57443133.87300094 1.25827815.87300094 2.07889433z"/>
      <path fill="rgb(191,112,57)" fill-rule="evenodd" d="M5.75634766 67.45466114c.16368866-.35560608.2455368-.73855591.2455368-1.14886475s-.08184814-.79327392-.27281952-1.14886474c-.13640594-.35560608-.3546524-.65649415-.6274643-.90267945-.27281188-.2461853-.57290649-.4650116-.95484924-.60179138-.38193512-.13676453-.76387024-.2188263-1.17308807-.2188263-.40922546 0-.8184433.08206177-1.1730957.2461853-.35466004.16412354-.68203736.38294984-.95484925.62913514-.27281189.2461853-.49105835.54708862-.62747192.90267944C.08184052 65.56724048 0 65.9228313 0 66.3057964c0 .79325866.3000946 1.4497528.8730011 2.02418517.5729065.57443238 1.28221893.84796143 2.12793732.84796143.40921783 0 .79116058-.08206177 1.1730957-.2188263.38194275-.13676452.68202972-.35560608.95484924-.60179138.24552918-.2461853.46377564-.54707336.6274643-.90266418zM.38193512 71.39361072v15.9199524h5.2380066v-15.9199524H.38193511z"/>
      <path fill="rgb(191,112,57)" fill-rule="evenodd" d="M20.18814675 87.31356176v-8.69853153c0-.43766196-.02728127-.87532392-.10912511-1.28563202-.08184384-.41030809-.19096896-.76590843-.35465664-1.06680103-.16368767-.3008926-.40921919-.54707746-.70931326-.73855457-.30009407-.1914771-.70931326-.27353872-1.17309501-.27353872s-.87300094.08206162-1.22765758.27353872c-.35465663.19147711-.6547507.43766197-.87300094.73855457-.24553151.32824647-.40921919.68384682-.5183443 1.0941549-.10912512.4103081-.16368768.84797006-.16368768 1.28563203v8.64382378h-5.2925682V71.39360783h5.07431796v2.2156637h.05456256c.19096896-.32824648.43650047-.68384683.73659455-1.0120933.30009407-.32824647.68203198-.6017852 1.09125117-.84797005.4092192-.24618486.87300094-.43766197 1.36406397-.57443133.49106303-.13676936 1.00940734-.21883098 1.55503293-.21883098 1.0639699 0 1.96425211.1914771 2.70084666.57443133.73659454.38295421 1.33678269.87532392 1.80056444 1.47710912.46378175.6017852.7911571 1.3129859.98212606 2.1062482.19096895.79326231.30009407 1.58652462.30009407 2.37978693v9.84739418h-5.23800565v-.02735387z"/>
      <path fill="rgb(191,112,57)" fill-rule="evenodd" d="M35.0837253 75.30521163v6.09991362c0 .73855457.1364064 1.3129859.43650048 1.69594011.30009407.38295422.7911571.57443133 1.55503292.57443133.24553152 0 .51834431-.02735387.81843838-.05470775.30009408-.05470774.51834431-.10941549.70931327-.1914771l.05456256 3.82954218c-.35465664.13676936-.81843839.24618485-1.36406397.32824647-.5456256.10941549-1.11853246.13676936-1.66415805.13676936-1.0639699 0-1.96425211-.13676936-2.67356538-.41030809-.73659454-.27353873-1.3095014-.65649294-1.74600188-1.14886265-.43650047-.49236971-.73659454-1.09415491-.9275635-1.8053556-.19096895-.68384682-.30009407-1.47710913-.30009407-2.32507919v-6.72905269h-2.56444027v-3.9116038h2.50987771V67.2084653h5.12888053v4.18514253h3.73753527v3.9116038h-3.710254z"/>
      <path fill="rgb(191,112,57)" fill-rule="evenodd" d="M57.04516602 80.1742046v-.62913514c0-1.36769104-.21826172-2.57125854-.57292176-3.66542053q-.57289123-1.60020447-1.63687134-2.70803833c-.68202972-.76589966-1.5277481-1.34033203-2.50987243-1.72328186-.98213196-.41030884-2.0460968-.60179138-3.2191925-.60179138-1.20037842 0-2.34619141.19148254-3.38288117.60179138-1.03668976.41030884-1.93697357.98472595-2.70084381 1.72328186-.76387787.7385559-1.3913498 1.6138916-1.82785034 2.68067932-.46378327 1.03945923-.68202973 2.21566773-.68202973 3.528656 0 1.34033204.21824646 2.5439148.68202973 3.58335877.46378326 1.03944397 1.09125518 1.9147644 1.88240814 2.62597656.79116058.7111969 1.71871948 1.25827027 2.78269195 1.6412201 1.06397248.35560608 2.18250275.54708862 3.38288117.54708862 1.60959625 0 3.02822113-.30090332 4.25588226-.8753357 1.22766113-.60177612 2.20977783-1.4223938 2.94638062-2.51655578l-3.62841797-2.29771423c-.3546524.4923706-.81843567.90267944-1.39134217 1.2035675-.57290649.30088806-1.28221893.4650116-2.10066223.4650116-.46378326 0-.9275589-.08206177-1.36405944-.2188263-.43650055-.16412353-.8184433-.35560607-1.1730957-.62913513-.35466004-.2461853-.65475465-.57443237-.8730011-.93003845-.24553681-.35560608-.35466004-.76591492-.40921784-1.2035675H57.0178833c.02728272-.19148255.02728272-.3829651.02728272-.60179139zm-5.61995697-4.78692627c.51834106.57443237.79116058 1.31298828.79116058 2.13360595v.02734375H45.47789c.02728272-.41030884.13640595-.79325866.32737732-1.1762085.19096375-.38296508.43650055-.7111969.76387024-.9847412.32737732-.27354432.68203736-.49237061 1.1185379-.65649415.40921784-.16412353.8730011-.2461853 1.39134217-.2461853 1.03668976 0 1.82785034.30088806 2.3461914.90267945z"/>
      <path fill="rgb(191,112,57)" fill-rule="evenodd" d="M60.34619003 87.31356176v-24.1808235h5.31984948v24.1808235h-5.31984948z"/>
      <path fill="rgb(191,112,57)" fill-rule="evenodd" d="M69.86735654 87.31356176v-24.1808235h5.31984948v24.1808235h-5.31984948z"/>
      <path fill="rgb(191,112,57)" fill-rule="evenodd" d="M84.73565674 67.45466114c.16369629-.35560608.24552917-.73855591.24552917-1.14886475s-.08183288-.79327392-.27281189-1.14886474c-.13639831-.35560608-.35466003-.65649415-.62747192-.90267945-.27281189-.2461853-.5729065-.4650116-.95483398-.60179138-.38194275-.13676453-.7638855-.2188263-1.1730957-.2188263-.40922547 0-.81843568.08206177-1.17309571.2461853-.35466004.16412354-.68203735.38294984-.95484924.62913514-.2728119.2461853-.49105835.54708862-.62747193.90267944-.13639831.35560608-.21824646.7111969-.21824646 1.094162 0 .79325866.3000946 1.4497528.8730011 2.02418517.5729065.57443238 1.28222656.84796143 2.12794495.84796143.4092102 0 .79115295-.08206177 1.1730957-.2188263.38192749-.13676452.6820221-.35560608.95483398-.60179138.24552918-.2461853.4637909-.54707336.62747193-.90266418zm-5.37442017 3.93894958v15.9199524h5.2380066v-15.9199524h-5.2380066z"/>
      <path fill="rgb(191,112,57)" fill-rule="evenodd" d="M104.89653015 89.85746265c.46377564-1.14884949.6820221-2.48919678.6820221-4.04837036V71.39361072h-4.937912v2.05152893h-.05456542c-.5729065-.84796142-1.2822113-1.47709655-2.20977783-1.8874054-.90028382-.41030883-1.85513306-.60179137-2.86453247-.60179137-1.20037842 0-2.26434327.21882629-3.1919098.68385315-.92756652.4650116-1.71871948 1.06678772-2.37347411 1.83270263-.62747193.76591492-1.145813 1.64123535-1.47319031 2.65332031-.35466004 1.01210022-.51834107 2.0515442-.51834107 3.17304993 0 1.09416199.19096375 2.16096497.51834107 3.14570618.32737732.9847412.81843567 1.86006164 1.4731903 2.59861755.65475464.73855591 1.4459076 1.34033203 2.37347413 1.77799988.92756652.43765259 2.01881408.65649414 3.2191925.65649414 1.06396484 0 2.01881409-.19148254 2.83724976-.57443237.81843567-.3829651 1.4731903-.90267945 1.96424865-1.53181458h.10913086v.9573822c0 1.34033204-.35466003 2.40713501-1.09124755 3.22775269-.73660279.79325867-1.88241578 1.2035675-3.41017151 1.2035675-.90026856 0-1.80055237-.16412353-2.7281189-.4923706-.92756653-.35559082-1.77328491-.84796143-2.53715515-1.53181458l-2.6190033 3.7474823c1.09124756.82061768 2.37345886 1.42240906 3.84664917 1.86006165 1.47319031.41030884 2.9190979.62915039 4.31044007.62915039 1.41864013 0 2.70085144-.16412354 3.84666442-.54708862 1.145813-.38294983 2.12794495-.9300232 2.94638062-1.69593811.81843567-.76591492 1.4459076-1.72329712 1.88241577-2.87216187zm-4.5559845-12.14511108c.19096375.4923706.2728119 1.01210022.2728119 1.53182983 0 .57441712-.10913087 1.09414673-.2728119 1.58651734-.190979.4923706-.43650817.93003845-.7638855 1.28562927-.32736205.35560608-.7093048.65649414-1.20036315.87532043-.4637909.21884156-1.00941468.32824707-1.60960388.32824707-.60018921 0-1.11853028-.10940551-1.58230591-.32824707-.4637909-.2188263-.84573365-.51971435-1.1730957-.90266418-.32737733-.35560608-.5729065-.79327393-.73660279-1.28564453-.16368103-.4923706-.24552917-1.01208496-.24552917-1.53181458 0-.54707336.08184814-1.06680298.24552917-1.55917358.16369629-.4923706.40922546-.9300232.73660278-1.28562928.32736206-.38294982.70930481-.65649414 1.1730957-.87532043.46377564-.2188263.9821167-.32824707 1.58230592-.32824707.57290649 0 1.11853027.10942078 1.58232116.32824707.46377564.2188263.8730011.4923706 1.20037842.87532043.35464478.35560608.60017395.79325867.79115295 1.28562928z"/>
      <path fill="rgb(191,112,57)" fill-rule="evenodd" d="M125.49388123 80.1742046v-.62913514c0-1.36769104-.19096375-2.57125854-.5729065-3.66542053q-.57292175-1.60020447-1.63687134-2.70803833c-.68203735-.76589966-1.52775573-1.34033203-2.5098877-1.72328186-.9821167-.41030884-2.0460968-.60179138-3.2191925-.60179138-1.20037841 0-2.3461914.19148254-3.38287353.60179138s-1.93696594.98472595-2.70085144 1.72328186c-.76387024.7385559-1.39134217 1.6138916-1.82783509 2.68067932-.46379089 1.03945923-.68203735 2.21566773-.68203735 3.528656 0 1.34033204.21824646 2.5439148.68203735 3.58335877.46377564 1.03944397 1.09124756 1.9147644 1.88240052 2.62597656q1.1867218 1.06678772 2.78269958 1.6412201c1.06396485.35560608 2.18249512.54708862 3.38287354.54708862 1.60958862 0 3.0282135-.30090332 4.25587463-.8753357 1.22766113-.60177612 2.2097931-1.4223938 2.94638062-2.51655578l-3.62840271-2.29771423c-.35466004.4923706-.81845093.90267944-1.39135743 1.2035675-.57290649.30088806-1.2822113.4650116-2.10064697.4650116-.4637909 0-.92756653-.08206177-1.3640747-.2188263-.43649292-.16412353-.81843567-.35560607-1.1730957-.62913513-.35464478-.2461853-.65473939-.57443237-.8730011-.93003845-.24552918-.35560608-.35464478-.76591492-.40921021-1.2035675h11.51269531c.02728272-.19148255.02728272-.3829651.02728272-.60179139zm-5.61994935-4.78692627c.51835633.57443237.79116822 1.31298828.79116822 2.13360595v.02734375h-6.73847962c.02728272-.41030884.13641358-.79325866.32737732-1.1762085.19096375-.38296508.43649292-.7111969.76387024-.9847412.32737732-.27354432.68203736-.49237061 1.11853028-.65649415.40922546-.16412353.8730011-.2461853 1.39135742-.2461853 1.03668213 0 1.82783508.30088806 2.34617614.90267945z"/>
      <path fill="rgb(191,112,57)" fill-rule="evenodd" d="M139.1618062 87.31356176v-8.69853153c0-.43766196-.02728127-.87532392-.1091251-1.28563202-.08184385-.41030809-.19096896-.76590843-.35465664-1.06680103-.16368768-.3008926-.4092192-.54707746-.70931327-.73855457-.30009407-.1914771-.70931326-.27353872-1.173095-.27353872-.46378176 0-.87300095.08206162-1.22765758.27353872-.35465663.19147711-.6547507.43766197-.87300094.73855457-.24553152.32824647-.4092192.68384682-.51834431 1.0941549-.10912512.4103081-.16368768.84797006-.16368768 1.28563203v8.64382378h-5.26528692V71.39360783h5.07431797v2.2156637h.05456256c.19096895-.32824648.43650047-.68384683.73659454-1.0120933.30009407-.32824647.68203198-.6017852 1.09125117-.84797005.4092192-.24618486.87300095-.43766197 1.36406397-.57443133.49106303-.13676936 1.00940734-.21883098 1.55503293-.21883098 1.0639699 0 1.96425212.1914771 2.70084666.57443133.73659454.38295421 1.3367827.87532392 1.80056444 1.47710912.46378175.6017852.7911571 1.3129859.98212606 2.1062482.19096896.79326231.30009407 1.58652462.30009407 2.37978693v9.84739418h-5.26528692v-.02735387z"/>
      <path fill="rgb(191,112,57)" fill-rule="evenodd" d="M159.34995296 76.5361359c-.30009407-.38295421-.70931326-.68384681-1.20037629-.93003167-.5183443-.24618485-1.03668862-.35560034-1.55503293-.35560034-.54562558 0-1.0639699.10941549-1.50047036.32824647-.43650047.21883098-.81843838.51972358-1.14581374.9026778-.32737535.38295422-.57290686.7932623-.73659454 1.28563202-.19096896.4923697-.2728128 1.01209329-.2728128 1.55917074 0 .54707746.08184384 1.06680104.24553152 1.55917075.16368768.4923697.40921919.93003167.73659454 1.28563202.32737536.38295422.70931327.65649294 1.17309502.87532393.46378175.21883098.98212606.32824647 1.55503292.32824647.51834431 0 1.0639699-.1094155 1.5823142-.3008926.51834432-.19147711.9275635-.49236971 1.25493886-.87532393l2.89181562 3.55600346c-.6547507.62913907-1.50047037 1.14886265-2.56444027 1.504463-1.03668861.35560034-2.15522107.54707745-3.32831608.54707745-1.25493886 0-2.42803387-.1914771-3.51928505-.57443133-1.09125117-.38295421-2.04609595-.95738554-2.83725305-1.66858623-.7911571-.73855457-1.44590781-1.6138785-1.88240828-2.68067953-.46378175-1.03944716-.68203199-2.2156637-.68203199-3.55600346 0-1.31298589.21825024-2.46184854.68203199-3.52864958.46378175-1.03944716 1.09125117-1.94212496 1.88240828-2.68067953.7911571-.73855456 1.74600188-1.31298589 2.83725305-1.6959401 1.09125118-.38295422 2.23706491-.6017852 3.49200377-.6017852.57290686 0 1.14581373.05470774 1.7187206.16412323.57290687.1094155 1.11853245.24618486 1.63687676.43766196.51834431.19147711 1.00940734.4103081 1.44590781.68384682.43650047.27353873.81843838.54707746 1.14581374.87532393l-3.0555033 3.55600346z"/>
      <path fill="rgb(191,112,57)" fill-rule="evenodd" d="M180.19285583 80.1742046v-.62913514c0-1.36769104-.19096374-2.57125854-.57290649-3.66542053q-.57292175-1.60020447-1.63687134-2.70803833c-.68203735-.76589966-1.52775573-1.34033203-2.5098877-1.72328186-.9821167-.41030884-2.0460968-.60179138-3.2191925-.60179138-1.20037842 0-2.3461914.19148254-3.38287353.60179138s-1.93696594.98472595-2.70085144 1.72328186c-.76387024.7385559-1.39134217 1.6138916-1.82783509 2.68067932-.46379089 1.03945923-.68203735 2.21566773-.68203735 3.528656 0 1.34033204.21824646 2.5439148.68203735 3.58335877.46377564 1.03944397 1.09124756 1.9147644 1.88240052 2.62597656q1.1867218 1.06678772 2.78269958 1.6412201c1.06396485.35560608 2.18249512.54708862 3.38287354.54708862 1.60958862 0 3.0282135-.30090332 4.25587463-.8753357 1.22766113-.60177612 2.2097931-1.4223938 2.94638062-2.51655578l-3.62840271-2.29771423c-.35466004.4923706-.81845093.90267944-1.39135743 1.2035675-.57290649.30088806-1.2822113.4650116-2.10064697.4650116-.4637909 0-.92756653-.08206177-1.3640747-.2188263-.43649293-.16412353-.81843567-.35560607-1.1730957-.62913513-.35464478-.2461853-.65473939-.57443237-.8730011-.93003845-.24552918-.35560608-.35464478-.76591492-.40921021-1.2035675h11.51269531c.02728271-.19148255.02728271-.3829651.02728271-.60179139zm-5.61994934-4.78692627c.51835633.57443237.79116822 1.31298828.79116822 2.13360595v.02734375h-6.73847962c.02728272-.41030884.13641358-.79325866.32737732-1.1762085.19096375-.38296508.43649292-.7111969.76387024-.9847412.32737732-.27354432.68203735-.49237061 1.11853027-.65649415.40922547-.16412353.8730011-.2461853 1.39135743-.2461853 1.03668213 0 1.82783508.30088806 2.34617614.90267945z"/>
      <path fill="rgb(191,112,57)" fill-rule="evenodd" d="M231.56350708 81.54189563C231.86358643 80.22890735 232 78.80651355 232 77.35676075c0-1.47711182-.13641357-2.84480286-.43649292-4.15779114-.27282715-1.31298828-.73660278-2.46185303-1.39135742-3.44659424-.62747193-.98474121-1.47317505-1.77799988-2.48257446-2.35243225-1.00942994-.57443237-2.23709107-.87532043-3.71026612-.87532043s-2.70083618.30088806-3.73754883.87532043c-1.03668212.57443237-1.88238525 1.36769104-2.53713989 2.35243225-.65475464.98474121-1.11853027 2.13360596-1.41864014 3.44659424-.30007934 1.31298828-.43649292 2.68067932-.43649292 4.15779114 0 1.4497528.13641358 2.84480285.43649292 4.18513488.30010987 1.3403473.7638855 2.48921204 1.41864014 3.501297.65475464 1.01210022 1.50045776 1.80535889 2.5371399 2.40715027 1.03671264.60177612 2.29162597.90266418 3.73754882.90266418s2.70083618-.30088806 3.71026612-.90266418c1.0093994-.60179138 1.82781982-1.39505005 2.48257446-2.40715027.62747192-1.01208496 1.09124756-2.1609497 1.39135742-3.501297zm-4.69238281-6.31874084c.08181762.76589966.10910034 1.47711182.10910034 2.13360596 0 .65647888-.05453491 1.39503479-.10910034 2.18830871-.08184815.79325867-.21826172 1.50445557-.43652344 2.18830872-.2182312.68383789-.51834106 1.23092651-.92755127 1.6959381-.38192749.4650116-.90026855.6838379-1.5550232.6838379-.65475463 0-1.1730957-.2188263-1.58233642-.6838379-.4092102-.46501159-.73657226-1.01210021-.95483398-1.6959381-.24554444-.65649414-.3819275-1.39505005-.46377564-2.18830872-.08184814-.79327392-.10913086-1.53182983-.10913086-2.18830871 0-.6291504.02728272-1.3403473.10913086-2.13360596.08184815-.79325867.24551392-1.50447083.46377564-2.18830872.21826172-.68385315.54562378-1.2309265.95483398-1.6959381.40924072-.46502686.9548645-.68385316 1.58233643-.68385316.62747192 0 1.14581299.2188263 1.5550232.68385315.4092102.4650116.70932006 1.01208496.92755126 1.69593811.21826172.6838379.3546753 1.39505005.43652344 2.18830872z"/>
    </g>
  </g>
</svg>
