<svg xmlns="http://www.w3.org/2000/svg" viewBox="0 0 200 25.61"><defs><style>.cls-1{fill:#fff;}.cls-2{fill:#185c73;}.cls-3{fill:#706f6f;}</style></defs><title>logo-ic</title><g id="Layer_2" data-name="Layer 2"><g id="Capa_1" data-name="Capa 1"><path class="cls-1" d="M0,14V2.16a1,1,0,0,1,1-1,1,1,0,0,1,1,1V14a1,1,0,0,1-1,1A1,1,0,0,1,0,14Z"/><path class="cls-1" d="M9.86,14.38c-.4-.88-.83-1.75-1.28-2.67C7.83,10.17,6.85,8.2,6,6.43V14a1,1,0,1,1-1.95,0V2.16a.94.94,0,0,1,.75-1,1,1,0,0,1,1.1.53c.4.87.83,1.75,1.28,2.66C8,5.94,8.89,7.91,9.76,9.68V2.16a1,1,0,1,1,2,0V14a1,1,0,0,1-.75,1A1,1,0,0,1,9.86,14.38Z"/><path class="cls-1" d="M20.25,2.24a1,1,0,0,1-1,1H17.61V14a1,1,0,1,1-1.95,0V3.21H14a1,1,0,1,1,0-1.95h5.29A1,1,0,0,1,20.25,2.24Z"/><path class="cls-1" d="M22.53,1.26H26.6a1,1,0,0,1,1,1,1,1,0,0,1-1,1H23.5V6.87h2.69a1,1,0,1,1,0,2H23.5v4.06h3.1a1,1,0,0,1,0,2H22.53a1,1,0,0,1-1-1V2.24A1,1,0,0,1,22.53,1.26Z"/><path class="cls-1" d="M29,13.87V2.16a1,1,0,1,1,2,0V12.89h3.09a1,1,0,0,1,0,2H30A1,1,0,0,1,29,13.87Z"/><path class="cls-1" d="M36.11,13.87V2.16a1,1,0,1,1,2,0V12.89h3.09a1,1,0,0,1,0,2H37.09A1,1,0,0,1,36.11,13.87Z"/><path class="cls-1" d="M43.19,14V2.16a1,1,0,1,1,2,0V14a1,1,0,1,1-2,0Z"/><path class="cls-1" d="M53.84,8.26v3.25a3.42,3.42,0,1,1-6.83,0V4.6a3.42,3.42,0,0,1,6.38-1.71A1,1,0,0,1,53,4.23a1,1,0,0,1-1.32-.37,1.47,1.47,0,0,0-1.65-.67A1.45,1.45,0,0,0,49,4.6v6.91A1.48,1.48,0,0,0,50.43,13a1.46,1.46,0,0,0,1.46-1.47V9.23H50.83a1,1,0,0,1,0-1.95h2A1,1,0,0,1,53.84,8.26Z"/><path class="cls-1" d="M56.61,1.26h4.06a1,1,0,1,1,0,2H57.58V6.87h2.69a1,1,0,0,1,0,2H57.58v4.06h3.09a1,1,0,1,1,0,2H56.61a1,1,0,0,1-1-1V2.24A1,1,0,0,1,56.61,1.26Z"/><path class="cls-1" d="M68.91,14.38c-.41-.88-.84-1.75-1.28-2.67-.76-1.54-1.73-3.51-2.57-5.28V14a1,1,0,1,1-2,0V2.16a1,1,0,0,1,.75-1,1,1,0,0,1,1.1.53c.41.87.84,1.75,1.28,2.66.76,1.55,1.69,3.52,2.57,5.29V2.16a1,1,0,1,1,2,0V14a1,1,0,0,1-.75,1A1,1,0,0,1,68.91,14.38Z"/><path class="cls-1" d="M72.63,11.51V4.6a3.4,3.4,0,0,1,2.52-3.3A3.35,3.35,0,0,1,79,2.89a1,1,0,0,1-.34,1.34,1,1,0,0,1-1.35-.37,1.43,1.43,0,0,0-1.64-.67A1.46,1.46,0,0,0,74.58,4.6v6.91a1.48,1.48,0,0,0,1.08,1.42,1.45,1.45,0,0,0,1.64-.69,1,1,0,0,1,1.35-.36A1,1,0,0,1,79,13.22a3.41,3.41,0,0,1-6.36-1.71Z"/><path class="cls-1" d="M81.68,1.26h4.06a1,1,0,1,1,0,2H82.65V6.87h2.69a1,1,0,0,1,0,2H82.65v4.06h3.09a1,1,0,1,1,0,2H81.68a1,1,0,0,1-1-1V2.24A1,1,0,0,1,81.68,1.26Z"/><path class="cls-1" d="M127,11.51V4.6a3.41,3.41,0,0,1,2.53-3.3,3.35,3.35,0,0,1,3.84,1.59A1,1,0,0,1,133,4.23a1,1,0,0,1-1.34-.37,1.46,1.46,0,0,0-2.72.74v6.91a1.45,1.45,0,0,0,2.72.73,1,1,0,0,1,1.34-.36,1,1,0,0,1,.35,1.34A3.41,3.41,0,0,1,127,11.51Z"/><path class="cls-1" d="M134.8,11.51V4.6a3.42,3.42,0,1,1,6.84,0v6.91a3.42,3.42,0,0,1-6.84,0Zm1.95-6.91v6.91a1.47,1.47,0,1,0,2.93,0V4.6a1.47,1.47,0,1,0-2.93,0Z"/><path class="cls-1" d="M149.3,14.38c-.41-.88-.83-1.75-1.28-2.67-.75-1.54-1.73-3.51-2.56-5.28V14a1,1,0,0,1-2,0V2.16a1,1,0,0,1,.76-1,1,1,0,0,1,1.09.53c.41.87.84,1.75,1.29,2.66.75,1.55,1.68,3.52,2.56,5.29V2.16a1,1,0,1,1,2,0V14a1,1,0,0,1-.75,1A1,1,0,0,1,149.3,14.38Z"/><path class="cls-1" d="M159.69,2.24a1,1,0,0,1-1,1h-1.66V14a1,1,0,0,1-2,0V3.21h-1.66a1,1,0,1,1,0-1.95h5.28A1,1,0,0,1,159.69,2.24Z"/><path class="cls-1" d="M166,8.85l1.77,4.76a1,1,0,0,1-.57,1.26,1,1,0,0,1-1.26-.57L164,9.23h-1.1V14A1,1,0,1,1,161,14V2.24a1,1,0,0,1,1-1h2.44a3.41,3.41,0,0,1,3.41,3.42V5.82A3.35,3.35,0,0,1,166,8.85Zm-1.58-1.57a1.46,1.46,0,0,0,1.46-1.46V4.68a1.46,1.46,0,0,0-1.46-1.47h-1.47V7.28Z"/><path class="cls-1" d="M176.3,14.89a1,1,0,0,1-1.2-.67c-.06-.17-.1-.37-.16-.59-.1-.39-.26-.92-.43-1.55h-3.46c-.18.63-.32,1.16-.42,1.55-.06.22-.1.42-.16.59a1,1,0,0,1-1.21.67,1,1,0,0,1-.67-1.2l3.26-11.8a1,1,0,0,1,1.87,0L177,13.69A1,1,0,0,1,176.3,14.89Zm-3.52-9c-.38,1.32-.79,2.88-1.18,4.29H174C173.58,8.72,173.17,7.16,172.78,5.84Z"/><path class="cls-1" d="M178,11.51V4.6a3.41,3.41,0,0,1,2.52-3.3,3.35,3.35,0,0,1,3.84,1.59A1,1,0,0,1,184,4.23a1,1,0,0,1-1.34-.37,1.47,1.47,0,0,0-2.73.74v6.91a1.46,1.46,0,0,0,2.73.73,1,1,0,0,1,1.34-.36,1,1,0,0,1,.34,1.34A3.41,3.41,0,0,1,178,11.51Z"/><path class="cls-1" d="M192.49,2.24a1,1,0,0,1-1,1h-1.67V14a1,1,0,1,1-2,0V3.21h-1.67a1,1,0,0,1-1-1,1,1,0,0,1,1-1h5.29A1,1,0,0,1,192.49,2.24Z"/><path class="cls-1" d="M198,11.53a1.54,1.54,0,0,0-.43-1.22L194.35,7a3.33,3.33,0,0,1-.95-2.65,3.38,3.38,0,0,1,1.34-2.46,3.51,3.51,0,0,1,2.75-.63,3.43,3.43,0,0,1,2.28,1.65,1,1,0,0,1-.37,1.34,1,1,0,0,1-1.32-.37,1.55,1.55,0,0,0-1-.71,1.44,1.44,0,0,0-1.18.29,1.36,1.36,0,0,0-.57,1.05,1.34,1.34,0,0,0,.41,1.12L199,9a3.52,3.52,0,0,1,1,2.72,3.59,3.59,0,0,1-1.38,2.55,3.51,3.51,0,0,1-5.17-1,1,1,0,0,1,.35-1.34,1,1,0,0,1,1.34.36,1.55,1.55,0,0,0,1,.76,1.58,1.58,0,0,0,1.26-.31A1.49,1.49,0,0,0,198,11.53Z"/><rect class="cls-2" x="111.53" y="2.3" width="11.1" height="11.1" transform="translate(205.42 -69.39) rotate(135)"/><rect class="cls-2" x="90.96" y="2.3" width="11.1" height="11.1" transform="translate(170.3 -54.84) rotate(135)"/><rect class="cls-3" x="100.86" y="12.2" width="11.1" height="11.1" transform="translate(194.21 -44.93) rotate(135)"/></g></g></svg>