<svg xmlns="http://www.w3.org/2000/svg" viewBox="0 0 200 23.98"><defs><style>.cls-1{fill:#fff;}.cls-2{fill:#706f6f;}.cls-3{fill:#644a4a;}</style></defs><title>logo-com</title><g id="Layer_2" data-name="Layer 2"><g id="Capa_1" data-name="Capa 1"><path class="cls-1" d="M0,17.8V6.5a.92.92,0,0,1,.93-.93.92.92,0,0,1,.94.93V17.8a.92.92,0,0,1-.94.93A.92.92,0,0,1,0,17.8Z"/><path class="cls-1" d="M9.44,18.21c-.39-.84-.79-1.68-1.22-2.55-.72-1.48-1.66-3.37-2.46-5.07V17.8a.94.94,0,0,1-1.87,0V6.5a.91.91,0,0,1,.72-.91,1,1,0,0,1,1.06.51c.39.83.79,1.67,1.22,2.55.72,1.48,1.62,3.37,2.46,5.06V6.5a.94.94,0,0,1,1.87,0V17.8a1,1,0,0,1-.73.92A.93.93,0,0,1,9.44,18.21Z"/><path class="cls-1" d="M19.39,6.58a.92.92,0,0,1-.93.94h-1.6V17.8a.94.94,0,0,1-1.87,0V7.52h-1.6a.94.94,0,0,1,0-1.87h5.07A.92.92,0,0,1,19.39,6.58Z"/><path class="cls-1" d="M21.57,5.65h3.89a.94.94,0,1,1,0,1.87h-3V11h2.58a.94.94,0,0,1,0,1.87H22.5v3.9h3a.94.94,0,1,1,0,1.87H21.57a.92.92,0,0,1-.93-.94V6.58A.92.92,0,0,1,21.57,5.65Z"/><path class="cls-1" d="M27.8,17.72V6.5a.94.94,0,0,1,1.87,0V16.79h3a.94.94,0,0,1,0,1.87h-3.9A.92.92,0,0,1,27.8,17.72Z"/><path class="cls-1" d="M34.57,17.72V6.5a.94.94,0,0,1,1.87,0V16.79h3a.94.94,0,1,1,0,1.87H35.51A.93.93,0,0,1,34.57,17.72Z"/><path class="cls-1" d="M41.35,17.8V6.5a.94.94,0,0,1,1.87,0V17.8a.94.94,0,0,1-1.87,0Z"/><path class="cls-1" d="M51.55,12.35v3.11a3.27,3.27,0,1,1-6.54,0V8.84a3.22,3.22,0,0,1,2.43-3.15,3.26,3.26,0,0,1,3.68,1.52,1,1,0,0,1-.35,1.28.92.92,0,0,1-1.26-.35,1.4,1.4,0,0,0-1.58-.64,1.39,1.39,0,0,0-1,1.34v6.62a1.4,1.4,0,1,0,2.8,0V13.28h-1a.94.94,0,0,1,0-1.87h1.95A.92.92,0,0,1,51.55,12.35Z"/><path class="cls-1" d="M54.2,5.65h3.89a.94.94,0,1,1,0,1.87h-3V11H57.7a.94.94,0,1,1,0,1.87H55.13v3.9h3a.94.94,0,1,1,0,1.87H54.2a.93.93,0,0,1-.94-.94V6.58A.92.92,0,0,1,54.2,5.65Z"/><path class="cls-1" d="M66,18.21c-.39-.84-.8-1.68-1.23-2.55-.72-1.48-1.66-3.37-2.45-5.07V17.8a.94.94,0,0,1-1.87,0V6.5a.9.9,0,0,1,.72-.91.93.93,0,0,1,1.05.51c.39.83.8,1.67,1.23,2.55.72,1.48,1.61,3.37,2.45,5.06V6.5a.94.94,0,0,1,1.87,0V17.8a1,1,0,0,1-.72.92A.92.92,0,0,1,66,18.21Z"/><path class="cls-1" d="M69.54,15.46V8.84a3.26,3.26,0,0,1,6.09-1.63.91.91,0,0,1-.33,1.28A1,1,0,0,1,74,8.14a1.4,1.4,0,0,0-2.61.7v6.62a1.39,1.39,0,0,0,2.61.7,1,1,0,0,1,1.28-.35.92.92,0,0,1,.33,1.29,3.26,3.26,0,0,1-6.09-1.64Z"/><path class="cls-1" d="M78.2,5.65h3.9a.94.94,0,0,1,0,1.87h-3V11h2.57a.94.94,0,0,1,0,1.87H79.14v3.9h3a.94.94,0,0,1,0,1.87H78.2a.92.92,0,0,1-.93-.94V6.58A.92.92,0,0,1,78.2,5.65Z"/><path class="cls-1" d="M125.31,15.46V8.84a3.27,3.27,0,0,1,6.1-1.63.92.92,0,0,1-.34,1.28,1,1,0,0,1-1.28-.35,1.38,1.38,0,0,0-1.58-.64,1.39,1.39,0,0,0-1,1.34v6.62a1.39,1.39,0,0,0,2.61.7,1,1,0,0,1,1.28-.35.93.93,0,0,1,.34,1.29,3.27,3.27,0,0,1-6.1-1.64Z"/><path class="cls-1" d="M132.81,15.46V8.84a3.27,3.27,0,1,1,6.54,0v6.62a3.27,3.27,0,1,1-6.54,0Zm1.87-6.62v6.62a1.4,1.4,0,1,0,2.8,0V8.84a1.4,1.4,0,0,0-2.8,0Z"/><path class="cls-1" d="M141.14,17.8V6.5a.92.92,0,0,1,1.77-.38c.25.56.53,1.12.8,1.69.45,1,1,2.16,1.48,3.12.45-1,1-2.13,1.46-3.12.25-.57.52-1.13.8-1.69a.94.94,0,0,1,1.79.38V17.8a.94.94,0,0,1-1.87,0V10.69c-.33.7-.66,1.4-.92,1.93-.13.31-.29.6-.42.89a.92.92,0,0,1-.84.55.87.87,0,0,1-.86-.55c-.13-.29-.29-.58-.43-.89-.25-.53-.58-1.23-.89-1.93V17.8a.94.94,0,0,1-1.87,0Z"/><path class="cls-1" d="M151.26,17.8V6.5A.92.92,0,0,1,153,6.12c.26.56.53,1.12.8,1.69.45,1,1,2.16,1.48,3.12.45-1,1-2.13,1.46-3.12.26-.57.53-1.13.8-1.69a.94.94,0,0,1,1.79.38V17.8a.94.94,0,0,1-1.87,0V10.69l-.91,1.93c-.14.31-.3.6-.43.89a.92.92,0,0,1-.84.55.87.87,0,0,1-.86-.55c-.13-.29-.29-.58-.42-.89-.26-.53-.59-1.23-.9-1.93V17.8a.94.94,0,0,1-1.87,0Z"/><path class="cls-1" d="M161.38,17.8V6.5a.94.94,0,0,1,1.87,0V17.8a.94.94,0,0,1-1.87,0Z"/><path class="cls-1" d="M169.35,15.48a1.45,1.45,0,0,0-.41-1.17l-3.12-3.19a3.16,3.16,0,0,1-.91-2.53,3.22,3.22,0,0,1,1.28-2.36,3.35,3.35,0,0,1,2.63-.6A3.24,3.24,0,0,1,171,7.21a1,1,0,0,1-.35,1.28.92.92,0,0,1-1.26-.35,1.49,1.49,0,0,0-.94-.68,1.39,1.39,0,0,0-1.13.27,1.3,1.3,0,0,0-.54,1,1.3,1.3,0,0,0,.39,1.08L170.26,13a3.35,3.35,0,0,1-.37,5,3.34,3.34,0,0,1-4.94-1,.91.91,0,0,1,.33-1.29,1,1,0,0,1,1.28.35,1.51,1.51,0,0,0,1,.73,1.48,1.48,0,0,0,1.2-.3A1.42,1.42,0,0,0,169.35,15.48Z"/><path class="cls-1" d="M172.71,17.8V6.5a.94.94,0,0,1,1.87,0V17.8a.94.94,0,0,1-1.87,0Z"/><path class="cls-1" d="M176.37,15.46V8.84a3.28,3.28,0,0,1,6.55,0v6.62a3.28,3.28,0,0,1-6.55,0Zm1.87-6.62v6.62a1.41,1.41,0,1,0,2.81,0V8.84a1.41,1.41,0,0,0-2.81,0Z"/><path class="cls-1" d="M190.26,18.21c-.39-.84-.8-1.68-1.23-2.55-.72-1.48-1.66-3.37-2.45-5.07V17.8a.94.94,0,0,1-1.87,0V6.5a.9.9,0,0,1,.72-.91,1,1,0,0,1,1,.51c.39.83.8,1.67,1.22,2.55.73,1.48,1.62,3.37,2.46,5.06V6.5a.94.94,0,0,1,1.87,0V17.8a1,1,0,0,1-.72.92A.92.92,0,0,1,190.26,18.21Z"/><path class="cls-1" d="M198.12,15.48a1.45,1.45,0,0,0-.41-1.17l-3.11-3.19a3.14,3.14,0,0,1-.92-2.53A3.26,3.26,0,0,1,195,6.23a3.32,3.32,0,0,1,2.62-.6,3.24,3.24,0,0,1,2.18,1.58,1,1,0,0,1-.34,1.28.93.93,0,0,1-1.27-.35,1.46,1.46,0,0,0-.94-.68,1.38,1.38,0,0,0-1.12.27,1.28,1.28,0,0,0-.55,1,1.33,1.33,0,0,0,.39,1.08L199,13a3.35,3.35,0,0,1,1,2.61,3.36,3.36,0,0,1-6.27,1.44.92.92,0,0,1,.33-1.29,1,1,0,0,1,1.29.35,1.47,1.47,0,0,0,1,.73,1.49,1.49,0,0,0,1.21-.3A1.41,1.41,0,0,0,198.12,15.48Z"/><rect class="cls-2" x="106.38" y="13.35" width="10.63" height="10.63" transform="translate(223.4 37.33) rotate(-180)"/><rect class="cls-3" x="106.38" width="10.63" height="10.63" transform="translate(223.4 10.63) rotate(-180)"/><rect class="cls-2" x="92.45" width="10.63" height="10.63" transform="translate(195.54 10.63) rotate(180)"/><rect class="cls-3" x="92.45" y="13.35" width="10.63" height="10.63" transform="translate(195.54 37.33) rotate(180)"/></g></g></svg>