<svg xmlns="http://www.w3.org/2000/svg" viewBox="0 0 200 23.53"><defs><style>.cls-1{fill:#fff;}.cls-2{fill:#ef4136;}.cls-3{fill:#706f6f;}</style></defs><title>logo-cc</title><g id="Layer_2" data-name="Layer 2"><g id="Capa_1" data-name="Capa 1"><path class="cls-1" d="M0,17.46V6.38a.91.91,0,0,1,.92-.92.91.91,0,0,1,.91.92V17.46a.9.9,0,0,1-.91.92A.91.91,0,0,1,0,17.46Z"/><path class="cls-1" d="M9.26,17.86c-.38-.82-.78-1.64-1.2-2.5-.71-1.45-1.62-3.3-2.41-5v7.07a.92.92,0,1,1-1.83,0V6.38a.89.89,0,0,1,.71-.9.93.93,0,0,1,1,.5c.38.82.78,1.64,1.2,2.5.71,1.46,1.59,3.31,2.41,5V6.38a.92.92,0,1,1,1.83,0V17.46a.92.92,0,0,1-.7.9A.9.9,0,0,1,9.26,17.86Z"/><path class="cls-1" d="M19,6.46a.91.91,0,0,1-.91.92H16.54V17.46a.92.92,0,1,1-1.83,0V7.38H13.14a.92.92,0,0,1,0-1.84h5A.9.9,0,0,1,19,6.46Z"/><path class="cls-1" d="M21.16,5.54H25a.92.92,0,1,1,0,1.84h-2.9v3.43H24.6a.92.92,0,0,1,0,1.84H22.08v3.82H25a.92.92,0,1,1,0,1.83H21.16a.91.91,0,0,1-.92-.91V6.46A.91.91,0,0,1,21.16,5.54Z"/><path class="cls-1" d="M27.27,17.39v-11a.92.92,0,1,1,1.84,0V16.47H32a.92.92,0,1,1,0,1.83H28.19A.9.9,0,0,1,27.27,17.39Z"/><path class="cls-1" d="M33.92,17.39v-11a.92.92,0,1,1,1.83,0V16.47h2.91a.92.92,0,0,1,0,1.83H34.84A.9.9,0,0,1,33.92,17.39Z"/><path class="cls-1" d="M40.57,17.46V6.38a.92.92,0,1,1,1.83,0V17.46a.92.92,0,1,1-1.83,0Z"/><path class="cls-1" d="M50.58,12.11v3.06a3.21,3.21,0,1,1-6.42,0V8.67a3.16,3.16,0,0,1,2.38-3.09,3.22,3.22,0,0,1,3.62,1.49,1,1,0,0,1-.35,1.26A.9.9,0,0,1,48.57,8,1.39,1.39,0,0,0,46,8.67v6.5a1.39,1.39,0,0,0,1.38,1.38,1.37,1.37,0,0,0,1.37-1.38V13h-1a.92.92,0,1,1,0-1.83h1.91A.91.91,0,0,1,50.58,12.11Z"/><path class="cls-1" d="M53.17,5.54H57a.92.92,0,1,1,0,1.84h-2.9v3.43h2.52a.92.92,0,1,1,0,1.84H54.09v3.82H57a.92.92,0,1,1,0,1.83H53.17a.91.91,0,0,1-.92-.91V6.46A.91.91,0,0,1,53.17,5.54Z"/><path class="cls-1" d="M64.73,17.86c-.38-.82-.79-1.64-1.21-2.5-.7-1.45-1.62-3.3-2.4-5v7.07a.92.92,0,1,1-1.84,0V6.38a.89.89,0,0,1,.71-.9A.93.93,0,0,1,61,6c.38.82.79,1.64,1.21,2.5.7,1.46,1.58,3.31,2.4,5V6.38a.92.92,0,1,1,1.84,0V17.46a.92.92,0,0,1-.71.9A.89.89,0,0,1,64.73,17.86Z"/><path class="cls-1" d="M68.22,15.17V8.67a3.21,3.21,0,0,1,6-1.6.9.9,0,0,1-.32,1.26A.93.93,0,0,1,72.62,8a1.34,1.34,0,0,0-1.55-.63,1.36,1.36,0,0,0-1,1.31v6.5a1.37,1.37,0,0,0,2.56.69,1,1,0,0,1,1.26-.35.91.91,0,0,1,.32,1.27,3.21,3.21,0,0,1-6-1.61Z"/><path class="cls-1" d="M76.72,5.54h3.82a.92.92,0,1,1,0,1.84h-2.9v3.43h2.52a.92.92,0,1,1,0,1.84H77.64v3.82h2.9a.92.92,0,1,1,0,1.83H76.72a.9.9,0,0,1-.92-.91V6.46A.91.91,0,0,1,76.72,5.54Z"/><path class="cls-1" d="M122.94,15.17V8.67a3.21,3.21,0,0,1,6-1.6.91.91,0,0,1-.33,1.26A.94.94,0,0,1,127.33,8a1.33,1.33,0,0,0-1.55-.63,1.36,1.36,0,0,0-1,1.31v6.5a1.37,1.37,0,0,0,2.56.69,1,1,0,0,1,1.26-.35.92.92,0,0,1,.33,1.27,3.21,3.21,0,0,1-6-1.61Z"/><path class="cls-1" d="M137,18.34a.9.9,0,0,1-1.13-.63c-.06-.15-.09-.34-.15-.55-.1-.37-.25-.86-.4-1.46H132c-.17.6-.31,1.09-.4,1.46-.06.21-.1.4-.15.55a.91.91,0,0,1-1.76-.5l3.05-11.08a.91.91,0,0,1,1.76,0l3.06,11.08A.91.91,0,0,1,137,18.34Zm-3.31-8.5c-.36,1.24-.74,2.71-1.1,4h2.21C134.4,12.55,134,11.08,133.65,9.84Z"/><path class="cls-1" d="M138.77,17.39v-11a.92.92,0,0,1,1.84,0V16.47h2.9a.92.92,0,1,1,0,1.83h-3.82A.9.9,0,0,1,138.77,17.39Z"/><path class="cls-1" d="M145.42,17.39v-11a.92.92,0,1,1,1.83,0V16.47h2.91a.92.92,0,0,1,0,1.83h-3.83A.9.9,0,0,1,145.42,17.39Z"/><path class="cls-1" d="M155.5,15.17V8.67a3.21,3.21,0,0,1,6-1.6.9.9,0,0,1-.32,1.26A.93.93,0,0,1,159.9,8a1.34,1.34,0,0,0-1.55-.63,1.36,1.36,0,0,0-1,1.31v6.5a1.37,1.37,0,0,0,2.56.69,1,1,0,0,1,1.26-.35.91.91,0,0,1,.32,1.27,3.21,3.21,0,0,1-6-1.61Z"/><path class="cls-1" d="M164,5.54h3.82a.92.92,0,0,1,0,1.84h-2.9v3.43h2.52a.92.92,0,0,1,0,1.84h-2.52v3.82h2.9a.92.92,0,1,1,0,1.83H164a.9.9,0,0,1-.92-.91V6.46A.91.91,0,0,1,164,5.54Z"/><path class="cls-1" d="M175.56,17.86c-.38-.82-.79-1.64-1.21-2.5-.7-1.45-1.62-3.3-2.4-5v7.07a.92.92,0,1,1-1.84,0V6.38a.89.89,0,0,1,.71-.9.93.93,0,0,1,1,.5c.38.82.78,1.64,1.2,2.5.71,1.46,1.59,3.31,2.41,5V6.38a.92.92,0,0,1,1.84,0V17.46a.92.92,0,0,1-.71.9A.89.89,0,0,1,175.56,17.86Z"/><path class="cls-1" d="M185.32,6.46a.91.91,0,0,1-.92.92h-1.57V17.46a.92.92,0,1,1-1.83,0V7.38h-1.57a.92.92,0,0,1,0-1.84h5A.91.91,0,0,1,185.32,6.46Z"/><path class="cls-1" d="M187.45,5.54h3.82a.92.92,0,0,1,0,1.84h-2.9v3.43h2.52a.92.92,0,0,1,0,1.84h-2.52v3.82h2.9a.92.92,0,1,1,0,1.83h-3.82a.9.9,0,0,1-.91-.91V6.46A.9.9,0,0,1,187.45,5.54Z"/><path class="cls-1" d="M198.27,12.67l1.66,4.47a.88.88,0,0,1-.54,1.18.92.92,0,0,1-1.18-.53L196.43,13h-1v4.43a.92.92,0,1,1-1.83,0v-11a.9.9,0,0,1,.91-.92h2.3A3.2,3.2,0,0,1,200,8.75V9.82A3.16,3.16,0,0,1,198.27,12.67Zm-1.49-1.47a1.37,1.37,0,0,0,1.37-1.38V8.75a1.37,1.37,0,0,0-1.37-1.37H195.4V11.2Z"/><rect class="cls-2" x="104.37" y="13.1" width="10.43" height="10.43" transform="translate(219.17 36.62) rotate(-180)"/><rect class="cls-2" x="104.37" width="10.43" height="10.43" transform="translate(219.17 10.43) rotate(-180)"/><rect class="cls-2" x="90.7" width="10.43" height="10.43" transform="translate(191.84 10.43) rotate(180)"/><rect class="cls-3" x="90.7" y="13.1" width="10.43" height="10.43" transform="translate(191.84 36.62) rotate(180)"/></g></g></svg>