<?xml version="1.0" encoding="utf-8"?>
<!-- Generator: Adobe Illustrator 24.0.0, SVG Export Plug-In . SVG Version: 6.00 Build 0)  -->
<svg version="1.1" id="Layer_1" xmlns="http://www.w3.org/2000/svg" xmlns:xlink="http://www.w3.org/1999/xlink" x="0px" y="0px"
	 viewBox="0 0 340 310.6" style="enable-background:new 0 0 340 310.6;" xml:space="preserve">
<style type="text/css">
	.st0{fill-rule:evenodd;clip-rule:evenodd;fill:#33E1FF;}
	.st1{fill-rule:evenodd;clip-rule:evenodd;fill:#6BB7BF;}
	.st2{fill-rule:evenodd;clip-rule:evenodd;fill:#86D1CD;}
	.st3{fill-rule:evenodd;clip-rule:evenodd;fill:#F1A34F;}
	.st4{fill-rule:evenodd;clip-rule:evenodd;fill:#DB7714;}
	.st5{fill-rule:evenodd;clip-rule:evenodd;fill:#5685D8;}
	.st6{fill-rule:evenodd;clip-rule:evenodd;fill:#739AF0;}
	.st7{fill-rule:evenodd;clip-rule:evenodd;fill:#F99746;}
	.st8{fill:#202537;}
	.st9{fill:none;}
	.st10{filter:url(#Adobe_OpacityMaskFilter);}
	.st11{fill:#FFFFFF;}
	.st12{mask:url(#mask-2_2_);}
	.st13{fill-rule:evenodd;clip-rule:evenodd;fill:#FFAB42;}
	.st14{fill-rule:evenodd;clip-rule:evenodd;fill:#FFCC5E;}
</style>
<g>
	<path class="st0" d="M143.7,45.6c-1.8,0.1-2.2,0.3-1.5,0.7c1.1,0.8,3.7,0.9,6.9,0.3c2.9-0.5,3-0.5,3.1-0.3c0.2,0.2-1.8,3.8-2.3,4.1
		l-0.4,0.3l0.5,0.2c0.3,0.1,0.7,0.1,1-0.1c0.3-0.2,0.6-0.3,0.8-0.4c0.3-0.2,0.7-0.7,2.1-3c0.5-0.9,1-1.6,1.1-1.5
		c0.1,0.1,1.1,3.7,1.4,5c0.1,0.5,1.4,4.6,2.2,6.8c0.7,2.2,1.3,3,1,1.3c-0.1-0.5-0.2-1.1-0.1-1.3c0.1-0.3-1.2-7.8-1.7-10
		c-0.1-0.5-0.2-0.9-0.1-0.9c0.1,0,0.2,0,0.2,0.2c0,0.1,0.2,0.2,0.4,0.2c0.2,0,1.3,0.4,2.4,1c1.1,0.5,2,0.9,2.1,0.8
		c0.1-0.1,0.1-0.4,0-0.7c-0.1-0.4-0.6-0.8-2.3-1.7c-1.1-0.6-2-1.2-1.8-1.3c0.2,0,1.2-0.1,2.3-0.2c2.2-0.2,5.2-0.9,6-1.4
		c1-0.7,0.3-0.9-1.7-0.5c-1,0.2-3,0.3-4.3,0.4c-1.4,0-2.8,0.1-3.2,0.2c-0.6,0.1-0.8,0-1-0.4c-0.1-0.3-0.1-0.6,0-0.6
		c0.4-0.1,2.4-4.3,2.4-5.1c0-0.8,0-0.8-0.4-0.4c-0.3,0.2-1,1-1.6,1.8l-1.1,1.4l-1.2-5.2c-1.7-7.2-2.5-8.9-3.9-8.2l-0.5,0.3l0.7,2.3
		c0.9,3,1.9,7.3,2.4,10.1l0.4,2.2l-1.1-1.4c-1.5-1.8-3.5-3.1-4.3-2.7c-0.3,0.1-0.5,0.3-0.5,0.4c0.1,0.3,3.8,4.5,4.6,5.2l0.9,0.8
		l-2.8,0.5C147.7,45.3,146,45.5,143.7,45.6L143.7,45.6z"/>
	<path class="st0" d="M170.1,260.1c0.1,0,0.2-0.1,0.2-0.2c0-0.2-1.7-1-2.1-1c-0.4,0-1-1.3-1.5-2.8c-0.2-0.6-0.4-1.1-0.4-1.1
		c-0.1-0.1-0.6-1.6-1.1-3.5c-0.5-1.9-1-3.4-1.1-3.3c-0.1,0.1-0.3-0.3-0.4-0.9c-0.3-0.9-0.9-1.8-1.2-1.7c-0.7,0,1.9,12.2,3.2,14.9
		c0.5,1,0.8,1.3,1.5,1.6c0.5,0.3,1,0.3,1.3,0.2c0.6-0.2,1.7-1.5,1.6-1.8C169.9,260.3,170,260.1,170.1,260.1z"/>
	<path class="st0" d="M190.8,266.8c6.3,1.6,12.1,3,14.5,3.5c3.9,0.8,4.8,1.6,3,2.4c-1.3,0.7-3.6,1.6-5.3,2.1
		c-0.7,0.2-2.1,0.7-2.9,1.1c-0.9,0.4-2.8,1.2-4.3,1.8c-1.5,0.6-3.8,1.5-5,2c-2.4,1-4.5,1.7-5.2,1.7c-0.6,0-1.9,1.4-1.8,2
		c0,0.3-0.3,2.1-0.6,4.1c-0.3,1.9-0.7,4.3-0.8,5.3c-0.3,2.6-0.8,4.9-1.6,7.4c-0.4,1.4-0.8,2.7-0.8,3.5c0,1-0.2,1.3-0.6,1.7
		c-1,1-1.8,0.6-1.9-0.7c0-0.5-0.2-1.3-0.4-1.7c-0.2-0.5-0.8-2.1-1.2-3.6c-0.4-1.5-1-3.4-1.3-4.2c-0.3-0.8-0.6-2-0.8-2.7
		c-0.3-1.3-0.5-1.9-1.3-4.1c-0.3-0.7-0.8-2.4-1.2-3.8c-1.1-3.5-1.2-4.3-1.7-4.5c-0.2-0.1-0.4-0.1-0.8-0.1c-2-0.3-8.2-1.2-11.2-1.7
		c-4.3-0.8-5.6-1-7.1-1c-0.7-0.1-1.6-0.2-2-0.3c-0.9-0.3-1.9-1.1-1.9-1.6c0-0.2,0.1-0.5,0.1-0.6c0-0.1,0.5-0.3,1.2-0.5
		c2.1-0.6,8.9-3.4,11.6-4.9c0.7-0.4,2.2-1,3.2-1.4c1.8-0.7,3.4-1.3,5.9-2.5l1.2-0.6l0.9-3.8c0.5-2,1-4.4,1.1-5.2
		c0.2-0.8,0.5-2.2,0.9-3.1c1-3,2.8-9,3.3-11.1c0.2-0.9,0.6-1.4,1.3-1.4c0.6,0,1,0.6,1.2,2.2c0.3,2.6,1,5.9,1.6,7.7
		c0.3,0.9,0.8,2.5,1.1,3.7c0.3,1.1,0.8,2.7,1,3.4c0.2,0.7,0.5,2.1,0.7,3.2c0.6,3.7,1,5.1,1.3,5.2c0.2,0.1,1,0.2,1.9,0.3
		S189,266.3,190.8,266.8z M180.3,260.5c0-0.4-0.1-0.6-0.1-0.4c0,0.2,0,0.6,0,0.8C180.3,261.1,180.4,260.9,180.3,260.5z M171.9,265.8
		c-0.3-0.2-0.4-0.3-0.3-0.6c0.2-0.3,0.3-0.3,0.6,0.1C173,265.9,172.8,266.2,171.9,265.8z M173.4,268.1c0,0.1,0.2,0.3,0.3,0.4
		c0.2,0.2,0.3,0.2,0.3,0.1c0-0.1-0.2-0.3-0.3-0.4C173.6,268,173.4,268,173.4,268.1z M188.7,268.3c0,0.3,1.3,0.9,1.8,0.8
		c0.6-0.2,0.3-0.5-0.5-0.7c-0.5-0.1-1-0.2-1.1-0.3C188.7,268.1,188.7,268.2,188.7,268.3z M198.1,270.8c-0.4,0-0.8,0-0.8-0.2
		s0.1-0.2,0.3-0.2c0.2,0,0.5,0.1,0.8,0.2C198.9,270.7,198.8,270.8,198.1,270.8z M179.8,270.9c0.1-0.1,0.3,0,0.3,0.2
		c0.1,0.2,0,0.3-0.2,0.3C179.6,271.5,179.5,271.1,179.8,270.9z M165.3,271.8c0-0.1,0.3-0.3,0.7-0.5c0.7-0.3,0.7-0.3,1.2,0l0.5,0.4
		l-1.2,0.1C165.8,271.9,165.3,271.8,165.3,271.8z M200.9,272.9c-0.3,0.3,0.2,0.3,1,0.2l0.8-0.2l-0.8,0
		C201.3,272.8,200.9,272.9,200.9,272.9z M185.4,274.3c0,0,0.3-0.1,0.9-0.6c0.4-0.3,0.3-0.6-0.3-0.3c-0.2,0.1-0.4,0.3-0.5,0.6
		C185.4,274.2,185.3,274.3,185.4,274.3z M179.8,274.8l0.6-0.6c0.3-0.3,0.6-0.6,0.6-0.7s-0.5-0.1-1.1,0l-1.1,0.1l0.5,0.6L179.8,274.8
		z M153.9,275.3c0,0.1,0.4,0.1,1,0c1.8-0.3,1.8-0.7,0.1-0.4C154.4,275,153.9,275.1,153.9,275.3z M195.7,275.4
		c-0.4,0.4-0.2,0.5,0.4,0.2c0.3-0.2,0.4-0.3,0.2-0.3C196.1,275.2,195.8,275.3,195.7,275.4z M192.5,276.9c-0.3,0.1-0.3,0.1-0.1-0.1
		c0.1-0.2,0.3-0.2,0.4-0.2C192.8,276.7,192.7,276.8,192.5,276.9z M167.9,277.5c0.2,0,0.6,0,0.8,0.1c0.3,0.1,0.3,0.1,0.1-0.3
		c-0.1-0.3-0.3-0.5-0.4-0.5s-0.3,0.1-0.5,0.3C167.4,277.5,167.5,277.6,167.9,277.5z M189.2,278l-0.6,0.2l0.5-0.6
		c0.5-0.6,0.6-0.6,1-0.3c0.2,0.1,0.3,0.2,0.3,0.3C190.4,277.6,190.1,277.7,189.2,278z M184.6,279.2c-0.5,0.1-1.3-0.3-1.3-0.6
		c0-0.3,0.8-0.4,1.5-0.2C185.7,278.8,185.7,279,184.6,279.2z M176.7,290.2c-0.1-0.2-0.1-0.3,0-0.4c0.1-0.1,0.1,0.1,0.1,0.3
		C176.8,290.3,176.7,290.4,176.7,290.2z"/>
	<path class="st0" d="M199.1,285.8c-1.3-0.3-3-0.9-3.8-1.2c-2-0.7-5.1-1.2-5.4-0.9c-0.7,0.6,0.1,1.4,1.7,1.7c0.4,0.1,2,0.5,3.6,0.9
		c2.7,0.8,5.2,1.1,5.9,0.8C201.9,286.7,201.3,286.4,199.1,285.8L199.1,285.8z"/>
	<path class="st0" d="M188.8,262.5c0,0.1,0.2,0.4,0.4,0.7c0.4,0.4,0.6,0.5,1.9,0.4c1,0,2-0.3,3.2-0.7c1-0.3,2.5-0.8,3.4-1
		c1.7-0.3,2.8-0.7,3-1.1c0.4-0.7-0.1-0.8-2.9-0.5C194.6,260.6,188.8,262,188.8,262.5L188.8,262.5z"/>
	<path class="st0" d="M189.7,298.1c0.5,0.7,0.7,0.9,0.9,0.6c0.2-0.1,0.3-0.5,0.3-0.8c0.1-0.7,0-1-0.7-3.1c-0.8-2.2-2-5.9-2.3-7
		c-0.3-1-0.9-1.7-1.8-1.9c-1.3-0.4-1.4,0.3-0.4,3.5C186.2,291,188.9,297,189.7,298.1L189.7,298.1z"/>
	<path class="st0" d="M200.3,292.7c-1-0.7-2.4-1.8-2.8-2.4c-0.7-1-3.4-1.5-3.4-0.6c0,0.7,2.3,2.7,4.1,3.7c1.4,0.8,2.1,1,2.6,0.8
		C201.4,293.9,201.1,293.3,200.3,292.7L200.3,292.7z"/>
	<path class="st0" d="M193,256.8c0.8-0.1,1.1-0.3,1.7-0.8c0.8-0.9,2.9-3.6,2.8-3.8c0-0.1,0.2-0.5,0.5-1c0.3-0.4,0.5-1,0.6-1.2
		c0.1-0.6,0-1-0.3-1.1c-0.2,0-1.5,1.2-2.9,2.8s-3.1,3.2-3.6,3.6C190.4,256.3,191,257,193,256.8L193,256.8z"/>
	<path class="st0" d="M186,254.1c-0.2,1-0.7,3.1-1,4.5c-0.3,1.5-0.6,2.8-0.6,2.9c0,0.4,0.8,1,1.3,0.9c1.1-0.1,1.6-0.4,1.7-1.3
		c0.1-0.4,0.3-1.8,0.4-3s0.3-3,0.3-3.9s0-1.8,0.1-1.9c0.1-0.2-0.3-3.9-0.4-4.1C187.5,247.7,187.1,249,186,254.1L186,254.1z"/>
	<path class="st0" d="M164.9,282.4c-0.5-0.2-0.7-0.2-2,0.6c-0.8,0.5-2.5,1.5-3.9,2.3c-4,2.4-7.3,4.5-7.3,4.7c0,0.3,1.4-0.1,3.2-0.8
		c3.1-1.2,8.2-3.8,10.6-5.5C165.8,283.5,165.5,282.7,164.9,282.4L164.9,282.4z"/>
	<path class="st0" d="M150.8,258.4c0,0.1-0.3,0-0.7-0.2c-0.4-0.2-0.9-0.3-1.1-0.4c-0.2,0-0.6-0.2-0.9-0.3c-0.6-0.3-0.7-0.3-0.6,0.1
		c0.1,1.1,8,5.5,12.1,6.7c2.2,0.6,5.2,0.7,5.8,0.1c0.7-0.8,0.2-1.2-1.6-1.4c-2.7-0.2-3.9-0.6-9.1-3
		C152.5,259,150.8,258.3,150.8,258.4L150.8,258.4z"/>
	<path class="st0" d="M162.8,289.9c0.4-0.2,0.4-0.4-0.2-1c-0.7-0.7-1.7-0.5-2.6,0.3c-0.4,0.4-0.8,0.9-0.8,1.1
		c-0.1,0.5-0.9,2.4-2.1,5.2c-0.4,1-0.7,1.9-0.6,2c0.3,0.2,1.2-0.3,1.3-0.7c0.1-0.2,0.2-0.3,0.3-0.3s0.3-0.1,0.4-0.4
		C161.1,291.9,162.4,290.1,162.8,289.9L162.8,289.9z"/>
	<path class="st0" d="M165.4,296.5c0.6,0,1.6-1.7,1.8-3.2c0.1-0.4,0.3-1,0.4-1.3c0.2-0.3,0.3-0.8,0.3-1.1s0.2-1.3,0.5-2.2
		c0.3-0.9,0.5-1.8,0.4-2.1c-0.1-0.6-1.2-1.2-1.7-0.9c-0.5,0.3-1.3,3.4-1.6,6C165.1,295.6,165.1,296.5,165.4,296.5L165.4,296.5z"/>
	<path class="st0" d="M155.4,252.4c0,0.5,2.7,4.9,3.3,5.5c0.9,0.8,2.3,1,2.9,0.5c0.4-0.4,0.3-1-0.3-1.4c-0.3-0.2-0.9-0.8-1.4-1.5
		c-0.5-0.6-1-1.3-1-1.4c-0.1-0.1-0.6-1-1.2-1.9s-1.1-1.6-1.2-1.6s-0.4-0.2-0.6-0.5c-0.5-0.7-1.6-1.6-2-1.6c-0.3,0-0.2,0.2,0.9,2.4
		C155.1,251.7,155.4,252.3,155.4,252.4z"/>
	<path class="st0" d="M28,103.1c-0.4,0-1.1,0.4-1.1,0.8c0,0.6,1.5,1,1.9,0.4C29,103.8,28.6,103.1,28,103.1z"/>
	<path class="st0" d="M39.8,118.7c-0.6,0-1.4,0.3-1.4,0.6c0,0.7,1.3,1.2,1.8,0.7C40.8,119.5,40.5,118.7,39.8,118.7z"/>
	<path class="st0" d="M19.4,108.9c-0.5-0.1-1.1,0-1.1,0.2c0,0.1,0.3,0.3,0.7,0.4c0.7,0.3,2.8,0.3,10.1,0.2c2.4,0,4.4,0,4.4,0
		s-0.7,1-1.6,2.1c-0.9,1.1-1.6,2.1-1.6,2.3c0.1,0.2-0.4,0.9-1.1,1.6c-1.4,1.7-2.9,3.5-2.9,3.8c0,0.1,0.5-0.2,1.2-0.8
		c0.7-0.5,1.6-1.1,2.1-1.4c0.5-0.3,0.9-0.6,0.9-0.7s0.2-0.2,0.3-0.2s0.3-0.1,0.4-0.2c0-0.1,0.8-1,1.7-2.1l1.7-1.9l0.2,2.5
		c0.1,1.4,0.3,3.5,0.4,4.8c0.1,1.2,0.3,2.7,0.3,3.3c0.1,1.7,0.2,1.7,0.8,1.2c1-0.9,1.1-1.9,1-6.4c0-2.3-0.1-4.5,0-4.8l0-0.7l1.5,1.7
		c0.8,0.9,1.5,1.6,1.6,1.6s0.5,0.3,1,0.8c0.9,0.9,1.5,1.2,1.7,1c0.1-0.1,0-0.4-0.2-0.7c-0.2-0.3-0.3-0.6-0.3-0.8s-0.4-0.8-1-1.4
		c-1.6-1.8-3.1-3.9-3.1-4.2c0-0.2,0.4-0.3,1.3-0.2c1.5,0,2.2,0,4.2-0.3c0.8-0.1,2.9-0.1,4.7-0.1c1.9,0.1,3.5,0,3.8-0.1
		c0.7-0.3,0.7-0.5-0.2-0.8c-2.2-0.8-6-1-11.8-0.8c-1.1,0.1-1.6,0-1.5-0.2c0-0.3,0.8-1.1,4-4.3c1-1,2.1-2.2,2.3-2.6
		c0.5-0.9,0.9-1.5,1.1-1.7c0.3-0.2,0.4-1,0.2-1c-0.1,0-2,1.6-4.1,3.5c-2.1,1.9-3.9,3.4-3.9,3.4c-0.1-0.1,0.5-4.5,1-7.3
		c0.5-2.9,1-7.8,0.9-8.3c-0.1-0.6-0.8,0.4-1.3,1.8c-0.6,2.1-2.4,9.5-2.6,11.1c0,0.3-0.2,1-0.3,1.7c-0.3,1.7-0.4,2.8-0.4,3.3
		c0,0.6-1.2-1.3-1.8-2.8c-1.2-3.2-1.5-3.8-1.7-3.8c-0.1,0-0.5-0.5-0.8-1.1c-1-2.2-1.7-2.6-1.1-0.7c0.2,0.6,0.3,1.3,0.4,1.7
		c0.1,1,1.3,4.6,2,6c0.3,0.7,0.5,1.2,0.3,1.2c-1,0-6.7,0.4-8,0.7C24.1,108.5,19.8,109,19.4,108.9L19.4,108.9z"/>
	<path class="st0" d="M33,120.7c1.2-0.5,0.2-1.7-1-1.3c-0.7,0.3-0.7,0.8,0,1.2C32.3,120.9,32.6,120.9,33,120.7z"/>
	<path class="st0" d="M41.9,99.1c-0.4-0.3-0.6-0.3-0.9,0c-0.2,0.2-0.3,0.5-0.2,0.6c0.2,0.4,0.9,0.7,1.3,0.4
		C42.6,99.8,42.5,99.4,41.9,99.1z"/>
	<path class="st0" d="M45.9,103.9c-0.7-0.2-1.3,0.1-1.3,0.7c0,0.7,0.5,0.9,1.4,0.6C46.7,104.9,46.7,104.1,45.9,103.9z"/>
	<path class="st0" d="M45.2,111.9c0.5-0.1,0.5-0.9,0-1.2c-0.5-0.3-1.5,0.1-1.5,0.6C43.7,111.8,44.5,112.1,45.2,111.9z"/>
	<path class="st0" d="M35.3,101.3c0,0.1,0.2,0,0.3-0.3c0.4-0.6,0.4-0.6,0.2-1c-0.1-0.2-0.5-0.3-0.9-0.3c-0.7-0.1-0.7,0-0.7,0.6
		c0,0.5,0.1,0.7,0.6,0.7C35,101,35.3,101.1,35.3,101.3z"/>
	<path class="st0" d="M26.3,113.2c0.3-0.2,0.4-0.4,0.3-0.8c-0.2-0.9-0.4-1-1.1-0.7c-1.2,0.6-1.3,1.1-0.3,1.6
		C25.7,113.4,25.9,113.3,26.3,113.2z"/>
	<path class="st0" d="M208.2,236.1c-1.5,0.3-2,0.9-1.7,2.3c0.2,0.9,1.6,2.2,2.4,2.2c1,0,2.2-0.4,2.5-0.9c0.2-0.3,0.3-0.7,0.3-0.9
		C211.7,237.5,209.5,235.8,208.2,236.1L208.2,236.1z"/>
	<path class="st0" d="M14.6,246c0-2.2,0.3-2.8,1.8-3.5c2.2-1.1,4.2,0.5,4.4,3.6c0,0.7,0,1.3,0,1.4s-0.2,0.8-0.4,1.4
		c-0.4,1.3-0.5,1.5-2.2,1.6c-0.9,0.1-1.2,0-1.9-0.5C14.9,249,14.6,248.2,14.6,246z M18,246.4c-0.1,0.2-0.1,0.4,0,0.5
		c0,0,0,0.1,0,0.1c0,0,0-0.1,0-0.3C18.1,246.4,18,246.3,18,246.4z"/>
	<path class="st0" d="M93.8,148.4c-0.5,0.2-1.1,0.6-1.4,0.9c-0.4,0.4-0.5,0.7-0.4,1.7c0.1,1.6,0.8,2.3,2.4,2.4c1,0.1,1.2,0,1.8-0.5
		c0.6-0.5,0.7-0.7,0.7-1.9c0-1.6-0.3-2.1-1.5-2.6C94.8,148.1,94.6,148.1,93.8,148.4z"/>
	<path class="st0" d="M303.7,266.9c0.8,0.2,2.2,1.4,3.9,3.4c2.3,2.8,2.6,3.4,2.6,5.5c0,1,0,2,0,2.3c-0.6,3.2-3.1,5.2-6.7,5.5
		c-1.6,0.1-1.8,0.1-2.8-0.5c-3-1.6-4.6-4.5-4.6-8.5c0-1.7,0.3-4,0.7-4.4c0.1-0.2,0.1-0.3,0.1-0.5c-0.3-0.5,2.8-2.4,4.1-2.4
		c0.4,0,0.7-0.1,0.8-0.2C301.8,267,302.9,266.8,303.7,266.9z M303.5,282.4c0.4,0,1-0.1,1.3-0.2c0.5-0.1,0.5-0.2-0.2-0.2
		c-0.4,0-1,0-1.3,0.2C302.7,282.3,302.8,282.4,303.5,282.4z"/>
	<path class="st0" d="M98.5,280.6c1,0,2.2-0.4,2.5-0.9c0.2-0.3,0.3-0.7,0.3-0.9c0-1.3-2.2-3-3.5-2.7c-1.5,0.3-2,0.9-1.7,2.3
		C96.3,279.3,97.7,280.7,98.5,280.6z"/>
	<path class="st0" d="M275,174.5c-0.9-0.9-0.9-0.9-1.9-0.7c-0.7,0.2-1.1,0.4-1.4,0.8c-0.5,0.7-0.5,1.2,0,2c0.3,0.5,0.6,0.7,1.6,0.9
		c1.1,0.3,1.3,0.3,1.7-0.1c0.3-0.2,0.6-0.6,0.7-0.8C276,175.9,275.9,175.4,275,174.5z"/>
	<path class="st0" d="M223.7,125.6c1.9,0,3-0.9,3.5-3c0.6-2.3-0.7-5.3-2.4-5.7c-0.7-0.2-3.4,0.4-4.2,0.9c-1.5,1-1.9,2.4-1.2,4.5
		S221.6,125.6,223.7,125.6L223.7,125.6z"/>
	<path class="st0" d="M238.4,261.6c-1.8,0.3-2.9,2-1.8,2.9c0.6,0.5,2.2,1,2.7,0.9c0.6-0.2,1.2-0.7,1.4-1.3c0.3-0.6,0.2-0.9-0.1-1.6
		C240.2,261.7,239.6,261.4,238.4,261.6z"/>
	<path class="st0" d="M38.4,58c0.7,2.1,2.2,3.3,4.3,3.3c1.9,0,3-0.9,3.5-3c0.6-2.3-0.7-5.3-2.4-5.7c-0.7-0.2-3.4,0.4-4.2,0.9
		C38.1,54.4,37.7,55.9,38.4,58z"/>
	<path class="st0" d="M318.5,97.1c-0.3-0.7-0.7-1.6-0.9-2c-0.3-1.1-1.3-1.7-2.2-1.3c-0.3,0.1-0.8,0.3-1,0.4
		c-0.4,0.2-0.4,0.4-0.6,2.4c-0.1,1.2-0.3,2.5-0.3,2.9l-0.2,0.6l-2.1-0.1c-1.5-0.1-2.3,0-2.8,0.2c-1.3,0.6-1.3,0.6-0.4,1.4
		c0.9,0.7,3.3,2.1,4.2,2.3c0.5,0.1,0.5,0.3,0,4.5c-0.2,2.1-0.2,2.1,0.3,2.5c0.4,0.3,0.7,0.4,1.3,0.3c0.6-0.1,0.9-0.3,1.7-1.7l1-1.6
		l0.5,1c0.8,1.6,1.4,2.3,2.2,2.3c1,0.1,1.2-0.3,1.2-2.3v-1.7l1.4,0.8c1.1,0.7,1.6,0.8,2.2,0.7c0.4-0.1,0.9-0.3,1-0.4
		c0.1-0.2,0.2-0.5,0.3-0.7c0-0.5-1-2-2.4-3.3c-1.9-1.8-1.9-1.7-0.8-2.8c0.5-0.5,1.4-1.5,1.8-2.3s1-1.5,1.2-1.7
		c0.8-0.9-0.5-1.8-1.8-1.2c-0.3,0.1-0.6,0.3-0.7,0.3s-0.7,0.3-1.4,0.8C319.4,98.5,319.3,98.5,318.5,97.1L318.5,97.1z"/>
</g>
<g>
	<g>
		<path class="st1" d="M18.9,83.4c0,0,3.2,4.4,2.9,9.5c-0.3,3.8-3.6,7.6-3.8,7.7l5.3,2.8c0,0,3.9-7,2.6-12.8
			c-0.4-1.8-2.3-4.7-3.7-5.9C20.7,83.4,18.9,83.4,18.9,83.4z"/>
		<path class="st2" d="M8.1,83.9l-3.3-7.4c0,0,15.7,0.5,20.9,13.3C25.6,89.8,14.7,82,8.1,83.9z"/>
	</g>
	<g>
		<path class="st1" d="M8.9,272.8c0,0-3.7-2.8-4.7-7c-0.7-3.1,1.1-7.1,1.2-7.2l-5-1c0,0-1.5,6.6,1,11.1c0.8,1.4,3,3.2,4.4,3.9
			C7.5,273.3,8.9,272.8,8.9,272.8z"/>
		<path class="st2" d="M17.6,269.8l4.6,5.2c0,0-12.9,3.4-20.2-5.7C1.9,269.3,12.8,272.9,17.6,269.8z"/>
	</g>
	<g>
		<path class="st3" d="M321.8,297c0,0-0.3-4.9,8.9-7.3c4.1-1.1,13.3,0.8,7.5,9.8c-6,9.4-11.4,6-11.4,6s12.6-9.9,7.6-14.4
			c-5.6-5-7.7,4.9-7.7,4.9S324.3,296,321.8,297L321.8,297z"/>
		<path class="st4" d="M323,300.2c-1.4,4.1,2.1,6,2.1,6c1,0.8,4.4,0.1,5.4-0.1c0.1,0,0.2,0,0.3,0c-4.7-0.6-2.7-5-2.7-5L323,300.2z"
			/>
	</g>
	<g>
		<path class="st5" d="M182.8,43.6c0,0,5.1-7.4,13-2.1l4.8-4.6c0,0-4.5-3.4-14.8,2.7C179,43.6,182.8,43.6,182.8,43.6z"/>
		<path class="st6" d="M177.7,50.9c0,0-1-8.5,13.2-13.8c0,0-5.1,2.5-6.7,11L177.7,50.9z"/>
	</g>
	<path class="st7" d="M234.8,5.9c0,0,4.2-2.6,4.6-5.9c0,0,4.1,0.2,5,1.5c0,0-1.9,5.3-4.1,6.3C240.3,7.8,235.3,8.2,234.8,5.9z"/>
	<path class="st7" d="M99.6,308.4c0,0-4.5-2.8-4.9-6.3c0,0-4.4,0.2-5.3,1.6c0,0,2,5.7,4.4,6.7C93.8,310.6,99,310.9,99.6,308.4
		L99.6,308.4z"/>
	<path class="st2" d="M283.5,89.4c0,0,4.5-2.9,5-6.3c0,0,4.4,0.2,5.3,1.6c0,0-2,5.7-4.4,6.7C289.5,91.5,284.1,91.9,283.5,89.4
		L283.5,89.4z"/>
</g>
<ellipse class="st8" cx="170" cy="155.3" rx="106.5" ry="106.5"/>
<g>
	<g>
		<rect id="rect-1_1_" x="110" y="98.3" class="st9" width="120" height="114"/>
	</g>
	<defs>
		<filter id="Adobe_OpacityMaskFilter" filterUnits="userSpaceOnUse" x="110" y="98.3" width="120" height="114">
			<feColorMatrix  type="matrix" values="1 0 0 0 0  0 1 0 0 0  0 0 1 0 0  0 0 0 1 0"/>
		</filter>
	</defs>
	<mask maskUnits="userSpaceOnUse" x="110" y="98.3" width="120" height="114" id="mask-2_2_">
		<rect x="110" y="98.3" class="st10" width="120" height="114"/>
		<g>
			<rect id="rect-1_3_" x="110" y="98.3" class="st11" width="120" height="114"/>
		</g>
	</mask>
	<g class="st12">
		<path class="st13" d="M169.9,192.9l37.1,19.5l-7-41.2l30-29.3l-41.5-6.1l-18.6-37.5l-18.5,37.5l-41.5,6.1l30,29.3l-7.1,41.2
			C132.9,212.3,169.9,192.9,169.9,192.9z"/>
		<path class="st14" d="M169.9,169.3l37.1,43l-29.5-48.6l52.5-21.9l-55.4,13.1l-4.7-56.7l-4.5,56.7L110,141.9l52.5,21.9l-29.7,48.6
			C132.9,212.3,169.9,169.3,169.9,169.3z"/>
	</g>
</g>
</svg>
