<?xml version="1.0" encoding="utf-8"?>
<!-- Generator: Adobe Illustrator 24.0.0, SVG Export Plug-In . SVG Version: 6.00 Build 0)  -->
<svg version="1.1" id="Layer_1" xmlns="http://www.w3.org/2000/svg" xmlns:xlink="http://www.w3.org/1999/xlink" x="0px" y="0px"
	 viewBox="0 0 100 100" style="enable-background:new 0 0 100 100;" xml:space="preserve">
<style type="text/css">
	.st0{fill-rule:evenodd;clip-rule:evenodd;}
</style>
<title>intelligence-20</title>
<path class="st0" d="M97.3,40.7l-8.3-28.4c-0.2-0.5-0.5-1-1-1.2L70.1,0.6c-0.2-0.2-0.7-0.2-1.2-0.2H58.1c-1.2-0.5-2.7-0.5-3.9,0.2
	c-2.2,1.2-2.9,3.9-1.7,6.1c0.2,0.5,0.5,0.7,0.7,1v43.5c-1.5,1.5-1.7,3.7-0.7,5.4c0.2,0.5,0.5,0.7,0.7,1v34.2c-1,0.5-1.5,1.5-2,2.4
	c-0.2-1-1-2-2-2.4V57.6c0.2-0.2,0.5-0.7,0.7-1c1-1.7,0.7-4.2-0.7-5.4V7.7c0.2-0.2,0.5-0.7,0.7-1c1.2-2.2,0.5-4.9-1.7-6.1
	c-1.2-0.7-2.7-0.7-3.9-0.2H33.7c-0.5,0-0.7,0-1.2,0.2L17.8,9.1c-2-0.7-4.4,0-5.6,2c-1,1.7-0.7,3.4,0.2,4.9L6.3,37.3
	c-1.2,0.2-2.4,1-2.9,2.2c-1.2,2.2-0.5,4.9,1.7,6.1c1,0.5,2.2,0.7,3.2,0.5L17.5,60v11.7c-1.2,0.2-2.2,1-2.9,2.2
	c-1.2,2.2-0.5,4.9,1.7,6.1s4.6,0.5,6.1-1.5l6.4,1.2l2.2,9.1c0.2,0.7,0.7,1.2,1.2,1.5l10.3,4.4c-0.2,1.7,0.5,3.7,2.2,4.6
	c2.2,1.2,4.9,0.5,6.1-1.7c0.2-0.2,0.2-0.5,0.5-1c0,0.2,0.2,0.5,0.5,1c1.2,2.2,3.9,2.9,6.1,1.7c1.7-1,2.4-2.7,2.2-4.6l10.3-4.4
	c0.7-0.2,1.2-0.7,1.2-1.5l2.2-9.1l9.3-2c1-0.2,1.7-1.2,1.7-2.2V59.8l11.7-17.4C97.3,42.2,97.3,41.4,97.3,40.7z M42,4.7h-7.3
	l-13.5,8.1c0.2,1,0,2-0.5,2.9L20.5,16l9.5,9.3c1.5-1.2,3.4-1.7,5.1-0.7L43,7.4C42.5,6.5,42,5.7,42,4.7z M84.5,14.3l-11.3,11
	c-1.5-1.5-3.4-1.7-5.1-0.7L60.3,7.4c0.5-0.7,1-1.5,1-2.4h7.3L84.5,14.3z M45.2,23.1l-1-14.7l-7.8,16.9c1.2,1.5,1.7,3.7,0.5,5.4
	c-0.2,0.2-0.2,0.5-0.5,0.7l8.8,8.6V23.1z M66.7,31.4c-0.2-0.2-0.5-0.5-0.5-0.7c-1-1.7-0.7-3.9,0.5-5.4L59.1,8.4l-1,14.7V40
	L66.7,31.4z M76.5,37.5l12-10.5l-3.2-11.3L74,26.3c1,2.2,0.2,4.6-1.7,5.9c-0.2,0.2-0.5,0.2-0.5,0.2l2.2,4.9
	C74.8,37.3,75.5,37.3,76.5,37.5z M17,17.7c0.7,0,1.5-0.5,2.2-0.7l9.8,9.3c-1,2.2-0.2,4.6,1.7,5.9l0.5,0.2L29,37.3
	c-0.7-0.2-1.7-0.2-2.4,0l-12-10.5C14.6,27,17,17.7,17,17.7z M77.7,45.6l4.9,10.5l1-1.5L89.4,29l-0.2-0.7l-11,9.8
	c0.5,0.5,1,0.7,1.2,1.5C80.4,41.7,79.6,44.4,77.7,45.6z M14.1,28.5l11,9.8c-0.5,0.2-1,0.7-1.2,1.5c-1.2,2.2-0.5,4.6,1.5,6.1
	l-4.9,10.5l-1-1.5l-5.6-25.7L14.1,28.5z M13.1,32.1l-2,6.8c1,1.2,1.5,2.9,1,4.4l5.4,8.1C17.3,51.2,13.1,32.1,13.1,32.1z M89.9,32.1
	l-4.4,19.1l6.8-10.3L89.9,32.1z M35.1,32.4l10,9.5v8.3c-1,0.2-1.7,0.7-2.2,1.5l-10.5-9.3c0.2-1.7-0.5-3.4-1.7-4.4l2.4-5.4
	C33.7,32.9,34.4,32.6,35.1,32.4z M70.8,42.4l-10.8,9.3c-0.5-0.7-1.5-1.2-2.2-1.5v-8.3l10-9.5c0.7,0.2,1.5,0.5,2.2,0.5l2.4,5.4
	C71.1,39.2,70.6,40.9,70.8,42.4z M32.4,68.3c1-1.5,2.9-2.2,4.6-1.7l6.4-8.8c-1.2-1.2-1.7-2.9-1.2-4.6l-10.5-9.3l0,0
	c-1,1.7-2.9,2.4-4.9,2.2l-5.1,11.5l0.2,0.5c0.2,0.5,0.5,0.7,0.5,1.2v4.2L32.4,68.3z M81.1,58.1c-0.2,0.5-0.5,0.7-0.5,1.2v4.2
	l-10,4.9c-1-1.5-2.9-2.2-4.6-1.7l-6.6-8.8c1.2-1.2,1.7-2.9,1.2-4.6l10.5-9.3l0,0c1,1.7,3.2,2.7,4.9,2.2l5.1,11.5V58.1z M57.9,58.8
	c0.2,0,0.2,0,0.5-0.2l6.4,8.6c-1.7,1-2.4,3.2-2,4.9l-4.6,2.2c0,0-0.2,0-0.2,0.2C57.9,74.5,57.9,58.8,57.9,58.8z M38.6,67.1l6.4-8.6
	c0.2,0,0.2,0,0.5,0.2v15.7l-0.2-0.2L40.5,72C40.8,70.3,40,68.3,38.6,67.1z M30.5,75.7L29,75.4l-5.6-9.8l8.6,4.2
	c-0.5,1.2-0.2,2.4,0.5,3.7L30.5,75.7z M70.8,73.2l1.7,2.4l1.5-0.2l5.6-9.8l-8.6,4.2C71.6,71,71.6,72.3,70.8,73.2z M22.2,66.9v6.4
	c0.2,0.2,0.2,0.5,0.5,0.7l4.2,1L22.2,66.9z M76,74.9l4.6-8.1V74L76,74.9z M32.9,77.6c-0.2-0.5-0.5-1-1-1.5l1.2-1.7l0.5,0.5
	c2,1.2,4.6,0.5,5.9-1.2l4.4,2.2c0.2,0.2,0.7,0,1-0.2v15.7l-9.8-4.2L32.9,77.6z M67.7,86.9l2.2-9.3c0.2-0.5,0.5-1.2,1-1.5l-1.2-1.7
	c-0.2,0.2-0.5,0.2-0.5,0.5c-2,1.2-4.6,0.5-5.9-1.2l-4.6,2c-0.2,0.2-0.7,0-1-0.2v15.7L67.7,86.9z"/>
</svg>
