<svg xmlns="http://www.w3.org/2000/svg" viewBox="0 0 200 36.41"><defs><style>.cls-1{fill:#fff;}.cls-2{fill:#00af9f;}.cls-3{fill:#706f6f;}</style></defs><title>logo-mkt</title><g id="Layer_2" data-name="Layer 2"><g id="Capa_1" data-name="Capa 1"><path class="cls-1" d="M0,24.33V12.49a1,1,0,0,1,1-1,1,1,0,0,1,1,1V24.33a1,1,0,0,1-1,1A1,1,0,0,1,0,24.33Z"/><path class="cls-1" d="M9.9,24.76c-.41-.88-.84-1.76-1.29-2.68C7.86,20.53,6.88,18.55,6,16.77v7.56a1,1,0,0,1-2,0V12.49a1,1,0,0,1,.76-1,1,1,0,0,1,1.1.53c.41.88.84,1.75,1.29,2.67C8,16.29,8.92,18.27,9.8,20V12.49a1,1,0,1,1,2,0V24.33a1,1,0,0,1-.76,1A1,1,0,0,1,9.9,24.76Z"/><path class="cls-1" d="M20.33,12.57a1,1,0,0,1-1,1H17.68V24.33a1,1,0,0,1-2,0V13.55H14a1,1,0,1,1,0-2h5.31A1,1,0,0,1,20.33,12.57Z"/><path class="cls-1" d="M22.62,11.59H26.7a1,1,0,0,1,0,2H23.6v3.67h2.69a1,1,0,1,1,0,2H23.6v4.09h3.1a1,1,0,0,1,0,2H22.62a1,1,0,0,1-1-1V12.57A1,1,0,0,1,22.62,11.59Z"/><path class="cls-1" d="M29.15,24.25V12.49a1,1,0,1,1,2,0V23.27h3.1a1,1,0,1,1,0,2H30.13A1,1,0,0,1,29.15,24.25Z"/><path class="cls-1" d="M36.25,24.25V12.49a1,1,0,1,1,2,0V23.27h3.11a1,1,0,0,1,0,2H37.23A1,1,0,0,1,36.25,24.25Z"/><path class="cls-1" d="M43.36,24.33V12.49a1,1,0,0,1,2,0V24.33a1,1,0,1,1-2,0Z"/><path class="cls-1" d="M54.05,18.61v3.27a3.43,3.43,0,1,1-6.86,0V14.94a3.44,3.44,0,0,1,6.41-1.72,1,1,0,0,1-.36,1.35,1,1,0,0,1-1.33-.37,1.49,1.49,0,0,0-2.76.74v6.94a1.48,1.48,0,0,0,1.47,1.47,1.46,1.46,0,0,0,1.47-1.47V19.59H51a1,1,0,0,1,0-2h2A1,1,0,0,1,54.05,18.61Z"/><path class="cls-1" d="M56.83,11.59h4.08a1,1,0,1,1,0,2h-3.1v3.67H60.5a1,1,0,0,1,0,2H57.81v4.09h3.1a1,1,0,1,1,0,2H56.83a1,1,0,0,1-1-1V12.57A1,1,0,0,1,56.83,11.59Z"/><path class="cls-1" d="M69.18,24.76c-.41-.88-.84-1.76-1.29-2.68-.75-1.55-1.73-3.53-2.57-5.31v7.56a1,1,0,1,1-2,0V12.49a1,1,0,0,1,.76-1,1,1,0,0,1,1.1.53c.41.88.84,1.75,1.28,2.67.76,1.56,1.7,3.54,2.58,5.31V12.49a1,1,0,0,1,2,0V24.33a1,1,0,0,1-.76,1A1,1,0,0,1,69.18,24.76Z"/><path class="cls-1" d="M72.91,21.88V14.94a3.42,3.42,0,0,1,2.53-3.31,3.37,3.37,0,0,1,3.86,1.59A1,1,0,0,1,79,14.57a1,1,0,0,1-1.35-.37,1.47,1.47,0,0,0-2.74.74v6.94a1.46,1.46,0,0,0,2.74.73A1,1,0,0,1,79,22.25a1,1,0,0,1,.34,1.34,3.42,3.42,0,0,1-6.39-1.71Z"/><path class="cls-1" d="M82,11.59h4.08a1,1,0,1,1,0,2H83v3.67h2.69a1,1,0,1,1,0,2H83v4.09h3.1a1,1,0,0,1,0,2H82a1,1,0,0,1-1-1V12.57A1,1,0,0,1,82,11.59Z"/><path class="cls-1" d="M127.72,24.33V12.49a.94.94,0,0,1,.75-1,1,1,0,0,1,1.11.55c.26.59.55,1.18.83,1.78.47,1,1.09,2.26,1.55,3.26.48-1,1.07-2.22,1.54-3.26.26-.6.55-1.19.83-1.78a1,1,0,0,1,1.11-.55,1,1,0,0,1,.77,1V24.33a1,1,0,0,1-2,0V16.88c-.35.73-.69,1.47-1,2-.14.33-.3.63-.45.94a1,1,0,0,1-.88.57.9.9,0,0,1-.89-.57c-.15-.31-.31-.61-.45-.94-.27-.55-.62-1.29-.94-2v7.45a1,1,0,0,1-2,0Z"/><path class="cls-1" d="M145.21,25.27a1,1,0,0,1-1.2-.67c-.06-.17-.1-.37-.16-.6-.11-.39-.27-.92-.43-1.55H140c-.19.63-.33,1.16-.43,1.55a5,5,0,0,1-.17.6,1,1,0,1,1-1.87-.54l3.26-11.84a1,1,0,0,1,1.88,0l3.27,11.84A1,1,0,0,1,145.21,25.27Zm-3.53-9.09c-.39,1.33-.79,2.9-1.18,4.31h2.37C142.48,19.08,142.07,17.51,141.68,16.18Z"/><path class="cls-1" d="M152.17,19.2,154,24a1,1,0,0,1-.57,1.27,1,1,0,0,1-1.27-.57l-1.9-5.09h-1.1v4.74a1,1,0,0,1-2,0V12.57a1,1,0,0,1,1-1h2.45A3.42,3.42,0,0,1,154,15v1.14A3.35,3.35,0,0,1,152.17,19.2Zm-1.59-1.57a1.46,1.46,0,0,0,1.47-1.47V15a1.46,1.46,0,0,0-1.47-1.47h-1.47v4.08Z"/><path class="cls-1" d="M162.36,25.21a1,1,0,0,1-1.31-.45l-2.67-5.58-.78,1.07v4.08a1,1,0,1,1-2,0V12.49a1,1,0,1,1,2,0v4.39l3.53-5a1,1,0,0,1,1.37-.23,1,1,0,0,1,.23,1.37l-3.07,4.31,3.17,6.53A1,1,0,0,1,162.36,25.21Z"/><path class="cls-1" d="M165.22,11.59h4.08a1,1,0,0,1,0,2h-3.1v3.67h2.69a1,1,0,0,1,0,2H166.2v4.09h3.1a1,1,0,0,1,0,2h-4.08a1,1,0,0,1-1-1V12.57A1,1,0,0,1,165.22,11.59Z"/><path class="cls-1" d="M178.2,12.57a1,1,0,0,1-1,1h-1.67V24.33a1,1,0,0,1-2,0V13.55h-1.68a1,1,0,1,1,0-2h5.31A1,1,0,0,1,178.2,12.57Z"/><path class="cls-1" d="M179.5,24.33V12.49a1,1,0,0,1,2,0V24.33a1,1,0,0,1-2,0Z"/><path class="cls-1" d="M189.41,24.76c-.41-.88-.84-1.76-1.29-2.68-.76-1.55-1.74-3.53-2.57-5.31v7.56a1,1,0,0,1-2,0V12.49a.94.94,0,0,1,.75-1,1,1,0,0,1,1.1.53c.41.88.84,1.75,1.29,2.67.76,1.56,1.7,3.54,2.57,5.31V12.49a1,1,0,1,1,2,0V24.33a1,1,0,0,1-.75,1A1,1,0,0,1,189.41,24.76Z"/><path class="cls-1" d="M200,18.61v3.27a3.43,3.43,0,0,1-6.86,0V14.94a3.44,3.44,0,0,1,6.41-1.72,1,1,0,0,1-.37,1.35,1,1,0,0,1-1.32-.37,1.49,1.49,0,0,0-2.76.74v6.94a1.47,1.47,0,0,0,2.94,0V19.59H197a1,1,0,1,1,0-2h2A1,1,0,0,1,200,18.61Z"/><rect class="cls-2" x="96.23" y="2.31" width="11.15" height="11.15" transform="translate(33.88 -68.36) rotate(43.87)"/><rect class="cls-2" x="96.64" y="22.96" width="11.15" height="11.15" transform="matrix(0.72, 0.69, -0.69, 0.72, 48.3, -62.87)"/><rect class="cls-3" x="106.38" y="12.82" width="11.15" height="11.15" transform="translate(44 -72.46) rotate(43.87)"/></g></g></svg>