<?xml version="1.0" encoding="utf-8"?>
<!-- Generator: Adobe Illustrator 24.0.0, SVG Export Plug-In . SVG Version: 6.00 Build 0)  -->
<svg version="1.1" id="Layer_1" xmlns="http://www.w3.org/2000/svg" xmlns:xlink="http://www.w3.org/1999/xlink" x="0px" y="0px"
	 viewBox="0 0 170 70" style="enable-background:new 0 0 170 70;" xml:space="preserve">
<style type="text/css">
	.st0{fill:none;}
	.st1{filter:url(#Adobe_OpacityMaskFilter);}
	.st2{fill:#FFFFFF;}
	.st3{mask:url(#mask-2_2_);}
	.st4{fill-rule:evenodd;clip-rule:evenodd;fill:#26356A;}
</style>
<title>logo-intell20</title>
<g>
	<g>
		<rect id="rect-1_1_" y="0" class="st0" width="170" height="69.6"/>
	</g>
	<defs>
		<filter id="Adobe_OpacityMaskFilter" filterUnits="userSpaceOnUse" x="0" y="0" width="170" height="69.6">
			<feColorMatrix  type="matrix" values="1 0 0 0 0  0 1 0 0 0  0 0 1 0 0  0 0 0 1 0"/>
		</filter>
	</defs>
	<mask maskUnits="userSpaceOnUse" x="0" y="0" width="170" height="69.6" id="mask-2_2_">
		<rect y="0" class="st1" width="170" height="69.6"/>
		<g>
			<rect id="rect-1_3_" y="0" class="st2" width="170" height="69.6"/>
		</g>
	</mask>
	<g class="st3">
		<path class="st4" d="M97.5,16.7L94.1,5.1c-0.1-0.2-0.2-0.4-0.4-0.5l-7.3-4.3c-0.1-0.1-0.3-0.1-0.5-0.1h-4.4
			c-0.5-0.2-1.1-0.2-1.6,0.1c-0.9,0.5-1.2,1.6-0.7,2.5c0.1,0.2,0.2,0.3,0.3,0.4V21c-0.6,0.6-0.7,1.5-0.3,2.2
			c0.1,0.2,0.2,0.3,0.3,0.4v14c-0.4,0.2-0.6,0.6-0.8,1c-0.1-0.4-0.4-0.8-0.8-1v-14c0.1-0.1,0.2-0.3,0.3-0.4c0.4-0.7,0.3-1.7-0.3-2.2
			V3.2c0.1-0.1,0.2-0.3,0.3-0.4c0.5-0.9,0.2-2-0.7-2.5c-0.5-0.3-1.1-0.3-1.6-0.1h-4.4c-0.2,0-0.3,0-0.5,0.1l-6,3.5
			c-0.8-0.3-1.8,0-2.3,0.8c-0.4,0.7-0.3,1.4,0.1,2l-2.5,8.7c-0.5,0.1-1,0.4-1.2,0.9c-0.5,0.9-0.2,2,0.7,2.5c0.4,0.2,0.9,0.3,1.3,0.2
			l3.8,5.7v4.8c-0.5,0.1-0.9,0.4-1.2,0.9c-0.5,0.9-0.2,2,0.7,2.5c0.9,0.5,1.9,0.2,2.5-0.6l2.6,0.5l0.9,3.7c0.1,0.3,0.3,0.5,0.5,0.6
			l4.2,1.8c-0.1,0.7,0.2,1.5,0.9,1.9c0.9,0.5,2,0.2,2.5-0.7c0.1-0.1,0.1-0.2,0.2-0.4c0,0.1,0.1,0.2,0.2,0.4c0.5,0.9,1.6,1.2,2.5,0.7
			c0.7-0.4,1-1.1,0.9-1.9l4.2-1.8c0.3-0.1,0.5-0.3,0.5-0.6l0.9-3.7l3.8-0.8c0.4-0.1,0.7-0.5,0.7-0.9v-6.5l4.8-7.1
			C97.5,17.3,97.5,17,97.5,16.7z M74.9,2h-3l-5.5,3.3c0.1,0.4,0,0.8-0.2,1.2c0,0-0.1,0.1-0.1,0.1l3.9,3.8c0.6-0.5,1.4-0.7,2.1-0.3
			l3.2-7C75.1,2.7,74.9,2.4,74.9,2z M92.3,5.9l-4.6,4.5c-0.6-0.6-1.4-0.7-2.1-0.3l-3.2-7c0.2-0.3,0.4-0.6,0.4-1h3L92.3,5.9z
			 M76.2,9.5l-0.4-6l-3.2,6.9c0.5,0.6,0.7,1.5,0.2,2.2c-0.1,0.1-0.1,0.2-0.2,0.3l3.6,3.5C76.2,16.4,76.2,9.5,76.2,9.5z M85,12.9
			c-0.1-0.1-0.2-0.2-0.2-0.3c-0.4-0.7-0.3-1.6,0.2-2.2l-3.1-6.9l-0.4,6v6.9L85,12.9z M89,15.4l4.9-4.3l-1.3-4.6L88,10.8
			c0.4,0.9,0.1,1.9-0.7,2.4c-0.1,0.1-0.2,0.1-0.2,0.1l0.9,2C88.3,15.3,88.6,15.3,89,15.4z M64.7,7.3c0.3,0,0.6-0.2,0.9-0.3l4,3.8
			c-0.4,0.9-0.1,1.9,0.7,2.4l0.2,0.1l-0.9,2c-0.3-0.1-0.7-0.1-1,0l-4.9-4.3C63.7,11.1,64.7,7.3,64.7,7.3z M89.5,18.7l2,4.3l0.4-0.6
			l2.4-10.5l-0.1-0.3l-4.5,4c0.2,0.2,0.4,0.3,0.5,0.6C90.6,17.1,90.3,18.2,89.5,18.7z M63.5,11.7l4.5,4c-0.2,0.1-0.4,0.3-0.5,0.6
			c-0.5,0.9-0.2,1.9,0.6,2.5l-2,4.3l-0.4-0.6L63.4,12C63.4,12,63.5,11.7,63.5,11.7z M63.1,13.2l-0.8,2.8c0.4,0.5,0.6,1.2,0.4,1.8
			l2.2,3.3C64.8,21,63.1,13.2,63.1,13.2z M94.5,13.2L92.7,21l2.8-4.2L94.5,13.2z M72.1,13.3l4.1,3.9v3.4c-0.4,0.1-0.7,0.3-0.9,0.6
			l-4.3-3.8c0.1-0.7-0.2-1.4-0.7-1.8l1-2.2C71.5,13.5,71.8,13.4,72.1,13.3z M86.7,17.4l-4.4,3.8c-0.2-0.3-0.6-0.5-0.9-0.6v-3.4
			l4.1-3.9c0.3,0.1,0.6,0.2,0.9,0.2l1,2.2C86.8,16.1,86.6,16.8,86.7,17.4z M71,28c0.4-0.6,1.2-0.9,1.9-0.7l2.6-3.6
			c-0.5-0.5-0.7-1.2-0.5-1.9L70.7,18c0,0,0,0,0,0c-0.4,0.7-1.2,1-2,0.9l-2.1,4.7l0.1,0.2c0.1,0.2,0.2,0.3,0.2,0.5V26L71,28z
			 M90.9,23.8c-0.1,0.2-0.2,0.3-0.2,0.5V26l-4.1,2c-0.4-0.6-1.2-0.9-1.9-0.7L82,23.7c0.5-0.5,0.7-1.2,0.5-1.9l4.3-3.8c0,0,0,0,0,0
			c0.4,0.7,1.3,1.1,2,0.9l2.1,4.7L90.9,23.8z M81.4,24.1c0.1,0,0.1,0,0.2-0.1l2.6,3.5c-0.7,0.4-1,1.3-0.8,2l-1.9,0.9
			c0,0-0.1,0-0.1,0.1V24.1z M73.5,27.5l2.6-3.5c0.1,0,0.1,0,0.2,0.1v6.4c0,0-0.1-0.1-0.1-0.1l-1.9-0.9C74.4,28.8,74.1,28,73.5,27.5z
			 M70.2,31l-0.6-0.1l-2.3-4l3.5,1.7c-0.2,0.5-0.1,1,0.2,1.5L70.2,31z M86.7,30l0.7,1l0.6-0.1l2.3-4l-3.5,1.7
			C87,29.1,87,29.6,86.7,30z M66.8,27.4V30c0.1,0.1,0.1,0.2,0.2,0.3l1.7,0.4L66.8,27.4z M88.8,30.7l1.9-3.3v2.9L88.8,30.7z
			 M71.2,31.8c-0.1-0.2-0.2-0.4-0.4-0.6l0.5-0.7l0.2,0.2c0.8,0.5,1.9,0.2,2.4-0.5l1.8,0.9c0.1,0.1,0.3,0,0.4-0.1v6.4l-4-1.7
			L71.2,31.8z M85.4,35.6l0.9-3.8c0.1-0.2,0.2-0.5,0.4-0.6l-0.5-0.7c-0.1,0.1-0.2,0.1-0.2,0.2c-0.8,0.5-1.9,0.2-2.4-0.5L81.7,31
			c-0.1,0.1-0.3,0-0.4-0.1v6.4L85.4,35.6z"/>
		<path class="st4" d="M86.8,32.2l-0.1,0.1l-0.1-0.1l-0.4,0.1l-0.5,2c16.4,0.9,32.6,2.9,50.1,9.9c0,0-15.8-11.3-44.6-14.8l-0.9,2
			L86.8,32.2L86.8,32.2z"/>
		<path class="st4" d="M70.4,32.2L70.4,32.2l-0.1,0l-3.5-0.7v-2.7c-15.6,1-33.1,5.1-51.6,14.3c0,0,23.8-8.2,56.1-8.9l-0.4-1.8
			C70.8,32.3,70.4,32.2,70.4,32.2z"/>
		<path class="st4" d="M138.4,64.3v-3l5.9-5.4c0.4-0.4,0.7-0.7,0.9-1.1c0.2-0.4,0.3-0.8,0.3-1.2c0-0.5-0.2-1-0.5-1.3
			c-0.3-0.3-0.8-0.5-1.4-0.5c-0.6,0-1.1,0.2-1.5,0.6c-0.4,0.4-0.6,1-0.7,1.7l-3.4-0.5c0.1-0.8,0.3-1.5,0.6-2.1
			c0.3-0.6,0.8-1.1,1.3-1.5c0.5-0.4,1.1-0.7,1.8-1c0.7-0.2,1.4-0.3,2.1-0.3c0.7,0,1.4,0.1,2,0.3c0.7,0.2,1.2,0.5,1.8,0.9
			c0.5,0.4,0.9,0.9,1.2,1.5c0.3,0.6,0.5,1.3,0.5,2.1c0,0.5-0.1,1-0.2,1.5c-0.1,0.4-0.3,0.8-0.6,1.2c-0.2,0.4-0.5,0.7-0.9,1
			c-0.3,0.3-0.7,0.6-1,1l-3.5,3.1h6.1v3.1H138.4L138.4,64.3z"/>
		<path class="st4" d="M156.1,62.4c0,0.6-0.2,1.1-0.6,1.5c-0.4,0.4-0.9,0.6-1.5,0.6c-0.3,0-0.6-0.1-0.8-0.2
			c-0.3-0.1-0.5-0.3-0.7-0.4c-0.2-0.2-0.4-0.4-0.5-0.7c-0.1-0.2-0.2-0.5-0.2-0.8c0-0.3,0.1-0.6,0.2-0.8s0.3-0.5,0.5-0.7
			s0.4-0.3,0.7-0.5c0.3-0.1,0.5-0.2,0.8-0.2c0.6,0,1.1,0.2,1.5,0.6C155.9,61.3,156.1,61.8,156.1,62.4z"/>
		<path class="st4" d="M4.2,49.4c0.1-0.3,0.2-0.5,0.2-0.8c0-0.3-0.1-0.6-0.2-0.8c-0.1-0.3-0.3-0.5-0.5-0.7c-0.2-0.2-0.4-0.3-0.7-0.4
			c-0.3-0.1-0.6-0.2-0.9-0.2c-0.3,0-0.6,0.1-0.9,0.2c-0.3,0.1-0.5,0.3-0.7,0.5s-0.4,0.4-0.5,0.7C0.1,48.1,0,48.3,0,48.6
			c0,0.6,0.2,1.1,0.6,1.5s0.9,0.6,1.6,0.6c0.3,0,0.6-0.1,0.9-0.2c0.3-0.1,0.5-0.3,0.7-0.4C3.9,49.9,4.1,49.7,4.2,49.4z M0.3,52.3V64
			h3.8V52.3H0.3z"/>
		<path class="st4" d="M14.8,64v-6.4c0-0.3,0-0.6-0.1-0.9c-0.1-0.3-0.1-0.6-0.3-0.8c-0.1-0.2-0.3-0.4-0.5-0.5
			c-0.2-0.1-0.5-0.2-0.9-0.2s-0.6,0.1-0.9,0.2s-0.5,0.3-0.6,0.5c-0.2,0.2-0.3,0.5-0.4,0.8C11.1,57,11,57.3,11,57.6V64H7.2V52.3h3.7
			v1.6h0c0.1-0.2,0.3-0.5,0.5-0.7c0.2-0.2,0.5-0.4,0.8-0.6c0.3-0.2,0.6-0.3,1-0.4S14,52,14.4,52c0.8,0,1.4,0.1,2,0.4
			c0.5,0.3,1,0.6,1.3,1.1c0.3,0.4,0.6,1,0.7,1.5c0.1,0.6,0.2,1.2,0.2,1.7V64L14.8,64C14.8,64,14.8,64,14.8,64z"/>
		<path class="st4" d="M25.7,55.2v4.5c0,0.5,0.1,1,0.3,1.2c0.2,0.3,0.6,0.4,1.1,0.4c0.2,0,0.4,0,0.6,0c0.2,0,0.4-0.1,0.5-0.1l0,2.8
			c-0.3,0.1-0.6,0.2-1,0.2c-0.4,0.1-0.8,0.1-1.2,0.1c-0.8,0-1.4-0.1-2-0.3c-0.5-0.2-1-0.5-1.3-0.8c-0.3-0.4-0.5-0.8-0.7-1.3
			C22,61.3,22,60.7,22,60.1v-4.9h-1.9v-2.9h1.8v-3.1h3.8v3.1h2.7v2.9H25.7z"/>
		<path class="st4" d="M41.8,58.8v-0.5c0-1-0.2-1.9-0.4-2.7c-0.3-0.8-0.7-1.4-1.2-2c-0.5-0.6-1.1-1-1.8-1.3
			c-0.7-0.3-1.5-0.4-2.4-0.4c-0.9,0-1.7,0.1-2.5,0.4c-0.8,0.3-1.4,0.7-2,1.3c-0.6,0.5-1,1.2-1.3,2c-0.3,0.8-0.5,1.6-0.5,2.6
			c0,1,0.2,1.9,0.5,2.6c0.3,0.8,0.8,1.4,1.4,1.9c0.6,0.5,1.3,0.9,2,1.2c0.8,0.3,1.6,0.4,2.5,0.4c1.2,0,2.2-0.2,3.1-0.6
			c0.9-0.4,1.6-1,2.2-1.8l-2.7-1.7c-0.3,0.4-0.6,0.7-1,0.9c-0.4,0.2-0.9,0.3-1.5,0.3c-0.3,0-0.7-0.1-1-0.2c-0.3-0.1-0.6-0.3-0.9-0.5
			c-0.3-0.2-0.5-0.4-0.6-0.7c-0.2-0.3-0.3-0.6-0.3-0.9h8.4C41.8,59.1,41.8,58.9,41.8,58.8z M37.7,55.2c0.4,0.4,0.6,1,0.6,1.6v0h-4.9
			c0-0.3,0.1-0.6,0.2-0.9c0.1-0.3,0.3-0.5,0.6-0.7c0.2-0.2,0.5-0.4,0.8-0.5c0.3-0.1,0.6-0.2,1-0.2C36.7,54.6,37.3,54.8,37.7,55.2z"
			/>
		<path class="st4" d="M44.2,64V46.3h3.9V64C48.1,64,44.2,64,44.2,64z"/>
		<path class="st4" d="M51.2,64V46.3h3.9V64H51.2z"/>
		<path class="st4" d="M62.1,49.4c0.1-0.3,0.2-0.5,0.2-0.8c0-0.3-0.1-0.6-0.2-0.8c-0.1-0.3-0.3-0.5-0.5-0.7
			c-0.2-0.2-0.4-0.3-0.7-0.4c-0.3-0.1-0.6-0.2-0.9-0.2c-0.3,0-0.6,0.1-0.9,0.2c-0.3,0.1-0.5,0.3-0.7,0.5s-0.4,0.4-0.5,0.7
			c-0.1,0.3-0.2,0.5-0.2,0.8c0,0.6,0.2,1.1,0.6,1.5c0.4,0.4,0.9,0.6,1.6,0.6c0.3,0,0.6-0.1,0.9-0.2c0.3-0.1,0.5-0.3,0.7-0.4
			C61.8,49.9,62,49.7,62.1,49.4z M58.2,52.3V64H62V52.3H58.2z"/>
		<path class="st4" d="M76.9,65.9c0.3-0.8,0.5-1.8,0.5-3V52.3h-3.6v1.5h0c-0.4-0.6-0.9-1.1-1.6-1.4C71.4,52.1,70.7,52,70,52
			c-0.9,0-1.7,0.2-2.3,0.5c-0.7,0.3-1.3,0.8-1.7,1.3c-0.5,0.6-0.8,1.2-1.1,1.9c-0.3,0.7-0.4,1.5-0.4,2.3c0,0.8,0.1,1.6,0.4,2.3
			c0.2,0.7,0.6,1.4,1.1,1.9c0.5,0.5,1.1,1,1.7,1.3c0.7,0.3,1.5,0.5,2.4,0.5c0.8,0,1.5-0.1,2.1-0.4c0.6-0.3,1.1-0.7,1.4-1.1h0.1v0.7
			c0,1-0.3,1.8-0.8,2.4c-0.5,0.6-1.4,0.9-2.5,0.9c-0.7,0-1.3-0.1-2-0.4c-0.7-0.3-1.3-0.6-1.9-1.1l-1.9,2.7c0.8,0.6,1.7,1,2.8,1.4
			c1.1,0.3,2.1,0.5,3.2,0.5c1,0,2-0.1,2.8-0.4c0.8-0.3,1.6-0.7,2.2-1.2C76.1,67.4,76.5,66.7,76.9,65.9z M73.5,57
			c0.1,0.4,0.2,0.7,0.2,1.1c0,0.4-0.1,0.8-0.2,1.2c-0.1,0.4-0.3,0.7-0.6,0.9c-0.2,0.3-0.5,0.5-0.9,0.6c-0.3,0.2-0.7,0.2-1.2,0.2
			c-0.4,0-0.8-0.1-1.2-0.2c-0.3-0.2-0.6-0.4-0.9-0.7c-0.2-0.3-0.4-0.6-0.5-0.9c-0.1-0.4-0.2-0.7-0.2-1.1c0-0.4,0.1-0.8,0.2-1.1
			c0.1-0.4,0.3-0.7,0.5-0.9c0.2-0.3,0.5-0.5,0.9-0.6c0.3-0.2,0.7-0.2,1.2-0.2c0.4,0,0.8,0.1,1.2,0.2c0.3,0.2,0.6,0.4,0.9,0.6
			C73.2,56.3,73.4,56.6,73.5,57z"/>
		<path class="st4" d="M92,58.8v-0.5c0-1-0.1-1.9-0.4-2.7c-0.3-0.8-0.7-1.4-1.2-2c-0.5-0.6-1.1-1-1.8-1.3c-0.7-0.3-1.5-0.4-2.4-0.4
			c-0.9,0-1.7,0.1-2.5,0.4c-0.8,0.3-1.4,0.7-2,1.3s-1,1.2-1.3,2c-0.3,0.8-0.5,1.6-0.5,2.6c0,1,0.2,1.9,0.5,2.6
			c0.3,0.8,0.8,1.4,1.4,1.9c0.6,0.5,1.3,0.9,2,1.2c0.8,0.3,1.6,0.4,2.5,0.4c1.2,0,2.2-0.2,3.1-0.6c0.9-0.4,1.6-1,2.2-1.8l-2.7-1.7
			c-0.3,0.4-0.6,0.7-1,0.9c-0.4,0.2-0.9,0.3-1.5,0.3c-0.3,0-0.7-0.1-1-0.2c-0.3-0.1-0.6-0.3-0.9-0.5c-0.3-0.2-0.5-0.4-0.6-0.7
			c-0.2-0.3-0.3-0.6-0.3-0.9h8.4C92,59.1,92,58.9,92,58.8z M87.8,55.2c0.4,0.4,0.6,1,0.6,1.6v0h-4.9c0-0.3,0.1-0.6,0.2-0.9
			c0.1-0.3,0.3-0.5,0.6-0.7s0.5-0.4,0.8-0.5c0.3-0.1,0.6-0.2,1-0.2C86.9,54.6,87.5,54.8,87.8,55.2z"/>
		<path class="st4" d="M102,64v-6.4c0-0.3,0-0.6-0.1-0.9c-0.1-0.3-0.1-0.6-0.3-0.8c-0.1-0.2-0.3-0.4-0.5-0.5s-0.5-0.2-0.9-0.2
			s-0.6,0.1-0.9,0.2s-0.5,0.3-0.6,0.5c-0.2,0.2-0.3,0.5-0.4,0.8c-0.1,0.3-0.1,0.6-0.1,0.9V64h-3.9V52.3h3.7v1.6h0
			c0.1-0.2,0.3-0.5,0.5-0.7c0.2-0.2,0.5-0.4,0.8-0.6c0.3-0.2,0.6-0.3,1-0.4s0.7-0.2,1.1-0.2c0.8,0,1.4,0.1,2,0.4
			c0.5,0.3,1,0.6,1.3,1.1c0.3,0.4,0.6,1,0.7,1.5c0.1,0.6,0.2,1.2,0.2,1.7V64L102,64L102,64z"/>
		<path class="st4" d="M116.8,56.1c-0.2-0.3-0.5-0.5-0.9-0.7c-0.4-0.2-0.8-0.3-1.1-0.3c-0.4,0-0.8,0.1-1.1,0.2
			c-0.3,0.2-0.6,0.4-0.8,0.7c-0.2,0.3-0.4,0.6-0.5,0.9c-0.1,0.4-0.2,0.7-0.2,1.1c0,0.4,0.1,0.8,0.2,1.1c0.1,0.4,0.3,0.7,0.5,0.9
			c0.2,0.3,0.5,0.5,0.9,0.6c0.3,0.2,0.7,0.2,1.1,0.2c0.4,0,0.8-0.1,1.2-0.2c0.4-0.1,0.7-0.4,0.9-0.6l2.1,2.6
			c-0.5,0.5-1.1,0.8-1.9,1.1c-0.8,0.3-1.6,0.4-2.4,0.4c-0.9,0-1.8-0.1-2.6-0.4s-1.5-0.7-2.1-1.2c-0.6-0.5-1.1-1.2-1.4-2
			c-0.3-0.8-0.5-1.6-0.5-2.6c0-1,0.2-1.8,0.5-2.6c0.3-0.8,0.8-1.4,1.4-2c0.6-0.5,1.3-1,2.1-1.2c0.8-0.3,1.6-0.4,2.6-0.4
			c0.4,0,0.8,0,1.3,0.1c0.4,0.1,0.8,0.2,1.2,0.3c0.4,0.1,0.7,0.3,1.1,0.5c0.3,0.2,0.6,0.4,0.8,0.6L116.8,56.1z"/>
		<path class="st4" d="M132,58.8v-0.5c0-1-0.1-1.9-0.4-2.7c-0.3-0.8-0.7-1.4-1.2-2c-0.5-0.6-1.1-1-1.8-1.3c-0.7-0.3-1.5-0.4-2.4-0.4
			c-0.9,0-1.7,0.1-2.5,0.4c-0.8,0.3-1.4,0.7-2,1.3s-1,1.2-1.3,2c-0.3,0.8-0.5,1.6-0.5,2.6c0,1,0.2,1.9,0.5,2.6
			c0.3,0.8,0.8,1.4,1.4,1.9c0.6,0.5,1.3,0.9,2,1.2c0.8,0.3,1.6,0.4,2.5,0.4c1.2,0,2.2-0.2,3.1-0.6c0.9-0.4,1.6-1,2.2-1.8l-2.7-1.7
			c-0.3,0.4-0.6,0.7-1,0.9s-0.9,0.3-1.5,0.3c-0.3,0-0.7-0.1-1-0.2c-0.3-0.1-0.6-0.3-0.9-0.5c-0.3-0.2-0.5-0.4-0.6-0.7
			c-0.2-0.3-0.3-0.6-0.3-0.9h8.4C132,59.1,132,58.9,132,58.8z M127.9,55.2c0.4,0.4,0.6,1,0.6,1.6v0h-4.9c0-0.3,0.1-0.6,0.2-0.9
			c0.1-0.3,0.3-0.5,0.6-0.7s0.5-0.4,0.8-0.5c0.3-0.1,0.6-0.2,1-0.2C127,54.6,127.5,54.8,127.9,55.2z"/>
		<path class="st4" d="M169.7,59.8c0.2-1,0.3-2,0.3-3.1c0-1.1-0.1-2.1-0.3-3c-0.2-1-0.5-1.8-1-2.5c-0.5-0.7-1.1-1.3-1.8-1.7
			c-0.7-0.4-1.6-0.6-2.7-0.6s-2,0.2-2.7,0.6c-0.8,0.4-1.4,1-1.9,1.7c-0.5,0.7-0.8,1.6-1,2.5c-0.2,1-0.3,2-0.3,3
			c0,1.1,0.1,2.1,0.3,3.1c0.2,1,0.6,1.8,1,2.6c0.5,0.7,1.1,1.3,1.9,1.8c0.8,0.4,1.7,0.7,2.7,0.7s2-0.2,2.7-0.7
			c0.7-0.4,1.3-1,1.8-1.8C169.1,61.6,169.5,60.7,169.7,59.8z M166.2,55.1c0.1,0.6,0.1,1.1,0.1,1.6c0,0.5,0,1-0.1,1.6
			c-0.1,0.6-0.2,1.1-0.3,1.6c-0.2,0.5-0.4,0.9-0.7,1.2c-0.3,0.3-0.7,0.5-1.1,0.5c-0.5,0-0.9-0.2-1.2-0.5c-0.3-0.3-0.5-0.7-0.7-1.2
			c-0.2-0.5-0.3-1-0.3-1.6c-0.1-0.6-0.1-1.1-0.1-1.6c0-0.5,0-1,0.1-1.6c0.1-0.6,0.2-1.1,0.3-1.6c0.2-0.5,0.4-0.9,0.7-1.2
			c0.3-0.3,0.7-0.5,1.2-0.5c0.5,0,0.8,0.2,1.1,0.5c0.3,0.3,0.5,0.7,0.7,1.2C166.1,54,166.2,54.5,166.2,55.1z"/>
	</g>
</g>
</svg>
