<svg xmlns="http://www.w3.org/2000/svg" viewBox="0 0 175.65 29.1"><defs><style>.cls-1{fill:#fff;}.cls-2{fill:#f78f1e;}.cls-3{fill:#706f6f;}</style></defs><title>logo-cms</title><g id="Layer_2" data-name="Layer 2"><g id="Capa_1" data-name="Capa 1"><path class="cls-1" d="M0,21.64V8A1.11,1.11,0,0,1,1.13,6.86,1.12,1.12,0,0,1,2.26,8V21.64a1.12,1.12,0,0,1-1.13,1.13A1.12,1.12,0,0,1,0,21.64Z"/><path class="cls-1" d="M11.41,22.13c-.47-1-1-2-1.48-3.08-.87-1.79-2-4.07-3-6.12v8.71a1.13,1.13,0,1,1-2.26,0V8a1.1,1.1,0,0,1,.87-1.11,1.14,1.14,0,0,1,1.27.61c.48,1,1,2,1.49,3.09.87,1.78,1.95,4.07,3,6.11V8a1.13,1.13,0,0,1,2.26,0V21.64a1.14,1.14,0,0,1-.87,1.1A1.11,1.11,0,0,1,11.41,22.13Z"/><path class="cls-1" d="M23.43,8.08A1.11,1.11,0,0,1,22.3,9.21H20.37V21.64a1.13,1.13,0,0,1-2.26,0V9.21H16.18a1.13,1.13,0,1,1,0-2.26H22.3A1.12,1.12,0,0,1,23.43,8.08Z"/><path class="cls-1" d="M26.06,7h4.71a1.13,1.13,0,0,1,0,2.26H27.19v4.24H30.3a1.13,1.13,0,0,1,0,2.26H27.19v4.7h3.58a1.13,1.13,0,1,1,0,2.26H26.06a1.12,1.12,0,0,1-1.13-1.13V8.08A1.12,1.12,0,0,1,26.06,7Z"/><path class="cls-1" d="M33.59,21.54V8a1.13,1.13,0,0,1,2.26,0V20.41h3.57a1.13,1.13,0,0,1,0,2.26h-4.7A1.11,1.11,0,0,1,33.59,21.54Z"/><path class="cls-1" d="M41.77,21.54V8A1.13,1.13,0,1,1,44,8V20.41h3.58a1.13,1.13,0,1,1,0,2.26H42.9A1.12,1.12,0,0,1,41.77,21.54Z"/><path class="cls-1" d="M50,21.64V8a1.13,1.13,0,0,1,2.26,0V21.64a1.13,1.13,0,1,1-2.26,0Z"/><path class="cls-1" d="M62.29,15.05v3.76a4,4,0,1,1-7.91,0v-8a4,4,0,0,1,7.39-2,1.15,1.15,0,0,1-.42,1.55A1.12,1.12,0,0,1,59.82,10a1.71,1.71,0,0,0-3.18.84v8a1.71,1.71,0,0,0,1.69,1.7,1.69,1.69,0,0,0,1.7-1.7V16.18H58.81a1.13,1.13,0,0,1,0-2.26h2.35A1.12,1.12,0,0,1,62.29,15.05Z"/><path class="cls-1" d="M65.48,7h4.71a1.13,1.13,0,0,1,0,2.26H66.61v4.24h3.11a1.13,1.13,0,0,1,0,2.26H66.61v4.7h3.58a1.13,1.13,0,0,1,0,2.26H65.48a1.11,1.11,0,0,1-1.12-1.13V8.08A1.11,1.11,0,0,1,65.48,7Z"/><path class="cls-1" d="M79.72,22.13c-.47-1-1-2-1.49-3.08-.87-1.79-2-4.07-3-6.12v8.71a1.13,1.13,0,0,1-2.26,0V8a1.1,1.1,0,0,1,.87-1.11,1.15,1.15,0,0,1,1.27.61c.47,1,1,2,1.48,3.09.87,1.78,2,4.07,3,6.11V8a1.13,1.13,0,0,1,2.26,0V21.64a1.14,1.14,0,0,1-.87,1.1A1.11,1.11,0,0,1,79.72,22.13Z"/><path class="cls-1" d="M84,18.81v-8A3.93,3.93,0,0,1,86.94,7a3.89,3.89,0,0,1,4.44,1.84,1.09,1.09,0,0,1-.4,1.55A1.16,1.16,0,0,1,89.43,10a1.67,1.67,0,0,0-1.91-.78,1.69,1.69,0,0,0-1.24,1.62v8a1.68,1.68,0,0,0,3.15.85A1.15,1.15,0,0,1,91,19.24a1.09,1.09,0,0,1,.4,1.55,3.95,3.95,0,0,1-7.36-2Z"/><path class="cls-1" d="M94.49,7h4.7a1.13,1.13,0,0,1,0,2.26H95.62v4.24h3.1a1.13,1.13,0,0,1,0,2.26h-3.1v4.7h3.57a1.13,1.13,0,0,1,0,2.26h-4.7a1.11,1.11,0,0,1-1.13-1.13V8.08A1.12,1.12,0,0,1,94.49,7Z"/><path class="cls-1" d="M146.89,18.81v-8A3.93,3.93,0,0,1,149.81,7a3.89,3.89,0,0,1,4.44,1.84,1.09,1.09,0,0,1-.4,1.55A1.16,1.16,0,0,1,152.3,10a1.66,1.66,0,0,0-1.9-.78,1.69,1.69,0,0,0-1.25,1.62v8a1.72,1.72,0,0,0,1.25,1.65,1.7,1.7,0,0,0,1.9-.8,1.15,1.15,0,0,1,1.55-.42,1.09,1.09,0,0,1,.4,1.55,3.95,3.95,0,0,1-7.36-2Z"/><path class="cls-1" d="M156.23,21.64V8a1.12,1.12,0,0,1,2.14-.47c.31.68.63,1.36,1,2.05.55,1.2,1.25,2.61,1.79,3.76.54-1.15,1.23-2.56,1.77-3.76.3-.69.63-1.37,1-2.05A1.14,1.14,0,0,1,166,8V21.64a1.13,1.13,0,1,1-2.26,0V13.05c-.4.84-.8,1.69-1.11,2.33-.16.37-.35.73-.52,1.08a1.1,1.1,0,0,1-1,.66,1,1,0,0,1-1-.66c-.17-.35-.36-.71-.52-1.08-.31-.64-.71-1.49-1.08-2.33v8.59a1.13,1.13,0,0,1-2.26,0Z"/><path class="cls-1" d="M173.38,18.84a1.78,1.78,0,0,0-.5-1.42l-3.76-3.85A3.83,3.83,0,0,1,168,10.51a3.94,3.94,0,0,1,1.56-2.85,4,4,0,0,1,3.17-.73,4,4,0,0,1,2.64,1.91,1.15,1.15,0,0,1-.43,1.55,1.13,1.13,0,0,1-1.53-.42,1.72,1.72,0,0,0-1.13-.83,1.67,1.67,0,0,0-1.36.33,1.69,1.69,0,0,0-.19,2.52l3.74,3.86A4.05,4.05,0,0,1,175.64,19a4.16,4.16,0,0,1-1.6,2.94,4.06,4.06,0,0,1-6-1.2,1.1,1.1,0,0,1,.4-1.55,1.15,1.15,0,0,1,1.55.42,1.78,1.78,0,0,0,2.66.52A1.71,1.71,0,0,0,173.38,18.84Z"/><rect class="cls-2" x="125.54" y="16.26" width="12.84" height="12.84" transform="translate(263.92 45.36) rotate(-180)"/><rect class="cls-2" x="125.54" width="12.84" height="12.84" transform="translate(263.92 12.84) rotate(180)"/><rect class="cls-2" x="108.71" width="12.84" height="12.84" transform="translate(230.26 12.84) rotate(180)"/><rect class="cls-3" x="108.71" y="16.26" width="12.84" height="12.84" transform="translate(230.26 45.36) rotate(180)"/></g></g></svg>