<svg xmlns="http://www.w3.org/2000/svg" xmlns:xlink="http://www.w3.org/1999/xlink" width="330" height="213.51" viewBox="0 0 330 213.51">
  <defs>
    <rect id="rect-1" width="330" height="213.51" x="0" y="0"/>
    <mask id="mask-2" maskContentUnits="userSpaceOnUse" maskUnits="userSpaceOnUse">
      <rect width="330" height="213.51" x="0" y="0" fill="black"/>
      <use fill="white" xlink:href="#rect-1"/>
    </mask>
  </defs>
  <g>
    <use fill="none" xlink:href="#rect-1"/>
    <g mask="url(#mask-2)">
      <g>
        <g>
          <path fill="rgb(110,131,240)" fill-rule="evenodd" d="M118.1942749 146.44812012c-.32775879-.39331055-.72106933-.72106934-1.04885864-1.11437989-3.40881348-3.40881347-7.34207153-6.22766113-11.20977783-9.04650878-6.29318238-4.5232544-12.25863648-8.84985352-15.99520874-15.2741089-2.49108887-4.26104735-3.67105103-9.24316405-4.85101319-14.09417724l-1.17999267-4.71990967c-2.35995484-8.52203369-5.70321655-13.89752197-10.48867798-16.97857666-3.73660278-2.42547607-8.25982666-3.21212768-12.58642578-3.93322753-3.93325806-.6555481-7.99758911-1.37664795-11.4064331-3.34326172-3.60546876-2.03219605-6.35876466-5.37545777-9.04647828-8.58761597l-.19665527-.19665527c-3.08105469-3.67105103-5.89987183-6.94876099-9.76757813-8.91537476-3.80215454-1.90106201-9.30871582-2.4255066-12.97973633.78665161-4.6543579 3.99880982-3.93325805 11.47198487-1.24554443 16.71633911 1.04888916 2.09771729 2.4255066 4.12991333 3.73660278 6.09655762 1.83551026 2.75323486 3.73657227 5.57208252 4.85101319 8.71868897 1.70440674 4.85101318 1.37664795 10.29199218 1.04885864 15.53637695-.39331055 6.29315185-.72109985 12.84857178 2.35995483 18.48626709 3.40881348 6.29321289 10.02978516 9.43981933 16.45410157 12.52087402 5.17880249 2.49102783 10.55422973 5.04766846 14.22528076 9.30871582 4.9821167 5.70318604 6.0965271 13.24194336 7.27651977 21.17401123.72109986 5.04766846 1.50775147 10.29199219 3.40881348 15.01190186 2.88439941 7.40759277 8.65316773 13.76635742 15.79858399 17.30627441 4.78546142 2.42553711 12.7175293 4.65441895 19.40405273 4.65441895 2.8843689 0 5.57208252-.39337158 7.66983032-1.44226074 8.52206421-4.12988282 14.55303955-15.99517823 15.99523926-25.6972046 1.63885498-11.73425292-2.22885132-24.32061767-10.22647095-32.97381591zM29.82717896 61.4243164c-1.70440674-.85220337-3.73660279-1.37664795-5.76876832-1.37664795-1.90109252 0-3.80215454.45889282-5.309906 1.63885498l14.9463501 20.71514892 2.62219238-15.79858398c-1.96664429-2.09771729-4.06436157-3.93325806-6.48986816-5.17877197zm-12.0619812 1.1144104l14.68417358 20.45291137-12.97976685-2.09771728c-.7866211-1.24554444-1.50772095-2.4255066-2.16326904-3.73660278-2.35995483-4.58880616-3.08105469-10.94754029.4588623-14.61859131zm21.56735229 7.66986084c2.75326538 3.34326172 5.57211304 6.7520752 9.37423706 8.91537475 1.17999268.6555481 2.4255066 1.17996216 3.73660278 1.63885498l-3.73660278 22.6817627-13.96304321-19.4696045 2.62216186-16.06079101c.58999634.6555481 1.17999268 1.37664795 1.7699585 2.0977478l.19668579.19665528zm24.45172119 54.14779663l6.4243164-39.26702881c-2.94992065-1.31103516-6.2276306-1.90106201-9.6364746-2.5565796-2.29440308-.39334106-4.6543274-.7866516-6.88317871-1.4421997l-3.8677063 23.79620362 13.96304321 19.46960449zM20.9118042 83.05718994c1.90106201 2.81884766 3.86767578 5.76879883 4.9821167 9.04650879.98330688 2.81884766 1.31106567 5.70324707 1.37661743 8.6531372v-.1311035l20.19070435 3.27770995-13.96304322-19.40405273-13.04528808-2.16326904c.13110351.26220703.32775879.45889282.45889282.72106933zm61.68652344 19.53515625c.39331054 1.50775147.7866516 3.14660645 1.17996215 4.65435791.26223755 1.04888916.52444458 2.03222656.78665162 3.08105469l-5.70321656 35.00598144-14.02859497-19.46960449h.06555176l6.55541992-40.18475342c.39334107.19665528.78665161.4588623 1.17999268.72106934 4.58877563 2.88439941 7.73538208 8.06317139 9.9642334 16.19189453zm-55.52441407 5.57214356c.13110352-2.03216553.26220704-4.12994385.26220704-6.22766114l21.23956298 3.47436524 13.96304322 19.40405273-35.46481324-5.83428955c-.45889282-3.34332275-.26223754-7.01434326 0-10.81646728zm66.79974366 58.14660644l5.44100952-33.23602295c-4.06436157-3.27770996-7.86651612-6.81762695-10.48867798-11.34088135-1.50775147-2.62213134-2.5566101-5.440979-3.40881348-8.32537841l-5.50656128 33.43267822 13.96304322 19.4696045zM27.3361206 120.4230957c.32775878 1.90106201.91775512 3.73657227 1.901062 5.50653076 3.21215821 5.89990235 9.37426759 8.84985352 15.9296875 11.9309082 2.62216187 1.24554444 5.30990601 2.5565796 7.80096436 4.06433106v-.19665527l24.64837647 4.06439209-13.96304322-19.40405274-36.31704711-5.9654541zm88.36709594 25.36950684l-6.75210571 41.43029785-13.96304321-19.4696045 5.50656128-33.760437c1.50775146 1.17999267 3.08105468 2.29437256 4.6543579 3.40881347 3.60546876 2.55664063 7.34207154 5.24432373 10.55422974 8.39093018zm-55.98330688 1.70440674c-1.3110962-1.50769043-2.88439942-2.81878662-4.5232544-3.9987793l23.46841431 3.86767578 13.96304321 19.40405274-26.41833496-4.32653809v.13110352c-1.11444092-5.5065918-2.7532959-10.81646729-6.48986816-15.07751465zm57.94992065 51.7878418c4.91659546-5.3098755 8.25985718-13.30749512 9.30871582-20.12512208 1.7699585-11.27532959-1.96661377-23.46844482-9.76757812-31.859375l-.39334107-.39331054L110 188.6651001l7.66983032 10.61975097zm-23.9272766-31.00714112l-27.33612061-4.45770264c.32775878 1.83551026.58999633 3.67102051.91775512 5.50653077.58999634 4.06439209 1.24554444 8.1942749 2.4255066 12.12756347l37.9559021 6.22766114-13.96304322-19.40405274zm17.89630126 35.59594727c-6.4243164 3.08105468-19.40405273.06555175-25.8939209-3.2121582-6.81762695-3.40881348-12.38973999-9.5053711-15.14303589-16.65075684l-.39331054-1.17999268 38.6114502 6.2932129 7.93203735 11.0786743c-1.57327271 1.57330323-3.27770997 2.81878663-5.11322022 3.67102052z"/>
          <g>
            <path fill="rgb(110,131,240)" fill-rule="evenodd" d="M67.45530393 208.72467223c-9.0464839-4.91656734-16.06078665-12.84862932-22.28843861-21.10846246-6.22765197-8.25983313-11.79976163-16.97854588-18.81406437-24.51728248-7.1454112-7.60429082-15.79856972-13.76638855-25.30393325-18.15852205-1.63885578-.78665077-1.17997616-3.21215733.58998808-3.34326579 18.09296782-.91775924 36.38259833.852205 53.23003576 7.47318236 19.14183552 7.5387366 36.1203814 21.89511323 43.79022646 40.97139452 2.88438617 7.21096543 5.2443385 19.86293206-4.3921335 22.41954708-8.84982121 2.35995232-19.01072705.52443385-26.81168057-3.73659118z"/>
            <path fill="rgb(149,166,255)" fill-rule="evenodd" d="M97.47914184 207.54469607c-.26221693 0-.52443385-.13110847-.58998809-.3933254-12.12753277-28.38498211-36.44815256-43.98688914-54.73778307-52.05005959-19.86293206-8.84982121-37.03814064-10.94755661-37.23480334-10.94755661-.32777115-.06555423-.58998808-.39332539-.58998808-.72109654.06555423-.32777116.39332539-.58998808.72109654-.58998808.1966627 0 17.56853397 2.16328963 37.5625745 11.01311084 18.4862932 8.1942789 43.13468415 23.99284863 55.39332539 52.77115614.13110846.32777116 0 .72109654-.32777116.852205-.06555423.06555424-.13110846.06555424-.1966627.06555424z"/>
          </g>
        </g>
        <g>
          <g>
            <path fill="rgb(110,131,240)" fill-rule="evenodd" d="M208.52800954 54.67222884c.91775923-4.52324195 3.67103694-8.3909416 7.60429082-10.55423122 6.35876043-3.60548272 15.66746126-3.01549464 20.05959475-8.78426699 4.32657926-5.70321812 2.22884386-15.7330155 7.86650775-20.12514899 5.11323004-3.9988081 13.96305125-1.11442193 19.86293206-4.06436233 2.9499404-1.50774732 4.85101311-4.26102503 7.47318236-6.16209774 2.62216925-1.9010727 6.75208582-2.68772348 9.76758046-.26221692 2.29439809 1.9010727 3.01549463 5.0476758 2.49106078 7.53873659-.52443385 2.49106079-2.0977354 4.52324195-3.60548272 6.42431466-1.57330154 1.9010727-3.1466031 3.86769964-3.8021454 6.2932062-1.2455304 4.71990465 1.17997616 10.55423123-.32777116 15.20858164-1.2455304 3.67103695-4.71990465 5.83432658-8.25983314 7.27651967-3.53992848 1.44219309-7.47318236 2.49106079-10.35756853 4.91656734-5.57210966 4.58879619-6.42431466 13.04529202-10.55423123 19.01072706-3.80214541 5.44100119-10.55423123 8.45649583-17.8307509 7.9976162-5.63766388-.32777115-13.83194278-3.08104886-17.83075089-8.1942789-3.21215733-4.06436233-3.40882002-12.45530393-2.55661501-16.51966627z"/>
            <path fill="rgb(149,166,255)" fill-rule="evenodd" d="M214.49344458 75.05959476c-.13110847 0-.32777116-.06555424-.45887962-.1966627-.26221693-.26221692-.26221693-.65554231 0-.91775924l66.66865316-69.68414779c.26221692-.26221693.6555423-.26221693.91775923 0 .26221693.26221692.26221693.65554231 0 .91775924l-66.66865315 69.6841478c-.13110847.13110845-.26221693.19666269-.45887962.19666269z"/>
          </g>
          <g>
            <path fill="rgb(155,162,198)" fill-rule="evenodd" d="M251.79380215 65.88200238c5.0476758-.852205 9.70202622-3.40882002 13.96305125-6.2932062 4.26102503-2.88438617 8.32538736-6.0965435 12.84862932-8.45649582 4.58879618-2.42550656 9.70202622-3.93325388 14.88081049-4.3921335.91775923-.06555423 1.11442193-1.31108462.26221692-1.63885578-8.3909416-3.40882002-17.30631704-5.57210965-26.28724672-5.17878426-10.22646007.45887962-20.5840286 4.45768772-27.33611442 12.193087-2.55661502 2.94994041-5.70321812 8.52205007-1.57330155 11.27532778 3.73659118 2.49106078 8.84982121 3.27771156 13.2419547 2.49106078z"/>
            <path fill="rgb(208,213,242)" fill-rule="evenodd" d="M237.96185936 60.4410012c-.06555423 0-.13110847 0-.1966627-.06555424-.13110846-.13110846-.13110846-.32777116 0-.45887962 20.05959476-22.09177592 53.88557807-14.94636472 54.21334923-14.88081049.1966627.06555423.26221692.1966627.26221692.3933254-.06555423.19666268-.1966627.26221692-.39332538.26221692-.32777116-.06555424-33.82598332-7.1454112-53.55780692 14.6841478-.13110846.06555422-.26221692.06555422-.32777115.06555422z"/>
          </g>
        </g>
      </g>
      <g>
        <g>
          <g>
            <rect width="23.6" height="159.297" x="247.926" y="54.213" fill="rgb(255,92,91)" rx="0" ry="0"/>
            <rect width="18.617" height="85.876" x="250.417" y="60.113" fill="rgb(255,255,255)" rx="0" ry="0"/>
            <g>
              <rect width="16.257" height="1.901" x="251.597" y="62.408" fill="rgb(255,92,91)" rx="0" ry="0"/>
              <rect width="16.257" height="1.901" x="251.597" y="140.417" fill="rgb(255,92,91)" rx="0" ry="0"/>
            </g>
            <g>
              <ellipse cx="259.726" cy="183.683" fill="rgb(199,199,199)" rx="8.522" ry="8.522"/>
              <ellipse cx="259.726" cy="183.683" fill="rgb(57,129,189)" rx="7.211" ry="7.211"/>
            </g>
          </g>
          <g>
            <path fill="rgb(8,12,31)" fill-rule="evenodd" d="M249.95828367 210.88796186c.65554231-.1966627 1.31108463-.26221693 1.96662694-.26221693s1.31108462.06555424 1.96662693.26221693c-.6555423.1966627-1.31108462.26221692-1.96662693.26221692-.65554231 0-1.31108463-.06555423-1.96662694-.26221692z"/>
            <path fill="rgb(8,12,31)" fill-rule="evenodd" d="M249.95828367 207.93802145c.39332539-.19666269.78665078-.26221692 1.17997616-.26221692.3933254 0 .78665078.06555423 1.17997617.26221692-.3933254.1966627-.78665078.26221693-1.17997617.26221693-.39332538 0-.78665077-.06555423-1.17997616-.26221693z"/>
          </g>
        </g>
        <g>
          <g>
            <rect width="23.6" height="159.297" x="225.638" y="54.213" fill="rgb(253,179,44)" rx="0" ry="0"/>
            <rect width="18.617" height="85.876" x="228.129" y="60.113" fill="rgb(255,255,255)" rx="0" ry="0"/>
            <g>
              <rect width="16.257" height="1.901" x="229.309" y="62.408" fill="rgb(253,179,44)" rx="0" ry="0"/>
              <rect width="16.257" height="1.901" x="229.309" y="140.417" fill="rgb(253,179,44)" rx="0" ry="0"/>
            </g>
            <g>
              <ellipse cx="237.437" cy="183.683" fill="rgb(199,199,199)" rx="8.522" ry="8.522"/>
              <ellipse cx="237.437" cy="183.683" fill="rgb(57,129,189)" rx="7.211" ry="7.211"/>
            </g>
          </g>
          <g>
            <path fill="rgb(8,12,31)" fill-rule="evenodd" d="M243.46841478 208.26579261c-.32777116.1966627-.65554231.26221693-.98331347.26221693-.32777116 0-.65554231-.06555424-.98331347-.26221693.32777116-.1966627.65554231-.26221692.98331347-.26221692.26221693.06555423.65554231.06555423.98331347.26221692z"/>
            <path fill="rgb(8,12,31)" fill-rule="evenodd" d="M237.50297974 211.21573302c.852205-.1966627 1.76996424-.26221693 2.62216925-.26221693.852205 0 1.76996424.06555423 2.62216925.26221693-.85220501.19666269-1.76996425.26221692-2.62216925.26221692-.852205 0-1.70441002-.06555423-2.62216925-.26221692z"/>
          </g>
        </g>
        <g>
          <g>
            <rect width="23.6" height="159.297" x="288.838" y="53.548" fill="rgb(188,223,253)" rx="0" ry="0" transform="rotate(-12.950005 300.63790145 133.19666461)"/>
            <rect width="18.617" height="85.876" x="284.445" y="60.23" fill="rgb(255,255,255)" rx="0" ry="0" transform="rotate(-12.950005 293.75396398 103.16763525)"/>
            <g>
              <rect width="16.257" height="1.901" x="276.7" y="63.515" fill="rgb(188,223,253)" rx="0" ry="0" transform="rotate(-12.950005 284.82913796 64.46532036)"/>
              <rect width="16.257" height="1.901" x="294.209" y="139.552" fill="rgb(188,223,253)" rx="0" ry="0" transform="rotate(-12.950005 302.33804335 140.50220004)"/>
            </g>
            <g>
              <ellipse cx="311.808" cy="181.723" fill="rgb(199,199,199)" rx="8.522" ry="8.522" transform="rotate(-57.46002 311.8077365 181.72293705)"/>
              <ellipse cx="311.838" cy="181.726" fill="rgb(57,129,189)" rx="7.211" ry="7.211" transform="rotate(-11.958004 311.83759308 181.72645221)"/>
            </g>
          </g>
          <path fill="rgb(8,12,31)" fill-rule="evenodd" d="M308.62932062 209.9046484c1.17997616-.52443386 2.35995232-.85220502 3.53992849-1.2455304 1.17997616-.32777116 2.42550655-.58998808 3.67103694-.72109655-1.17997616.52443385-2.35995232.91775924-3.53992848 1.2455304-1.17997616.32777115-2.42550656.58998808-3.67103695.72109654z"/>
        </g>
      </g>
      <g>
        <rect width="140.942" height="190.763" x="84.762" y="22.747" fill="rgb(255,255,255)" rx="0" ry="0"/>
        <g>
          <g>
            <rect width="127.372" height="172.408" x="91.514" y="31.925" fill="rgb(179,179,179)" rx="0" ry="0"/>
            <g>
              <g>
                <rect width="31.925" height="10.489" x="139.237" y="128.749" fill="rgb(255,255,255)" rx="0" ry="0"/>
                <rect width="39.923" height="4.327" x="135.238" y="144.482" fill="rgb(92,92,92)" rx="0" ry="0"/>
              </g>
              <g>
                <path fill="rgb(8,12,31)" fill-rule="evenodd" d="M106.06674613 201.05482718c-.91775924.06555423-1.83551848.13110846-2.68772348.13110846-.91775924 0-1.83551848.06555423-2.68772348.06555423H95.3158522v-.45887962c.91775923 0 1.83551847.06555423 2.7532777.06555423.91775924 0 1.83551848.06555423 2.75327772.13110846-.91775924.06555424-1.83551848.13110847-2.75327771.13110847-.91775924 0-1.83551848.06555423-2.75327771.06555423v-.45887962h5.37544696c.91775923 0 1.83551847.06555423 2.68772348.06555423.91775923.1966627 1.76996424.1966627 2.68772348.26221693z"/>
                <path fill="rgb(8,12,31)" fill-rule="evenodd" d="M95.25029797 197.44934446c.65554232-.1966627 1.31108463-.26221693 1.96662694-.26221693s1.31108463.06555423 1.96662694.26221693c-.65554231.1966627-1.31108463.26221692-1.96662694.26221692s-1.31108462-.06555423-1.96662694-.26221692z"/>
              </g>
              <g>
                <path fill="rgb(8,12,31)" fill-rule="evenodd" d="M151.5613826 130.45292014c1.31108462-.1966627 2.68772348-.26221692 3.9988081-.26221692 1.31108463 0 2.68772348.06555423 3.9988081.26221692-1.31108462.1966627-2.68772347.26221693-3.9988081.26221693-1.31108462-.06555423-2.62216925-.06555423-3.9988081-.26221693z"/>
                <path fill="rgb(8,12,31)" fill-rule="evenodd" d="M146.57926103 133.40286055c1.50774731-.13110846 3.01549463-.13110846 4.52324195-.1966627 1.50774732-.06555423 3.01549464-.06555423 4.52324195-.06555423 1.50774732 0 3.01549464 0 4.52324196.06555423 1.50774732.06555424 3.01549464.06555424 4.52324195.1966627-1.50774731.13110846-3.01549463.13110846-4.52324195.1966627-1.50774732.06555422-3.01549464.06555422-4.52324196.06555422-1.50774731 0-3.01549463 0-4.52324195-.06555423l-4.52324195-.1966627z"/>
                <path fill="rgb(8,12,31)" fill-rule="evenodd" d="M152.08581645 136.81168057c1.17997616-.1966627 2.35995232-.26221692 3.53992848-.26221692 1.17997617 0 2.35995233.06555423 3.5399285.26221692-1.17997617.1966627-2.35995233.26221693-3.5399285.26221693-1.17997616 0-2.35995232-.06555423-3.53992848-.26221693z"/>
              </g>
            </g>
          </g>
          <g>
            <g>
              <g>
                <path fill="rgb(85,193,242)" fill-rule="evenodd" d="M236.25744934 140.35160906l-6.68653158 4.8510131-10.6853397-4.98212156v-9.96424315l6.62097736-4.78545888 10.75089392 14.88081049z"/>
                <path fill="rgb(219,227,255)" fill-rule="evenodd" d="M235.7330155 148.15256257l-7.86650775 16.5852205-8.98092968-4.26102502V140.2205006l10.68533969 4.98212157 6.16209773 2.9499404z"/>
              </g>
              <path fill="rgb(253,179,44)" fill-rule="evenodd" d="M91.5137068 141.40047676v20.5840286L69.61859355 147.5625745l9.50536353-14.42193087 12.3897497 8.25983314z"/>
            </g>
            <g>
              <path fill="rgb(8,12,31)" fill-rule="evenodd" d="M228.65315852 147.30035757c.65554231.13110846 1.17997616.32777115 1.76996425.58998808.52443385.26221692 1.0488677.58998808 1.50774731 1.0488677-.6555423-.13110846-1.17997616-.32777116-1.76996424-.58998808-.52443385-.26221693-1.0488677-.58998808-1.50774732-1.0488677z"/>
              <path fill="rgb(8,12,31)" fill-rule="evenodd" d="M229.30870083 150.25029797c.52443385.13110847.91775924.32777116 1.31108463.58998808.39332539.26221693.72109654.58998809.98331347 1.0488677-.52443385-.13110846-.91775924-.32777115-1.31108463-.58998808-.32777115-.26221692-.72109654-.58998808-.98331347-1.0488677z"/>
            </g>
            <path fill="rgb(8,12,31)" fill-rule="evenodd" d="M223.73659118 129.9284863c.1966627-.32777116.39332539-.52443386.65554231-.72109655.26221693-.1966627.58998808-.32777116.91775924-.32777116-.13110846.32777116-.39332539.52443385-.65554231.72109655-.26221693.1966627-.52443385.32777115-.91775924.32777115z"/>
            <path fill="rgb(8,12,31)" fill-rule="evenodd" d="M73.61740167 145.66150179c.1966627-.39332539.52443385-.72109655.852205-.98331347.32777116-.26221693.65554232-.52443385 1.11442194-.65554231-.1966627.39332538-.52443385.72109654-.85220501.98331347-.26221693.32777115-.65554231.52443385-1.11442193.6555423z"/>
          </g>
        </g>
        <g>
          <g>
            <path fill="rgb(219,227,255)" fill-rule="evenodd" d="M133.66507747 72.24076281l-39.0703218 4.1954708c-.58998809.06555423-1.11442194-.39332539-1.17997617-.91775924L86.20381406 8.52205006c-.06555423-.58998808.3933254-1.11442193.91775924-1.17997616l39.07032181-4.1954708c.58998808-.06555423 1.11442193.39332539 1.17997617.91775924l7.21096543 66.93087008c.13110846.65554231-.32777116 1.17997616-.91775924 1.2455304z"/>
            <rect width="41.43" height="69.487" x="93.614" y="5.445" fill="rgb(255,255,255)" rx="0" ry="0" transform="rotate(-24.105009 114.32896549 40.18866398)"/>
            <g>
              <path fill="rgb(69,176,224)" fill-rule="evenodd" d="M187.0262217 13.17640048l-3.73659119 7.21096543h-38.80810488c-1.11442194 0-2.03218117.91775924-2.03218117 2.03218117v50.93563766c0 1.11442193.91775923 2.03218117 2.03218117 2.03218117h74.40405244c1.11442193 0 2.03218117-.91775924 2.03218117-2.03218117V14.09415971c0-1.11442193-.91775924-2.03218116-2.03218117-2.03218116h-30.0238379c-.78665078 0-1.44219309.39332538-1.83551848 1.11442193z"/>
              <rect width="74.535" height="57.36" x="144.482" y="13.766" fill="rgb(255,255,255)" rx="0" ry="0"/>
              <path fill="rgb(85,193,242)" fill-rule="evenodd" d="M187.0262217 16.71632896l-3.73659119 7.21096544h-38.80810488c-1.11442194 0-2.03218117.91775924-2.03218117 2.03218117v50.93563766c0 1.11442193.91775923 2.03218117 2.03218117 2.03218117h74.40405244c1.11442193 0 2.03218117-.91775924 2.03218117-2.03218117v-59.1954708c0-1.11442193-.91775924-2.03218117-2.03218117-2.03218117h-30.0238379c-.78665078 0-1.44219309.3933254-1.83551848 1.0488677z"/>
            </g>
            <g>
              <path fill="rgb(253,155,44)" fill-rule="evenodd" d="M166.70441001 12.71752086l-4.98212157 6.48986889-38.15256258-6.81764005c-1.11442193-.1966627-2.16328963.52443385-2.35995232 1.63885578l-8.91537545 50.1489869c-.1966627 1.11442192.52443385 2.16328962 1.63885578 2.35995232l73.22407628 13.04529201c1.11442194.1966627 2.16328964-.52443385 2.35995233-1.63885578l8.58760429-48.44457688.65554231-3.73659118 1.11442193-6.22765196c.1966627-1.11442194-.52443385-2.16328963-1.63885578-2.35995233l-29.56495828-5.2443385c-.72109654-.13110846-1.50774732.1966627-1.96662694.78665078z"/>
              <g>
                <path fill="rgb(255,255,255)" fill-rule="evenodd" d="M188.00953516 75.38736591L114.65435042 62.3420739l8.65315852-48.44457688 7.86650775-6.88319428 66.93087008 11.86531585-10.0953516 56.50774732z"/>
                <path fill="rgb(219,227,255)" fill-rule="evenodd" d="M123.30750894 13.89749702l7.86650775-6.88319428 2.0977354 8.78426699-9.96424315-1.90107271z"/>
              </g>
              <path fill="rgb(253,179,44)" fill-rule="evenodd" d="M166.11442193 16.25744934l-4.98212157 6.4898689-38.15256258-6.81764005c-1.11442193-.1966627-2.16328963.52443385-2.35995232 1.63885578L111.70441 67.71752086c-.1966627 1.11442193.52443385 2.16328963 1.63885578 2.35995232l73.22407628 13.04529202c1.11442193.19666269 2.16328963-.52443385 2.35995233-1.63885578l8.65315852-48.37902265.65554231-3.73659118 1.11442193-6.22765197c.1966627-1.11442193-.52443385-2.16328963-1.63885578-2.35995232l-29.56495828-5.2443385c-.852205-.1966627-1.57330155.13110846-2.03218117.72109654z"/>
            </g>
          </g>
          <g>
            <g opacity=".41">
              <rect width="132.223" height="3.933" x="89.088" y="119.702" fill="rgb(148,148,148)" rx="0" ry="0"/>
            </g>
            <g>
              <rect width="132.223" height="89.35" x="89.088" y="30.286" fill="rgb(199,199,199)" rx="0" ry="0"/>
              <g>
                <rect width="31.925" height="10.489" x="139.237" y="39.595" fill="rgb(255,255,255)" rx="0" ry="0"/>
                <rect width="39.923" height="4.327" x="135.238" y="55.328" fill="rgb(92,92,92)" rx="0" ry="0"/>
              </g>
              <g>
                <path fill="rgb(8,12,31)" fill-rule="evenodd" d="M199.15375447 116.16209774c1.31108462-.13110847 2.68772348-.13110847 3.9988081-.1966627 1.31108463-.06555423 2.68772348-.06555423 3.9988081-.06555423 1.31108463 0 2.68772349 0 3.99880811.06555423 1.31108463.06555423 2.68772348.06555423 3.9988081.1966627-1.31108462.13110846-2.68772347.13110846-3.9988081.19666269-1.31108462.06555423-2.68772348.06555423-3.9988081.06555423-1.31108463 0-2.68772348 0-3.9988081-.06555423-1.31108463 0-2.62216925-.06555423-3.99880811-.1966627z"/>
                <path fill="rgb(8,12,31)" fill-rule="evenodd" d="M212.19904648 113.53992849c.52443385-.1966627.98331347-.26221693 1.50774732-.26221693s.98331347.06555423 1.50774732.26221693c-.52443385.19666269-.98331347.26221692-1.50774732.26221692-.45887962 0-.98331347-.06555423-1.50774732-.26221692z"/>
              </g>
              <g>
                <path fill="rgb(8,12,31)" fill-rule="evenodd" d="M146.38259833 41.5613826c1.50774732-.13110846 3.08104887-.13110846 4.58879619-.1966627 1.50774732-.06555423 3.08104886-.06555423 4.58879618-.06555423s3.08104887 0 4.58879619.06555423c1.50774732.06555424 3.08104887.06555424 4.58879619.1966627-1.50774732.13110846-3.08104887.13110846-4.5887962.1966627-1.5077473.06555422-3.08104886.06555422-4.58879618.06555422s-3.08104886 0-4.58879618-.06555423-3.01549464-.13110846-4.58879619-.1966627z"/>
                <path fill="rgb(8,12,31)" fill-rule="evenodd" d="M142.77711561 44.64243147c2.16328963-.13110847 4.26102503-.13110847 6.42431466-.1966627 2.16328963-.06555423 4.26102503-.06555423 6.42431466-.06555423 2.16328963 0 4.26102503 0 6.42431466.06555423 2.16328964.06555423 4.26102503.06555423 6.42431467.1966627-2.16328964.13110846-4.26102503.13110846-6.42431467.19666269-2.16328963.06555423-4.26102503.06555423-6.42431466.06555423-2.16328963 0-4.26102503 0-6.42431466-.06555423-2.16328963-.06555423-4.26102503-.13110846-6.42431466-.1966627z"/>
              </g>
              <g>
                <path fill="rgb(8,12,31)" fill-rule="evenodd" d="M90.66150179 34.2193087c1.0488677-.1966627 2.0977354-.26221692 3.21215733-.26221692 1.0488677 0 2.0977354.06555423 3.21215733.26221692-1.0488677.1966627-2.0977354.26221693-3.21215733.26221693-1.0488677 0-2.16328963-.06555424-3.21215733-.26221693z"/>
                <path fill="rgb(8,12,31)" fill-rule="evenodd" d="M90.66150179 38.48033373c1.63885578-.13110846 3.27771156-.13110846 4.91656734-.1966627 1.63885578-.06555422 3.27771156-.06555422 4.91656734-.06555422s3.27771156 0 4.91656734.06555423 3.27771157.06555423 4.91656735.1966627c-1.63885578.13110845-3.27771157.13110845-4.91656735.19666268-1.63885578.06555424-3.27771156.06555424-4.91656734.06555424s-3.27771156 0-4.91656734-.06555424c-1.63885578 0-3.27771156-.06555423-4.91656734-.19666269z"/>
              </g>
            </g>
          </g>
        </g>
      </g>
    </g>
  </g>
</svg>
