<?xml version="1.0" encoding="utf-8"?>
<!-- Generator: Adobe Illustrator 24.0.0, SVG Export Plug-In . SVG Version: 6.00 Build 0)  -->
<svg version="1.1" id="Layer_1" xmlns="http://www.w3.org/2000/svg" xmlns:xlink="http://www.w3.org/1999/xlink" x="0px" y="0px"
	 viewBox="0 0 100 100" style="enable-background:new 0 0 100 100;" xml:space="preserve">
<style type="text/css">
	.st0{fill:#2C3248;}
	.st1{fill:#9BA2C6;}
</style>
<title>unknown-user</title>
<g>
	<rect class="st0" width="100" height="100"/>
	<path class="st1" d="M85,86v6.5c0,4.1-3.3,7.5-7.5,7.5c0,0,0,0,0,0h-55c-4.1,0-7.5-3.4-7.5-7.5c0,0,0,0,0,0V86
		c0-11.6,9.3-21,20.9-21c0,0,0,0,0,0h2.6c7.2,3.3,15.5,3.3,22.8,0H64C75.5,64.9,85,74.3,85,86C85,86,85,86,85,86z M30,40
		c0-11,8.9-20,20-20s20,8.9,20,20S61,60,50,60C39,60,30,51,30,40C30,40,30,40,30,40z"/>
</g>
</svg>
