<?xml version="1.0" encoding="utf-8"?>
<!-- Generator: Adobe Illustrator 24.0.0, SVG Export Plug-In . SVG Version: 6.00 Build 0)  -->
<svg version="1.1" id="Layer_1" xmlns="http://www.w3.org/2000/svg" xmlns:xlink="http://www.w3.org/1999/xlink" x="0px" y="0px"
	 viewBox="0 0 102 6" style="enable-background:new 0 0 102 6;" xml:space="preserve">
<style type="text/css">
	.st0{fill:#6D6E71;}
	.st1{fill:#00AF9F;}
</style>
<g>
	<g>
		<path class="st0" d="M2.8,0.5c0.2,0,0.4,0,0.5,0.1c0.2,0.1,0.3,0.1,0.5,0.3C4,0.9,4.1,1.1,4.2,1.2c0.1,0.2,0.1,0.4,0.1,0.6
			c0,0.3,0,0.5-0.1,0.7C4.1,2.7,4,2.8,3.8,2.9C3.7,3.1,3.6,3.1,3.4,3.2C3.2,3.2,3,3.3,2.8,3.3H0.7v2.1H0V0.5H2.8z M0.7,1.2v1.4h2.1
			c0.2,0,0.3,0,0.4-0.1c0.1,0,0.2-0.1,0.2-0.2c0-0.1,0.1-0.2,0.1-0.2c0-0.1,0-0.2,0-0.2c0-0.2-0.1-0.3-0.2-0.5
			C3.3,1.2,3.1,1.2,2.8,1.2H0.7z"/>
		<path class="st0" d="M13,5.4h-0.8l-0.7-1.6H9.3L8.6,5.4H7.8L10,0.5h0.8L13,5.4z M10.4,1.3L9.6,3.1h1.5L10.4,1.3z"/>
		<polygon class="st0" points="17.1,0.5 17.8,0.5 17.8,4.7 20.8,4.7 20.8,5.4 17.1,5.4 		"/>
		<polygon class="st0" points="77,0.5 77.7,0.5 77.7,4.7 80.7,4.7 80.7,5.4 77,5.4 		"/>
		<rect x="85" y="0.5" class="st0" width="0.7" height="4.9"/>
		<polygon class="st0" points="89,0.5 89,1.2 90.7,1.2 90.7,5.4 91.4,5.4 91.4,1.2 93,1.2 93,0.5 		"/>
		<path class="st0" d="M29.3,5.4h-0.8l-0.7-1.6h-2.2l-0.7,1.6h-0.8l2.2-4.9h0.8L29.3,5.4z M26.7,1.3l-0.8,1.7h1.5L26.7,1.3z"/>
		<path class="st0" d="M38,4.5c-0.1,0.1-0.2,0.2-0.4,0.4c-0.1,0.1-0.3,0.2-0.5,0.3c-0.2,0.1-0.4,0.2-0.7,0.2
			c-0.3,0.1-0.6,0.1-0.9,0.1c-0.3,0-0.7-0.1-1-0.2c-0.3-0.1-0.6-0.3-0.8-0.5c-0.2-0.2-0.4-0.5-0.6-0.8c-0.1-0.3-0.2-0.7-0.2-1
			c0-0.4,0.1-0.7,0.2-1c0.1-0.3,0.3-0.6,0.5-0.8c0.2-0.2,0.5-0.4,0.8-0.6c0.3-0.1,0.7-0.2,1-0.2c0.3,0,0.6,0,0.9,0.1
			c0.3,0.1,0.5,0.2,0.7,0.3c0.2,0.1,0.4,0.2,0.5,0.3c0.1,0.1,0.2,0.2,0.3,0.3l-0.5,0.5c-0.1,0-0.1-0.1-0.2-0.2
			c-0.1-0.1-0.2-0.2-0.4-0.2c-0.2-0.1-0.3-0.2-0.5-0.2c-0.2-0.1-0.4-0.1-0.7-0.1c-0.2,0-0.5,0-0.7,0.1c-0.2,0.1-0.4,0.2-0.6,0.4
			c-0.2,0.2-0.3,0.4-0.4,0.6c-0.1,0.2-0.2,0.5-0.2,0.8c0,0.2,0,0.4,0.1,0.7C33.8,3.8,34,4,34.1,4.2c0.2,0.2,0.4,0.3,0.6,0.4
			c0.3,0.1,0.6,0.2,0.9,0.2c0.3,0,0.5,0,0.7-0.1c0.2-0.1,0.4-0.1,0.5-0.2c0.1-0.1,0.3-0.2,0.4-0.3c0.1-0.1,0.2-0.2,0.2-0.2L38,4.5z"
			/>
		<polygon class="st0" points="47.3,0.5 47.3,1.2 44,1.2 44,2.5 45.6,2.5 45.6,3.2 44,3.2 44,4.7 47.4,4.7 47.4,5.4 43.3,5.4 
			43.3,0.5 		"/>
		<polygon class="st0" points="72.6,0.5 72.6,1.2 69.2,1.2 69.2,2.5 70.9,2.5 70.9,3.2 69.2,3.2 69.2,4.7 72.7,4.7 72.7,5.4 
			68.5,5.4 68.5,0.5 		"/>
		<polygon class="st0" points="101.3,0.5 101.3,1.2 98,1.2 98,2.5 99.7,2.5 99.7,3.2 98,3.2 98,4.7 101.5,4.7 101.5,5.4 97.3,5.4 
			97.3,0.5 		"/>
	</g>
	<g>
		<polygon class="st1" points="54,4.8 55.1,3 52.7,1.3 		"/>
		<path class="st1" d="M53.9,4.6l0.4,1c1,0,2-0.1,3-0.1c1.1,0,2.1,0,3.1,0.1l0.3-1c-1.1-0.1-2.3-0.1-3.5-0.1
			C56.2,4.5,55,4.5,53.9,4.6"/>
		<polygon class="st1" points="59.5,3 60.7,4.9 61.9,1.3 		"/>
		<rect x="56.8" y="1.5" transform="matrix(0.708 -0.7062 0.7062 0.708 15.3199 41.0631)" class="st1" width="1" height="1"/>
		<rect x="55.8" y="2.5" transform="matrix(0.7071 -0.7071 0.7071 0.7071 14.3783 40.7134)" class="st1" width="1" height="1"/>
		<polygon class="st1" points="57.6,3 58.3,3.7 59,3 58.3,2.3 		"/>
	</g>
</g>
</svg>
