<?xml version="1.0" encoding="utf-8"?>
<!-- Generator: Adobe Illustrator 24.0.0, SVG Export Plug-In . SVG Version: 6.00 Build 0)  -->
<svg version="1.1" id="Layer_1" xmlns="http://www.w3.org/2000/svg" xmlns:xlink="http://www.w3.org/1999/xlink" x="0px" y="0px"
	 viewBox="0 0 200 24" style="enable-background:new 0 0 200 24;" xml:space="preserve">
<style type="text/css">
	.st0{fill:#101117;}
	.st1{fill:#706F6F;}
	.st2{fill:#644A4A;}
</style>
<title>logo-com</title>
<g>
	<path class="st0" d="M0,17.8V6.5C0,6,0.4,5.6,0.9,5.6c0,0,0,0,0,0c0.5,0,0.9,0.4,0.9,0.9c0,0,0,0,0,0v11.3c0,0.5-0.4,0.9-0.9,0.9
		c0,0,0,0,0,0C0.4,18.7,0,18.3,0,17.8C0,17.8,0,17.8,0,17.8z"/>
	<path class="st0" d="M9.4,18.2c-0.4-0.8-0.8-1.7-1.2-2.6c-0.7-1.5-1.7-3.4-2.5-5.1v7.2c-0.1,0.5-0.5,0.9-1,0.8
		c-0.4,0-0.8-0.4-0.8-0.8V6.5c0-0.4,0.3-0.8,0.7-0.9C5,5.5,5.5,5.7,5.7,6.1c0.4,0.8,0.8,1.7,1.2,2.6c0.7,1.5,1.6,3.4,2.5,5.1V6.5
		c0.1-0.5,0.5-0.9,1-0.8c0.4,0,0.8,0.4,0.8,0.8v11.3c0,0.4-0.3,0.8-0.7,0.9C10.1,18.8,9.6,18.6,9.4,18.2z"/>
	<path class="st0" d="M19.4,6.6c0,0.5-0.4,0.9-0.9,0.9c0,0,0,0,0,0h-1.6v10.3c-0.1,0.5-0.5,0.9-1,0.8c-0.4,0-0.8-0.4-0.8-0.8V7.5
		h-1.6c-0.5-0.1-0.9-0.5-0.8-1c0-0.4,0.4-0.8,0.8-0.8h5.1C19,5.6,19.4,6.1,19.4,6.6C19.4,6.6,19.4,6.6,19.4,6.6z"/>
	<path class="st0" d="M21.6,5.7h3.9c0.5-0.1,1,0.3,1,0.8c0.1,0.5-0.3,1-0.8,1c-0.1,0-0.1,0-0.2,0h-3V11H25c0.5,0.1,0.9,0.5,0.8,1
		c0,0.4-0.4,0.8-0.8,0.8h-2.5v3.9h3c0.5-0.1,1,0.3,1,0.8c0.1,0.5-0.3,1-0.8,1c-0.1,0-0.1,0-0.2,0h-3.9c-0.5,0-0.9-0.4-0.9-0.9
		c0,0,0,0,0,0V6.6C20.6,6.1,21,5.7,21.6,5.7C21.6,5.6,21.6,5.6,21.6,5.7z"/>
	<path class="st0" d="M27.8,17.7V6.5c0.1-0.5,0.5-0.9,1-0.8c0.4,0,0.8,0.4,0.8,0.8v10.3h3c0.5,0.1,0.9,0.5,0.8,1
		c0,0.4-0.4,0.8-0.8,0.8h-3.9C28.3,18.7,27.8,18.3,27.8,17.7C27.8,17.8,27.8,17.7,27.8,17.7z"/>
	<path class="st0" d="M34.6,17.7V6.5c0.1-0.5,0.5-0.9,1-0.8c0.4,0,0.8,0.4,0.8,0.8v10.3h3c0.5-0.1,1,0.3,1,0.8c0.1,0.5-0.3,1-0.8,1
		c-0.1,0-0.1,0-0.2,0h-3.9C35,18.7,34.6,18.3,34.6,17.7C34.6,17.7,34.6,17.7,34.6,17.7z"/>
	<path class="st0" d="M41.3,17.8V6.5c0.1-0.5,0.5-0.9,1-0.8c0.4,0,0.8,0.4,0.8,0.8v11.3c-0.1,0.5-0.5,0.9-1,0.8
		C41.7,18.6,41.4,18.2,41.3,17.8z"/>
	<path class="st0" d="M51.5,12.4v3.1c0,1.8-1.5,3.3-3.3,3.3S45,17.3,45,15.5V8.8c0-1.5,1-2.8,2.4-3.2c1.4-0.4,2.9,0.2,3.7,1.5
		c0.2,0.5,0.1,1-0.3,1.3c-0.4,0.3-1,0.1-1.3-0.3c0,0,0,0,0,0c-0.3-0.5-1-0.8-1.6-0.6c-0.6,0.2-1,0.7-1,1.3v6.6
		c0,0.8,0.6,1.4,1.4,1.4s1.4-0.6,1.4-1.4c0,0,0,0,0,0v-2.2h-1c-0.5-0.1-0.9-0.5-0.8-1c0-0.4,0.4-0.8,0.8-0.8h2
		C51.2,11.4,51.6,11.9,51.5,12.4z"/>
	<path class="st0" d="M54.2,5.7h3.9c0.5-0.1,1,0.3,1,0.8s-0.3,1-0.8,1c-0.1,0-0.1,0-0.2,0h-3V11h2.6c0.5-0.1,1,0.3,1,0.8
		s-0.3,1-0.8,1c-0.1,0-0.1,0-0.2,0h-2.6v3.9h3c0.5-0.1,1,0.3,1,0.8c0.1,0.5-0.3,1-0.8,1c-0.1,0-0.1,0-0.2,0h-3.9
		c-0.5,0-0.9-0.4-0.9-0.9c0,0,0,0,0,0V6.6C53.3,6.1,53.7,5.7,54.2,5.7C54.2,5.6,54.2,5.6,54.2,5.7z"/>
	<path class="st0" d="M66,18.2c-0.4-0.8-0.8-1.7-1.2-2.6c-0.7-1.5-1.7-3.4-2.5-5.1v7.2c-0.1,0.5-0.5,0.9-1,0.8
		c-0.4,0-0.8-0.4-0.8-0.8V6.5c0-0.4,0.3-0.8,0.7-0.9c0.4-0.1,0.9,0.1,1,0.5c0.4,0.8,0.8,1.7,1.2,2.6c0.7,1.5,1.6,3.4,2.4,5.1V6.5
		c0.1-0.5,0.5-0.9,1-0.8c0.4,0,0.8,0.4,0.8,0.8v11.3c0,0.4-0.3,0.8-0.7,0.9C66.6,18.8,66.2,18.6,66,18.2z"/>
	<path class="st0" d="M69.5,15.5V8.8c0-1.8,1.4-3.3,3.2-3.3c1.2,0,2.3,0.6,2.8,1.6c0.3,0.4,0.1,1-0.3,1.3c0,0,0,0,0,0
		c-0.5,0.2-1,0.1-1.3-0.3c-0.4-0.7-1.2-0.9-1.9-0.5c-0.4,0.2-0.7,0.7-0.7,1.2v6.6c0,0.8,0.6,1.4,1.4,1.4c0.5,0,1-0.3,1.3-0.7
		c0.3-0.4,0.8-0.6,1.3-0.4c0.4,0.2,0.6,0.8,0.4,1.3c0,0,0,0,0,0c-0.9,1.6-2.9,2.1-4.4,1.2C70.1,17.7,69.5,16.6,69.5,15.5L69.5,15.5z
		"/>
	<path class="st0" d="M78.2,5.7h3.9c0.5,0.1,0.9,0.5,0.8,1c0,0.4-0.4,0.8-0.8,0.8h-3V11h2.6c0.5,0.1,0.9,0.5,0.8,1
		c0,0.4-0.4,0.8-0.8,0.8h-2.5v3.9h3c0.5,0.1,0.9,0.5,0.8,1c0,0.4-0.4,0.8-0.8,0.8h-3.9c-0.5,0-0.9-0.4-0.9-0.9c0,0,0,0,0,0V6.6
		C77.3,6.1,77.7,5.7,78.2,5.7C78.2,5.6,78.2,5.6,78.2,5.7z"/>
	<path class="st0" d="M125.3,15.5V8.8c0-1.8,1.5-3.3,3.3-3.3c1.2,0,2.2,0.6,2.8,1.6c0.3,0.4,0.1,1-0.3,1.3c0,0,0,0,0,0
		c-0.5,0.2-1,0.1-1.3-0.4c-0.3-0.6-1-0.8-1.6-0.6c-0.6,0.2-1,0.7-1,1.3v6.6c0,0.8,0.6,1.4,1.4,1.4c0.5,0,1-0.3,1.3-0.7
		c0.3-0.4,0.8-0.6,1.3-0.4c0.4,0.3,0.6,0.8,0.4,1.3c0,0,0,0,0,0c-0.9,1.6-2.9,2.1-4.5,1.2C126,17.7,125.3,16.6,125.3,15.5
		L125.3,15.5z"/>
	<path class="st0" d="M132.8,15.5V8.8c0-1.8,1.5-3.3,3.3-3.3s3.3,1.5,3.3,3.3c0,0,0,0,0,0v6.6c0,1.8-1.5,3.3-3.3,3.3
		C134.3,18.7,132.8,17.3,132.8,15.5C132.8,15.5,132.8,15.5,132.8,15.5z M134.7,8.8v6.6c0,0.8,0.6,1.4,1.4,1.4c0.8,0,1.4-0.6,1.4-1.4
		V8.8c0-0.8-0.6-1.4-1.4-1.4C135.3,7.4,134.7,8.1,134.7,8.8z"/>
	<path class="st0" d="M141.1,17.8V6.5c0-0.5,0.4-0.9,0.9-0.9c0.4,0,0.7,0.2,0.9,0.6c0.2,0.6,0.5,1.1,0.8,1.7c0.4,1,1,2.2,1.5,3.1
		c0.4-1,1-2.1,1.5-3.1c0.2-0.6,0.5-1.1,0.8-1.7c0.2-0.5,0.8-0.7,1.3-0.4c0.3,0.2,0.5,0.5,0.5,0.8v11.3c-0.1,0.5-0.5,0.9-1,0.8
		c-0.4,0-0.8-0.4-0.8-0.8v-7.1c-0.3,0.7-0.7,1.4-0.9,1.9c-0.1,0.3-0.3,0.6-0.4,0.9c-0.1,0.3-0.5,0.5-0.8,0.6c-0.4,0-0.7-0.2-0.9-0.6
		c-0.1-0.3-0.3-0.6-0.4-0.9c-0.2-0.5-0.6-1.2-0.9-1.9v7.1c-0.1,0.5-0.5,0.9-1,0.8C141.5,18.6,141.2,18.2,141.1,17.8L141.1,17.8z"/>
	<path class="st0" d="M151.3,17.8V6.5c0-0.5,0.4-0.9,1-0.9c0.3,0,0.6,0.2,0.8,0.5c0.3,0.6,0.5,1.1,0.8,1.7c0.4,1,1,2.2,1.5,3.1
		c0.4-1,1-2.1,1.5-3.1c0.3-0.6,0.5-1.1,0.8-1.7c0.2-0.5,0.8-0.7,1.3-0.4c0.3,0.2,0.5,0.5,0.5,0.8v11.3c-0.1,0.5-0.5,0.9-1,0.8
		c-0.4,0-0.8-0.4-0.8-0.8v-7.1l-0.9,1.9c-0.1,0.3-0.3,0.6-0.4,0.9c-0.1,0.3-0.5,0.5-0.8,0.6c-0.4,0-0.7-0.2-0.9-0.6
		c-0.1-0.3-0.3-0.6-0.4-0.9c-0.3-0.5-0.6-1.2-0.9-1.9v7.1c-0.1,0.5-0.5,0.9-1,0.8C151.6,18.6,151.3,18.2,151.3,17.8L151.3,17.8z"/>
	<path class="st0" d="M161.4,17.8V6.5c0.1-0.5,0.5-0.9,1-0.8c0.4,0,0.8,0.4,0.8,0.8v11.3c-0.1,0.5-0.5,0.9-1,0.8
		C161.8,18.6,161.4,18.2,161.4,17.8z"/>
	<path class="st0" d="M169.4,15.5c0-0.4-0.1-0.9-0.4-1.2l-3.1-3.2c-0.7-0.7-1-1.6-0.9-2.5c0.1-0.9,0.5-1.8,1.3-2.4
		c0.8-0.6,1.7-0.8,2.6-0.6c0.9,0.2,1.7,0.8,2.2,1.6c0.2,0.5,0.1,1-0.4,1.3c-0.4,0.3-1,0.1-1.3-0.3c0,0,0,0,0,0
		c-0.2-0.3-0.5-0.6-0.9-0.7c-0.4-0.1-0.8,0-1.1,0.3c-0.3,0.2-0.5,0.6-0.5,1c0,0.4,0.1,0.8,0.4,1.1l3.1,3.2c1.3,1.3,1.3,3.4-0.1,4.7
		c-0.1,0.1-0.2,0.2-0.3,0.3c-1.5,1.1-3.6,0.8-4.7-0.6c-0.1-0.1-0.2-0.3-0.3-0.4c-0.3-0.4-0.1-1,0.3-1.3c0,0,0,0,0.1,0
		c0.5-0.2,1-0.1,1.3,0.3c0.2,0.4,0.6,0.6,1,0.7c0.4,0.1,0.9,0,1.2-0.3C169.1,16.3,169.3,15.9,169.4,15.5z"/>
	<path class="st0" d="M172.7,17.8V6.5c0.1-0.5,0.5-0.9,1-0.8c0.4,0,0.8,0.4,0.8,0.8v11.3c-0.1,0.5-0.5,0.9-1,0.8
		C173.1,18.6,172.8,18.2,172.7,17.8z"/>
	<path class="st0" d="M176.4,15.5V8.8c0.1-1.8,1.6-3.2,3.5-3.1c1.7,0.1,3,1.4,3.1,3.1v6.6c-0.1,1.8-1.6,3.2-3.5,3.1
		C177.8,18.5,176.5,17.1,176.4,15.5z M178.2,8.8v6.6c-0.1,0.8,0.5,1.5,1.3,1.5c0.8,0.1,1.5-0.5,1.5-1.3c0-0.1,0-0.2,0-0.2V8.8
		c-0.1-0.8-0.7-1.4-1.5-1.3C178.8,7.6,178.3,8.2,178.2,8.8z"/>
	<path class="st0" d="M190.3,18.2c-0.4-0.8-0.8-1.7-1.2-2.6c-0.7-1.5-1.7-3.4-2.4-5.1v7.2c-0.1,0.5-0.5,0.9-1,0.8
		c-0.4,0-0.8-0.4-0.8-0.8V6.5c0-0.4,0.3-0.8,0.7-0.9c0.4-0.1,0.8,0.2,1,0.5c0.4,0.8,0.8,1.7,1.2,2.6c0.7,1.5,1.6,3.4,2.5,5.1V6.5
		c0.1-0.5,0.5-0.9,1-0.8c0.4,0,0.8,0.4,0.8,0.8v11.3c0,0.4-0.3,0.8-0.7,0.9C190.8,18.8,190.4,18.6,190.3,18.2z"/>
	<path class="st0" d="M198.1,15.5c0-0.4-0.1-0.9-0.4-1.2l-3.1-3.2c-0.7-0.7-1-1.6-0.9-2.5c0.1-0.9,0.6-1.8,1.3-2.4
		c0.7-0.6,1.7-0.8,2.6-0.6c0.9,0.2,1.7,0.8,2.2,1.6c0.2,0.5,0.1,1-0.3,1.3c-0.4,0.3-1,0.1-1.3-0.3c0,0,0,0,0,0
		c-0.2-0.3-0.5-0.6-0.9-0.7c-0.4-0.1-0.8,0-1.1,0.3c-0.3,0.2-0.5,0.6-0.6,1c0,0.4,0.1,0.8,0.4,1.1l3,3.2c0.7,0.7,1.1,1.6,1,2.6
		c-0.1,1.9-1.7,3.3-3.6,3.1c-1.1-0.1-2.1-0.7-2.7-1.7c-0.3-0.4-0.1-1,0.3-1.3c0,0,0,0,0,0c0.5-0.2,1-0.1,1.3,0.3
		c0.2,0.4,0.6,0.6,1,0.7c0.4,0.1,0.9,0,1.2-0.3C197.9,16.3,198.1,15.9,198.1,15.5z"/>
</g>
<g>
	<rect x="106.4" y="13.4" class="st1" width="10.6" height="10.6"/>
	<rect x="106.4" class="st2" width="10.6" height="10.6"/>
	<rect x="92.5" class="st1" width="10.6" height="10.6"/>
	<rect x="92.5" y="13.4" class="st2" width="10.6" height="10.6"/>
</g>
</svg>
