<?xml version="1.0" encoding="utf-8"?>
<!-- Generator: Adobe Illustrator 24.0.0, SVG Export Plug-In . SVG Version: 6.00 Build 0)  -->
<svg version="1.1" id="Layer_1" xmlns="http://www.w3.org/2000/svg" xmlns:xlink="http://www.w3.org/1999/xlink" x="0px" y="0px"
	 viewBox="0 0 175.6 29.1" style="enable-background:new 0 0 175.6 29.1;" xml:space="preserve">
<style type="text/css">
	.st0{fill:#101117;}
	.st1{fill:#F78F1E;}
	.st2{fill:#706F6F;}
</style>
<title>logo-cms</title>
<g>
	<path class="st0" d="M0,21.6V8c0-0.6,0.5-1.1,1.1-1.1c0,0,0,0,0.1,0c0.6,0,1.1,0.5,1.1,1.1c0,0,0,0,0,0v13.6c0,0.6-0.5,1.1-1.1,1.1
		c0,0,0,0,0,0C0.5,22.8,0,22.3,0,21.6C0,21.7,0,21.6,0,21.6z"/>
	<path class="st0" d="M11.4,22.1c-0.5-1-1-2-1.5-3.1c-0.9-1.8-2-4.1-3-6.1v8.7c0,0.6-0.5,1.1-1.1,1.1s-1.1-0.5-1.1-1.1V8
		c0-0.5,0.3-1,0.9-1.1c0.5-0.1,1,0.1,1.3,0.6c0.5,1,1,2,1.5,3.1c0.9,1.8,1.9,4.1,3,6.1V8c0-0.6,0.5-1.1,1.1-1.1s1.1,0.5,1.1,1.1
		v13.6c0,0.5-0.4,1-0.9,1.1C12.2,22.9,11.6,22.6,11.4,22.1z"/>
	<path class="st0" d="M23.4,8.1c0,0.6-0.5,1.1-1.1,1.1c0,0,0,0,0,0h-1.9v12.4c0,0.6-0.5,1.1-1.1,1.1c-0.6,0-1.1-0.5-1.1-1.1V9.2
		h-1.9c-0.6,0-1.1-0.5-1.1-1.1s0.5-1.1,1.1-1.1h6.1C22.9,6.9,23.4,7.4,23.4,8.1C23.4,8.1,23.4,8.1,23.4,8.1z"/>
	<path class="st0" d="M26.1,7h4.7c0.6,0,1.1,0.5,1.1,1.1s-0.5,1.1-1.1,1.1h-3.6v4.2h3.1c0.6,0,1.1,0.5,1.1,1.1s-0.5,1.1-1.1,1.1
		h-3.1v4.7h3.6c0.6,0,1.1,0.5,1.1,1.1c0,0.6-0.5,1.1-1.1,1.1h-4.7c-0.6,0-1.1-0.5-1.1-1.1c0,0,0,0,0,0V8.1C25,7.5,25.5,7,26.1,7z"/>
	<path class="st0" d="M33.6,21.5V8c0-0.6,0.5-1.1,1.1-1.1c0.6,0,1.1,0.5,1.1,1.1v12.4h3.6c0.6,0,1.1,0.5,1.1,1.1
		c0,0.6-0.5,1.1-1.1,1.1h-4.7C34.1,22.7,33.6,22.2,33.6,21.5C33.6,21.6,33.6,21.6,33.6,21.5z"/>
	<path class="st0" d="M41.8,21.5V8c-0.1-0.6,0.3-1.2,0.9-1.3C43.3,6.6,43.9,7,44,7.6c0,0.1,0,0.2,0,0.4v12.4h3.6
		c0.6,0,1.1,0.5,1.1,1.1c0,0.6-0.5,1.1-1.1,1.1l0,0h-4.7C42.3,22.7,41.8,22.2,41.8,21.5C41.8,21.6,41.8,21.5,41.8,21.5z"/>
	<path class="st0" d="M50,21.6V8c0-0.6,0.5-1.1,1.1-1.1c0.6,0,1.1,0.5,1.1,1.1v13.6c0,0.6-0.5,1.1-1.1,1.1
		C50.5,22.8,50,22.3,50,21.6C50,21.6,50,21.6,50,21.6z"/>
	<path class="st0" d="M62.3,15.1v3.8c0.3,2.2-1.2,4.2-3.4,4.6c-2.2,0.3-4.2-1.2-4.6-3.4c-0.1-0.4-0.1-0.8,0-1.2v-8
		c0.1-2.2,1.9-3.9,4.1-3.9c1.3,0,2.6,0.7,3.3,1.9c0.3,0.5,0.1,1.2-0.4,1.6c-0.5,0.3-1.2,0.2-1.5-0.4c-0.5-0.8-1.5-1.1-2.3-0.6
		c-0.5,0.3-0.8,0.8-0.8,1.4v8c0,0.9,0.8,1.7,1.7,1.7c0.9,0,1.7-0.7,1.7-1.7c0,0,0,0,0,0v-2.7h-1.2c-0.6,0-1.1-0.5-1.1-1.1
		s0.5-1.1,1.1-1.1h2.3C61.8,13.9,62.3,14.4,62.3,15.1C62.3,15,62.3,15,62.3,15.1z"/>
	<path class="st0" d="M65.5,7h4.7c0.6,0,1.1,0.5,1.1,1.1s-0.5,1.1-1.1,1.1h-3.6v4.2h3.1c0.6,0,1.1,0.5,1.1,1.1s-0.5,1.1-1.1,1.1l0,0
		h-3.1v4.7h3.6c0.6,0,1.1,0.5,1.1,1.1c0,0.6-0.5,1.1-1.1,1.1h-4.7c-0.6,0-1.1-0.5-1.1-1.1c0,0,0,0,0,0V8.1C64.4,7.5,64.9,7,65.5,7z"
		/>
	<path class="st0" d="M79.7,22.1c-0.5-1-1-2-1.5-3.1c-0.9-1.8-2-4.1-3-6.1v8.7c0,0.6-0.5,1.1-1.1,1.1c-0.6,0-1.1-0.5-1.1-1.1l0,0V8
		c0-0.5,0.3-1,0.9-1.1c0.5-0.1,1,0.1,1.3,0.6c0.5,1,1,2,1.5,3.1c0.9,1.8,2,4.1,3,6.1V8c0-0.6,0.5-1.1,1.1-1.1c0.6,0,1.1,0.5,1.1,1.1
		v13.6c0,0.5-0.4,1-0.9,1.1C80.5,22.9,79.9,22.6,79.7,22.1z"/>
	<path class="st0" d="M84,18.8v-8C84,9,85.2,7.5,86.9,7c1.7-0.5,3.6,0.3,4.4,1.8c0.3,0.5,0.2,1.2-0.3,1.5c0,0,0,0-0.1,0
		c-0.5,0.3-1.2,0.1-1.6-0.4c-0.4-0.7-1.2-1-1.9-0.8c-0.7,0.2-1.2,0.9-1.2,1.6v8c0,0.9,0.7,1.7,1.6,1.7c0.6,0,1.2-0.3,1.5-0.9
		c0.3-0.6,1-0.8,1.6-0.5c0,0,0,0,0,0c0.5,0.3,0.7,0.9,0.4,1.5c0,0,0,0,0,0.1c-1.1,1.9-3.5,2.5-5.4,1.4C84.8,21.5,84,20.2,84,18.8
		L84,18.8z"/>
	<path class="st0" d="M94.5,7h4.7c0.6,0,1.1,0.5,1.1,1.1s-0.5,1.1-1.1,1.1h-3.6v4.2h3.1c0.6,0,1.1,0.5,1.1,1.1s-0.5,1.1-1.1,1.1
		h-3.1v4.7h3.6c0.6,0,1.1,0.5,1.1,1.1c0,0.6-0.5,1.1-1.1,1.1h-4.7c-0.6,0-1.1-0.5-1.1-1.1c0,0,0,0,0,0V8.1C93.4,7.5,93.9,7,94.5,7z"
		/>
	<path class="st0" d="M146.9,18.8v-8c0-1.8,1.2-3.4,2.9-3.8c1.7-0.5,3.6,0.3,4.4,1.8c0.3,0.5,0.2,1.2-0.3,1.5c0,0,0,0-0.1,0
		c-0.5,0.3-1.2,0.1-1.6-0.4c-0.4-0.7-1.2-1-1.9-0.8c-0.7,0.2-1.2,0.9-1.2,1.6v8c0,0.8,0.5,1.4,1.2,1.6c0.7,0.2,1.5-0.1,1.9-0.8
		c0.3-0.5,1-0.7,1.6-0.4c0.5,0.3,0.7,0.9,0.4,1.5c0,0,0,0,0,0.1c-1.1,1.9-3.5,2.5-5.4,1.4C147.6,21.5,146.9,20.2,146.9,18.8
		L146.9,18.8z"/>
	<path class="st0" d="M156.2,21.6V8c0-0.6,0.5-1.1,1.1-1.1c0.4,0,0.8,0.3,1,0.7c0.3,0.7,0.6,1.4,1,2c0.6,1.2,1.2,2.6,1.8,3.8
		c0.5-1.1,1.2-2.6,1.8-3.8c0.3-0.7,0.6-1.4,1-2.1c0.4-0.5,1.1-0.7,1.6-0.3c0.3,0.2,0.4,0.5,0.5,0.8v13.6c0,0.6-0.5,1.1-1.1,1.1
		c-0.6,0-1.1-0.5-1.1-1.1c0,0,0,0,0,0v-8.6c-0.4,0.8-0.8,1.7-1.1,2.3c-0.2,0.4-0.4,0.7-0.5,1.1c-0.2,0.4-0.6,0.7-1,0.7
		c-0.4,0-0.8-0.2-1-0.7c-0.2-0.4-0.4-0.7-0.5-1.1c-0.3-0.6-0.7-1.5-1.1-2.3v8.6c0,0.6-0.5,1.1-1.1,1.1
		C156.8,22.8,156.3,22.3,156.2,21.6L156.2,21.6z"/>
	<path class="st0" d="M173.4,18.8c0.1-0.5-0.1-1-0.5-1.4l-3.8-3.9c-0.8-0.8-1.2-1.9-1.1-3.1c0.1-1.1,0.7-2.2,1.6-2.8
		c0.9-0.7,2.1-0.9,3.2-0.7c1.1,0.2,2.1,0.9,2.6,1.9c0.3,0.5,0.1,1.2-0.4,1.6c-0.5,0.3-1.2,0.1-1.5-0.4c-0.2-0.4-0.7-0.7-1.1-0.8
		c-0.5-0.1-1,0-1.4,0.3c-0.7,0.6-0.9,1.6-0.3,2.4c0,0.1,0.1,0.1,0.1,0.2l3.7,3.9c0.8,0.8,1.3,2,1.2,3.2c-0.1,1.2-0.7,2.2-1.6,2.9
		c-1.8,1.4-4.3,1-5.7-0.7c-0.1-0.1-0.2-0.3-0.3-0.5c-0.3-0.5-0.2-1.2,0.3-1.5c0,0,0,0,0.1,0c0.5-0.3,1.2-0.1,1.6,0.4
		c0.5,0.9,1.6,1.2,2.4,0.7c0.1,0,0.2-0.1,0.2-0.2C173.1,19.8,173.3,19.4,173.4,18.8z"/>
</g>
<g>
	<rect x="125.5" y="16.3" class="st1" width="12.8" height="12.8"/>
	<rect x="125.5" class="st1" width="12.8" height="12.8"/>
	<rect x="108.7" class="st1" width="12.8" height="12.8"/>
	<rect x="108.7" y="16.3" class="st2" width="12.8" height="12.8"/>
</g>
</svg>
