<?xml version="1.0" encoding="utf-8"?>
<!-- Generator: Adobe Illustrator 23.0.1, SVG Export Plug-In . SVG Version: 6.00 Build 0)  -->
<svg version="1.1" id="Layer_1" xmlns="http://www.w3.org/2000/svg" xmlns:xlink="http://www.w3.org/1999/xlink" x="0px" y="0px"
	 viewBox="0 0 41.1 42.7" style="enable-background:new 0 0 41.1 42.7;" xml:space="preserve">
<style type="text/css">
	.st0{fill-rule:evenodd;clip-rule:evenodd;}
</style>
<g>
	<path class="st0" d="M31.1,11.1C29,7.2,24.9,4.8,20.5,4.8c-6.6,0-12,5.4-12,12h2.4v16.8H4.5c-1.8,0-3.2-1.4-3.2-3.2V20
		c0-1.8,1.4-3.2,3.2-3.2h0.8c0-8.4,6.8-15.2,15.2-15.2c5.6,0,10.8,3.1,13.4,8c0.4,0.8,0.1,1.8-0.6,2.2
		C32.5,12.2,31.5,11.9,31.1,11.1z M36.5,16.8h-6.4v16.8h2.4V36c0,1.3-1.1,2.4-2.4,2.4h-6.8c-0.6-1-1.6-1.6-2.8-1.6
		c-1.8,0-3.2,1.4-3.2,3.2v1.6h12.8c3.1,0,5.6-2.5,5.6-5.6v-2.4h0.8c1.8,0,3.2-1.4,3.2-3.2V20C39.7,18.2,38.2,16.8,36.5,16.8z
		 M4.5,30.4h3.2V20H4.5V30.4z M33.3,30.4h3.2V20h-3.2V30.4z"/>
</g>
</svg>
