<?xml version="1.0" encoding="utf-8"?>
<!-- Generator: Adobe Illustrator 23.0.1, SVG Export Plug-In . SVG Version: 6.00 Build 0)  -->
<svg version="1.1" id="Layer_1" xmlns="http://www.w3.org/2000/svg" xmlns:xlink="http://www.w3.org/1999/xlink" x="0px" y="0px"
	 viewBox="0 0 50 50" style="enable-background:new 0 0 50 50;" xml:space="preserve">
<style type="text/css">
	.st0{fill-rule:evenodd;clip-rule:evenodd;}
</style>
<g>
	<path class="st0" d="M10.6,9.8h28.8c3.1,0,5.6,2.5,5.6,5.6v19.2c0,3.1-2.5,5.6-5.6,5.6H10.6c-3.1,0-5.6-2.5-5.6-5.6V15.4
		C5,12.3,7.5,9.8,10.6,9.8z M39.4,13H10.6c-1.3,0-2.4,1.1-2.4,2.4v2.4h33.6v-2.4C41.8,14.1,40.7,13,39.4,13z M10.6,13.8
		c0.9,0,1.6,0.7,1.6,1.6S11.5,17,10.6,17S9,16.3,9,15.4S9.7,13.8,10.6,13.8z M17,15.4c0-0.9-0.7-1.6-1.6-1.6s-1.6,0.7-1.6,1.6
		s0.7,1.6,1.6,1.6S17,16.3,17,15.4z M37.8,37h1.6c1.3,0,2.4-1.1,2.4-2.4V21H8.2v13.6c0,1.3,1.1,2.4,2.4,2.4h1.6V25h25.6V37z
		 M15.4,37v-8.8h19.2V37H15.4z"/>
</g>
</svg>
