<?xml version="1.0" encoding="utf-8"?>
<!-- Generator: Adobe Illustrator 23.0.1, SVG Export Plug-In . SVG Version: 6.00 Build 0)  -->
<svg version="1.1" id="Layer_1" xmlns="http://www.w3.org/2000/svg" xmlns:xlink="http://www.w3.org/1999/xlink" x="0px" y="0px"
	 viewBox="0 0 50 50" style="enable-background:new 0 0 50 50;" xml:space="preserve">
<style type="text/css">
	.st0{fill-rule:evenodd;clip-rule:evenodd;}
</style>
<g>
	<path class="st0" d="M25,5c9.6,0,17.1,5,17.1,11.4c0,0.2,0,0.4,0,0.7c0,0.1,0,0.2,0,0.3v4.8c0,0.2,0,0.4,0,0.7c0,0.1,0,0.2,0,0.3
		v4.8c0,0.2,0,0.4,0,0.7c0,0.1,0,0.2,0,0.3v4.8C42.1,40,34.6,45,25,45c-9.6,0-17.1-5-17.1-11.4v-4.8c0-0.1,0-0.2,0-0.3
		c0-0.2,0-0.4,0-0.7v-4.8c0-0.1,0-0.2,0-0.3c0-0.2,0-0.4,0-0.7v-4.8c0-0.1,0-0.2,0-0.3c0-0.2,0-0.4,0-0.7C7.9,10,15.4,5,25,5z
		 M38.3,16.4c0-4.1-6.1-7.6-13.3-7.6s-13.3,3.5-13.3,7.6c0,4.1,6.1,7.6,13.3,7.6S38.3,20.6,38.3,16.4z M18.8,19.7l1.8-1.6
		c1.2,0.6,2.3,1,3.6,1.1V17c-3.2-0.5-4.8-1.3-4.8-3V14c0-1.5,1.9-2.5,4.7-2.7v-0.8h2.3v0.9c1.6,0.1,2.9,0.5,4.1,1L29,13.9
		c-0.9-0.4-1.9-0.7-2.8-0.8v2.1c3.4,0.6,4.8,1.4,4.8,3v0c0,1.6-1.9,2.6-4.7,2.8v1.4H24V21C22.1,20.9,20.3,20.4,18.8,19.7z M24.2,13
		c-1.1,0.1-1.5,0.4-1.5,0.9c0,0.4,0.3,0.7,1.5,1V13z M26.3,17.3c1.2,0.3,1.6,0.6,1.6,1v0c0,0.5-0.5,0.8-1.6,0.9V17.3z M12.1,24
		c3.1,2.4,7.7,3.8,12.9,3.8c5.2,0,9.8-1.5,12.9-3.8c-1.5,3.2-6.8,5.7-12.9,5.7C18.9,29.8,13.6,27.3,12.1,24z M37.9,29.8
		c-3.1,2.3-7.7,3.8-12.9,3.8c-5.2,0-9.8-1.5-12.9-3.8c1.5,3.2,6.8,5.7,12.9,5.7C31.1,35.5,36.4,33,37.9,29.8z M25,41.2
		c-6.1,0-11.4-2.5-12.9-5.7c3.1,2.4,7.7,3.8,12.9,3.8c5.2,0,9.8-1.5,12.9-3.8C36.4,38.7,31.1,41.2,25,41.2z"/>
</g>
</svg>
