<?xml version="1.0" encoding="utf-8"?>
<!-- Generator: Adobe Illustrator 24.0.0, SVG Export Plug-In . SVG Version: 6.00 Build 0)  -->
<svg version="1.1" id="Layer_1" xmlns="http://www.w3.org/2000/svg" xmlns:xlink="http://www.w3.org/1999/xlink" x="0px" y="0px"
	 viewBox="0 0 100 100" style="enable-background:new 0 0 100 100;" xml:space="preserve">
<title>contracts</title>
<g>
	<path d="M92,42h-8V0H16v32H8c-4.4,0-8,3.6-8,8v52c0,4.4,3.6,8,8,8h84c4.4,0,8-3.6,8-8V50C100,45.6,96.4,42,92,42z M24,8h52v34H47.7
		l-6-6H60v-8H32v4h-8V8z M92,92H8V40h26.3l10,10H92V92z"/>
	<rect x="32" y="16" width="36" height="8"/>
</g>
</svg>
