<svg xmlns="http://www.w3.org/2000/svg" width="37.573" height="40" viewBox="0 0 37.573 40">
  <path fill="rgb(0,0,0)" fill-rule="evenodd" d="M37.53098297 16.3007965l-3.301651-11.33111953c-.058609-.21490097-.21490478-.41026687-.4102707-.5274849L26.72734834.26140023c-.1367569-.07814598-.29304886-.11721801-.44934082-.11721801h-4.29801178c-.48841095-.21490098-1.07450104-.195364-1.58245087.09768104-.85960388.48841095-1.15264892 1.60198593-.66423798 2.46158981.0781479.15629006.19536591.27350998.31258393.390728v17.40694809c-.58609009.56655502-.72284699 1.46523285-.31258393 2.18807983.0781479.15628815.19536591.27350617.31258393.39072419v13.59735107c-.37119293.23443604-.62516785.58609009-.76192093.9768219-.11721802-.39073181-.390728-.74238586-.76192093-.9768219V23.07993317c.11721802-.11721802.21490097-.2539711.31258392-.39072419.42980194-.72284698.27350998-1.6215248-.31258392-2.18807983V3.09418106c.11721802-.11721802.21490097-.253973.31258392-.390728.48841095-.85960388.1953659-1.95364189-.66423797-2.4615898-.50794983-.29304505-1.09403992-.31258203-1.58245087-.09768105h-4.29801178c-.15629196 0-.31258392.03907203-.449337.11721801l-5.86092377 3.4384098c-.82052994-.31258392-1.7582779 0-2.2076168.781456-.37119103.64470291-.29304696 1.40662384.11721801 1.97317887l-2.44205093 8.4983406c-.48841095.09768295-.93774796.390728-1.21125794.85960388-.48841095.85960007-.195364 1.95363999.66423798 2.46158982.390728.23443603.840065.29304504 1.25032997.19536209l3.71191788 5.50926971v4.70827866c-.46887207.11721802-.87913704.41026306-1.13311005.840065-.48841095.85960388-.195364 1.95363999.66423798 2.461586.840065.48841095 1.89503097.21490478 2.40297699-.58609009l2.5397377.52748108.87913894 3.6337738c.05860901.2735138.2539711.50794983.52748108.60562897l4.10264588 1.7582779c-.11721802.70331573.21490478 1.44569396.87914276 1.83642578.85960388.48841095 1.95363998.1953659 2.461586-.66423798.058609-.11721802.11721801-.23443604.15629196-.35165405.03907394.11721801.09768295.23443603.15629196.35165405.48841095.85960388 1.60198593 1.15264893 2.461586.66423798.66424179-.37119294.9768219-1.1135788.87914276-1.83642579l4.10264587-1.75827789c.25397492-.11721802.44934082-.33211517.52748108-.60562897l.87914276-3.6337738 3.75099183-.781456c.41026306-.07814407.7033081-.449337.7033081-.87913512v-6.29072953l4.66920471-6.93542862c.09768677-.21489715.1367569-.48841095.05860901-.74238586zM15.49390411 1.94153215h-2.94999694l-5.41159058 3.1844368c.058609.37119293 0 .78145599-.21490097 1.15264892-.01953507.03907013-.05860901.07814407-.07814407.11721802l3.8291397 3.67284393c.54701996-.52748108 1.38708497-.68377304 2.09039307-.3125801l3.1258278-6.83774758c-.23443604-.27350807-.37118913-.62516403-.390728-.97682zM32.4515152 5.71205902l-4.53244782 4.35662079c-.54701996-.54701614-1.38708496-.68377304-2.09039688-.3125801l-3.12582779-6.83774758c.21490097-.29304505.35165406-.62516403.390728-.97682h2.95000076l6.40794373 3.7705269zM16.744236 9.22861862l-.42980195-5.82185364-3.08675384 6.72052765c.50794601.56655503.6447029 1.4261589.23443603 2.12947083-.058609.11721802-.13675308.21490097-.23443603.3125801l3.51655578 3.37980271V9.22861862zm8.59602355 3.32118988c-.07814789-.07814407-.15629196-.19536209-.23443603-.31258392-.390728-.68377304-.27350998-1.54337692.21490097-2.10993195L22.2535057 3.40676498l-.42980194 5.82185364v6.70098877l3.51655578-3.37979889zm3.92681885 2.44205094l4.8059578-4.2198639-1.32847596-4.51291275-4.45430374 4.29801178c.41026688.840065.09768295 1.87549591-.72284698 2.3443718-.07814408.058609-.15629197.07814407-.23443604.11721802l.9182129 1.97317505c.35165404-.09767914.68377303-.09767914 1.01589202 0zM5.5694046 7.1577568c.31258393-.03907395.60562897-.15629197.85960388-.332119l3.86820984 3.73145676c-.41026306.840065-.09768295 1.85595704.72284699 2.34436798l.23443603.11721802-.91820907 1.97317887c-.332119-.09767914-.68377686-.09767914-1.01589585 0l-4.8059578-4.2198639L5.5694046 7.15775681zm24.16654968 11.05761337l1.91456986 4.20032883.37118912-.54701615 2.30529785-10.23708343-.07814408-.25397492-4.4152298 3.88774872c.1953621.15628815.37119294.33211899.48841096.54701996.48840713.82052612.21490097 1.89503097-.5860939 2.40297699zM4.3386116 11.39715958l4.4152298 3.88774871c-.1953621.13675309-.35165405.332119-.48841095.54701615-.48841095.84006882-.21490097 1.89503479.5860939 2.4029808L6.9369545 22.43523407l-.37119293-.54701996L4.26046562 11.6511345l.07814598-.25397491zm-.42980385 1.4261589l-.78145599 2.71556091c.41026497.46887589.56655693 1.13311387.35165596 1.73874283l2.16854096 3.22350693-1.73874093-7.67781067zm30.76986123 0l-1.73874283 7.67781067 2.77416992-4.10264587-1.0354271-3.5751648zm-21.91986084.11721802l3.98542785 3.84867477v3.30165482c-.35165405.11721802-.66423797.33211899-.898674.62516403l-4.23940278-3.73145676c.09768295-.6446991-.17582703-1.32847595-.72284698-1.71920394l.9768219-2.10993195c.3125801 0 .62516403-.07814789.898674-.21490097zm14.22250747 4.04403686l-4.23940277 3.73145676c-.23443603-.3125801-.54701996-.52748108-.898674-.62516403v-3.30165482l3.98542785-3.84867477c.27350998.13675308.5860939.21490097.89867782.21490097l.97681809 2.10993195c-.54701996.390728-.82052613 1.07450485-.72284699 1.71920394zm-15.3165474 10.29569245c.42979814-.5860939 1.172184-.85960388 1.87549592-.68377686l2.55926895-3.47748184c-.50794601-.46887207-.72284698-1.19171905-.50794601-1.85595703l-4.18079377-3.67284775c-.01953506 0-.01953506.01953507-.01953506.01953507-.41026688.70331192-1.21125793 1.01589584-1.97317886.84006881L7.3276825 22.98225403l.13675308.21490097c.09768295.15629196.15629196.33211899.15629196.50794601v1.621521l4.04404068 1.9536438zm19.45827104-4.06357575c-.09768296.15629197-.15629197.31258393-.15629197.50794602v1.6215248l-4.04404068 1.95364c-.42979812-.58609391-1.17218399-.85960007-1.8754959-.68377305L22.48794173 23.138546c.5274849-.46887589.72284699-1.19172287.50794602-1.85596085l4.20033264-3.6923828s0 .01953506.01953506.01953506c.41026306.70331192 1.230793 1.0354309 1.97317887.84006881l2.09039306 4.53244782-.15628814.23443603zm-17.03575516 3.6337738l2.50065994-3.41887283c.05860901.01953507.09768295.03907395.15629196.05860901v6.27119065c-.01953506-.01953888-.058609-.05860901-.09768295-.0781479l-1.8168869-.87913512c.21490097-.7228508-.07814408-1.52384186-.74238205-1.9536438zm7.75595474-3.36026382c.058609-.01953506.09768295-.03907394.15629196-.058609l2.50065994 3.39933776c-.66423797.42979813-.95728302 1.25032807-.74238204 1.97317887l-1.8168869.87913513c-.03907395.01953888-.05860902.03907394-.09768296.07814789v-6.27119065zM10.88330841 30.2107277l-.60562897-.11721802-2.2662239-3.90728378 3.37979889 1.64105988c-.15629197.48841095-.07814408 1.01589203.17583084 1.44569397l-.68377686.93774795zm16.13708115-.93774795l.68377304.93774795.60562896-.11721802 2.26622773-3.90728378-3.3798027 1.64105988c.15629195.48841095.07814788 1.01589203-.17582703 1.44569397zM7.62072754 26.69417572v2.57880783c.07814407.09768295.15629196.1953621.21490097.31258011l1.66059494.35165787-1.87549591-3.24304581zm21.47052383 3.2430458l1.87549591-3.2430458v2.85231781l-1.8754959.390728zm-17.17251205 1.01589204c-.05860901-.23443985-.21489716-.42980195-.41026306-.56655884l.48841095-.66423798.23443603.17583084c.82052994.46887207 1.85596085.23443604 2.38344193-.5274849l1.79735183.87913896c.11721802.058609.27350998.01953506.35165406-.07814408v6.19304276l-3.92681885-1.68013-.9182129-3.73145676zm13.8317833 3.73145675l.91821288-3.73145675c.05860901-.23443985.21490097-.44933701.41026307-.56655884l-.48840714-.66423798c-.07814789.07814789-.15629196.11722183-.23443985.17583084-.82052994.48840714-1.85595703.23443604-2.38344192-.5274849l-1.79735184.87913896c-.11721802.058609-.27350998.01953506-.35165405-.07814408v6.19304276l3.92681884-1.68013z"/>
</svg>
