<?xml version="1.0" encoding="utf-8"?>
<!-- Generator: Adobe Illustrator 23.0.1, SVG Export Plug-In . SVG Version: 6.00 Build 0)  -->
<svg version="1.1" id="Layer_1" xmlns="http://www.w3.org/2000/svg" xmlns:xlink="http://www.w3.org/1999/xlink" x="0px" y="0px"
	 viewBox="0 0 50 50" style="enable-background:new 0 0 50 50;" xml:space="preserve">
<style type="text/css">
	.st0{fill-rule:evenodd;clip-rule:evenodd;}
</style>
<g>
	<path class="st0" d="M44.1,5v32.3l-18.3-7.7h-2.4L28.6,45h-6.1c-2.6,0-4.9-1.7-5.7-4.1l-3.7-11.2h-1.3c-3.3,0-6-2.7-6-6v-5.1
		c0-3.3,2.7-6,6-6h14.1L44.1,5z M39,31.5l1.7,0.7V10.1L39,10.8V31.5z M11.8,26.3h14.8l9,3.8V12.3l-9,3.8H11.8
		c-1.4,0-2.6,1.1-2.6,2.6v5.1C9.3,25.1,10.4,26.3,11.8,26.3z M23.9,41.6h-1.4c-1.1,0-2.1-0.7-2.4-1.7l-3.4-10.2H20L23.9,41.6z"/>
</g>
</svg>
