<?xml version="1.0" encoding="utf-8"?>
<!-- Generator: Adobe Illustrator 23.0.1, SVG Export Plug-In . SVG Version: 6.00 Build 0)  -->
<svg version="1.1" id="Layer_1" xmlns="http://www.w3.org/2000/svg" xmlns:xlink="http://www.w3.org/1999/xlink" x="0px" y="0px"
	 viewBox="0 0 50 50" style="enable-background:new 0 0 50 50;" xml:space="preserve">
<style type="text/css">
	.st0{fill-rule:evenodd;clip-rule:evenodd;}
</style>
<g>
	<path class="st0" d="M14.6,23.4c-4,0-7.2-3.2-7.2-7.2c0-4,3.2-7.2,7.2-7.2c4,0,7.2,3.2,7.2,7.2C21.8,20.2,18.6,23.4,14.6,23.4z
		 M35.4,23.4c-4,0-7.2-3.2-7.2-7.2c0-4,3.2-7.2,7.2-7.2c4,0,7.2,3.2,7.2,7.2C42.6,20.2,39.4,23.4,35.4,23.4z M10.6,16.2
		c0-2.2,1.8-4,4-4s4,1.8,4,4s-1.8,4-4,4S10.6,18.4,10.6,16.2z M31.4,16.2c0-2.2,1.8-4,4-4s4,1.8,4,4s-1.8,4-4,4S31.4,18.4,31.4,16.2
		z M5,30.6V41h19.2V30.6c0-3.1-2.5-5.6-5.6-5.6h-8C7.5,25,5,27.5,5,30.6z M25.8,41V30.6c0-3.1,2.5-5.6,5.6-5.6h8
		c3.1,0,5.6,2.5,5.6,5.6V41H25.8z M21,30.6v7.2H8.2v-7.2c0-1.3,1.1-2.4,2.4-2.4h8C19.9,28.2,21,29.3,21,30.6z M41.8,30.6v7.2H29
		v-7.2c0-1.3,1.1-2.4,2.4-2.4h8C40.7,28.2,41.8,29.3,41.8,30.6z"/>
</g>
</svg>
